<?xml version="1.0" encoding="utf-8"?>
<!-- Generator: Adobe Illustrator 16.0.3, SVG Export Plug-In . SVG Version: 6.00 Build 0)  -->
<!DOCTYPE svg PUBLIC "-//W3C//DTD SVG 1.1//EN" "http://www.w3.org/Graphics/SVG/1.1/DTD/svg11.dtd">
<svg version="1.1" id="Layer_1" xmlns="http://www.w3.org/2000/svg" xmlns:xlink="http://www.w3.org/1999/xlink" x="0px" y="0px"
	 viewBox="0 0 140 150" enable-background="new 0 0 140 150" xml:space="preserve">
<path fill="#041E41" d="M125.141,62.467l-31.63,8.678l-9.864-25.722l25.19-6.933c0.839,1.211,1.93,2.786,3.171,4.587
	c1.27,1.838,2.7,3.92,4.188,6.095c1.523,2.228,3.106,4.555,4.628,6.812C122.381,58.292,123.865,60.52,125.141,62.467z
	 M117.005,102.563c1.509-1.333,2.899-2.701,4.164-4.104c1.256-1.391,2.392-2.813,3.402-4.26c0.999-1.437,1.878-2.897,2.634-4.379
	c1.323-2.605,2.172-5.107,2.678-7.435c0.495-2.29,0.658-4.41,0.608-6.299c-0.049-1.86-0.304-3.502-0.652-4.863
	c-0.344-1.346-0.778-2.424-1.197-3.179c-0.113-0.204-0.249-0.438-0.403-0.701c-0.155-0.262-0.329-0.552-0.523-0.866
	c-0.193-0.314-0.405-0.652-0.634-1.013c-0.228-0.359-0.472-0.741-0.731-1.141l-32.08,8.8l1.503,3.916
	c0.012,0.069,0.057,0.349,0.082,0.796c0.027,0.449,0.035,1.07-0.029,1.823c-0.062,0.756-0.196,1.646-0.456,2.631
	c-0.261,0.992-0.647,2.079-1.218,3.219c-0.789,1.58-1.815,3.067-3.077,4.455c-1.272,1.398-2.781,2.692-4.524,3.874
	c-1.75,1.188-3.731,2.262-5.938,3.216c-2.213,0.954-4.645,1.787-7.289,2.493c-2.642,0.708-5.156,1.194-7.529,1.462
	c-2.366,0.266-4.587,0.311-6.655,0.143c-2.057-0.17-3.958-0.554-5.695-1.147c-1.723-0.587-3.284-1.379-4.676-2.371
	c-1.004-0.72-1.826-1.483-2.495-2.226c-0.664-0.737-1.177-1.454-1.566-2.086c-0.387-0.629-0.654-1.178-0.828-1.583
	c-0.173-0.403-0.253-0.665-0.268-0.726l-5.037-36.267c0.004-0.051,0.023-0.259,0.089-0.594s0.177-0.795,0.366-1.351
	c0.188-0.554,0.453-1.2,0.823-1.91c0.37-0.706,0.844-1.476,1.455-2.278c0.832-1.098,1.81-2.126,2.928-3.086
	c1.112-0.955,2.365-1.845,3.758-2.668c1.387-0.82,2.917-1.579,4.586-2.274c1.667-0.693,3.477-1.325,5.432-1.895
	c1.948-0.569,3.803-1.001,5.563-1.296c1.764-0.295,3.439-0.454,5.026-0.476c1.593-0.022,3.1,0.094,4.52,0.351
	c1.432,0.258,2.777,0.658,4.038,1.202c0.92,0.401,1.71,0.847,2.378,1.296c0.674,0.451,1.226,0.903,1.665,1.312
	c0.443,0.411,0.771,0.777,0.997,1.051c0.228,0.276,0.35,0.458,0.38,0.502l0.49,1.282l24.798-6.825
	c-0.132-0.188-0.247-0.356-0.35-0.504c-0.104-0.147-0.191-0.273-0.264-0.376c-0.072-0.104-0.128-0.185-0.169-0.242
	c-0.038-0.057-0.062-0.09-0.065-0.098c-0.007-0.014-0.25-0.336-0.751-0.867c-0.496-0.527-1.243-1.252-2.26-2.075
	c-1.007-0.814-2.273-1.717-3.818-2.614c-1.524-0.884-3.32-1.757-5.404-2.528c-1.211-0.449-2.464-0.841-3.753-1.178
	c-1.279-0.334-2.594-0.615-3.945-0.84c-1.342-0.225-2.719-0.396-4.131-0.514c-1.401-0.118-2.838-0.183-4.308-0.194
	c-1.825-0.018-3.705,0.048-5.636,0.193c-1.925,0.144-3.901,0.369-5.933,0.672c-2.026,0.303-4.106,0.685-6.241,1.146
	c-2.131,0.46-4.319,1-6.563,1.618c-0.104,0.026-0.463,0.11-1.036,0.255c-0.572,0.144-1.356,0.348-2.312,0.613
	c-0.956,0.265-2.083,0.591-3.339,0.978c-1.258,0.388-2.646,0.838-4.125,1.351c-1.41,0.488-2.972,1.06-4.621,1.712
	c-1.653,0.654-3.396,1.392-5.167,2.212c-1.775,0.824-3.582,1.73-5.354,2.723c-1.783,0.998-3.535,2.085-5.193,3.26
	c-2.045,1.448-3.842,2.948-5.39,4.503c-1.567,1.573-2.883,3.208-3.944,4.903c-1.077,1.72-1.893,3.508-2.445,5.367
	c-0.56,1.89-0.847,3.859-0.851,5.908L14.821,99.3c0,0.023,0.08,0.55,0.316,1.435c0.237,0.89,0.635,2.147,1.273,3.626
	c0.647,1.499,1.544,3.229,2.775,5.038c1.253,1.842,2.855,3.766,4.895,5.607c1.223,1.1,2.539,2.114,3.945,3.042
	c1.421,0.938,2.934,1.787,4.534,2.539c1.616,0.763,3.322,1.429,5.113,1.995c1.805,0.57,3.697,1.043,5.671,1.409
	c2.492,0.462,5.106,0.756,7.838,0.883c2.749,0.127,5.608,0.082,8.575-0.135c2.98-0.22,6.06-0.611,9.233-1.177
	c3.181-0.568,6.449-1.309,9.794-2.223c3.358-0.922,6.59-1.932,9.683-3.023c3.09-1.091,6.04-2.265,8.839-3.515
	c2.789-1.249,5.424-2.572,7.898-3.968c2.461-1.387,4.758-2.844,6.885-4.364C113.847,105.207,115.485,103.904,117.005,102.563z"/>
</svg>
