<?xml version="1.0" encoding="utf-8"?>
<!-- Generator: Adobe Illustrator 16.0.3, SVG Export Plug-In . SVG Version: 6.00 Build 0)  -->
<!DOCTYPE svg PUBLIC "-//W3C//DTD SVG 1.1//EN" "http://www.w3.org/Graphics/SVG/1.1/DTD/svg11.dtd">
<svg version="1.1" xmlns="http://www.w3.org/2000/svg" xmlns:xlink="http://www.w3.org/1999/xlink" x="0px" y="0px"
	 viewBox="0 0 155 150" enable-background="new 0 0 155 150" xml:space="preserve">
<g>
	<g enable-background="new    ">
		<g>
			<path fill="#091F40" d="M57.276,19.707c-0.611,0.137-1.223,0.28-1.835,0.434c-0.613,0.154-1.226,0.315-1.838,0.484
				c-0.613,0.169-1.226,0.346-1.839,0.532c-0.612,0.186-1.223,0.378-1.834,0.579c0.611-0.2,1.223-0.393,1.834-0.579
				c0.613-0.187,1.226-0.363,1.839-0.532c0.612-0.169,1.225-0.331,1.838-0.484C56.053,19.987,56.665,19.844,57.276,19.707z"/>
		</g>
		<g>
			<path fill="#091F40" d="M49.929,21.736c-0.336,0.111-0.673,0.224-1.01,0.339s-0.672,0.233-1.007,0.352
				c-0.335,0.121-0.67,0.244-1.004,0.367c-0.334,0.124-0.668,0.25-1.001,0.38c0.333-0.13,0.667-0.256,1.001-0.38
				c0.334-0.124,0.668-0.246,1.004-0.367c0.335-0.119,0.671-0.237,1.007-0.352S49.593,21.847,49.929,21.736z"/>
		</g>
		<g>
			<path fill="#091F40" d="M90.757,17.978c-0.369-0.052-0.739-0.1-1.114-0.147c-0.37-0.046-0.745-0.09-1.121-0.132
				c-0.374-0.04-0.752-0.081-1.129-0.116c-0.379-0.037-0.758-0.071-1.14-0.103c-1.396-0.115-2.809-0.199-4.23-0.249
				c-1.421-0.051-2.852-0.068-4.285-0.053c-1.433,0.015-2.867,0.062-4.298,0.14c-1.429,0.081-2.854,0.192-4.27,0.336
				c1.416-0.144,2.841-0.255,4.27-0.336c1.431-0.078,2.866-0.125,4.298-0.14c1.434-0.015,2.864,0.002,4.285,0.053
				c1.422,0.049,2.835,0.133,4.23,0.249c0.382,0.032,0.761,0.066,1.14,0.103c0.377,0.036,0.755,0.076,1.129,0.116
				c0.376,0.042,0.751,0.086,1.121,0.132C90.018,17.878,90.388,17.926,90.757,17.978z"/>
		</g>
		<g>
			<polygon fill="#091F40" points="29.438,28.878 29.413,28.9 29.419,28.896 29.427,28.891 29.435,28.887 29.442,28.882 			"/>
		</g>
		<g>
			<path fill="#091F40" d="M69.169,17.654l0.734,4.976c-0.211,0.019-0.422,0.039-0.633,0.061c-0.21,0.021-0.42,0.042-0.629,0.065
				c-0.208,0.021-0.417,0.045-0.625,0.07c-0.208,0.023-0.414,0.048-0.62,0.074l-1.897,0.17l-0.664-4.87
				c0.357-0.055,0.716-0.106,1.074-0.156c0.36-0.049,0.72-0.097,1.082-0.142c0.361-0.046,0.723-0.089,1.086-0.13
				C68.44,17.73,68.805,17.69,69.169,17.654z"/>
		</g>
		<g>
			<path fill="#D41B5A" d="M67.396,22.899c0.206-0.025,0.412-0.05,0.62-0.074c0.208-0.025,0.417-0.048,0.625-0.07
				c0.209-0.023,0.419-0.045,0.629-0.065c0.211-0.021,0.422-0.042,0.633-0.061c-0.211,0.019-0.422,0.039-0.633,0.061
				c-0.21,0.021-0.42,0.042-0.629,0.065c-0.208,0.021-0.417,0.045-0.625,0.07C67.809,22.849,67.602,22.874,67.396,22.899z"/>
		</g>
		<g>
			<path fill="#091F40" d="M52.65,26.104c-0.338,0.106-0.677,0.216-1.016,0.329c-0.339,0.111-0.679,0.228-1.02,0.345
				c-0.34,0.119-0.68,0.24-1.021,0.364c-0.341,0.124-0.682,0.25-1.024,0.38c0.342-0.13,0.683-0.256,1.024-0.38
				c0.341-0.125,0.682-0.245,1.021-0.364c0.341-0.117,0.681-0.233,1.02-0.345C51.973,26.32,52.312,26.21,52.65,26.104z"/>
		</g>
		<g>
			<path fill="#091F40" d="M52.65,26.104c-0.338,0.106-0.677,0.216-1.016,0.329c-0.339,0.111-0.679,0.228-1.02,0.345
				c-0.34,0.119-0.68,0.24-1.021,0.364c-0.341,0.124-0.682,0.25-1.024,0.38l-2.661-4.349c0.333-0.129,0.667-0.255,1.001-0.379
				c0.334-0.124,0.668-0.246,1.004-0.367c0.335-0.119,0.671-0.237,1.007-0.352s0.672-0.229,1.01-0.339L52.65,26.104z"/>
		</g>
		<g>
			<path fill="#D41B5A" d="M120.345,40.627c0.11,0.189,0.221,0.379,0.326,0.57c0.109,0.192,0.213,0.386,0.315,0.582
				c0.104,0.195,0.206,0.394,0.307,0.592c0.1,0.2,0.195,0.401,0.293,0.604c-0.098-0.203-0.193-0.404-0.293-0.604
				c-0.101-0.199-0.203-0.397-0.307-0.592c-0.103-0.196-0.206-0.39-0.315-0.582C120.565,41.006,120.455,40.816,120.345,40.627z"/>
		</g>
		<g>
			<path fill="#091F40" d="M139.185,80.557c-0.062-0.152-0.125-0.307-0.189-0.46c-0.063-0.153-0.13-0.306-0.195-0.46
				c-0.065-0.153-0.136-0.309-0.204-0.461c-0.07-0.155-0.141-0.308-0.215-0.462c0.074,0.154,0.145,0.307,0.215,0.462
				c0.068,0.152,0.139,0.308,0.204,0.461c0.065,0.154,0.132,0.307,0.195,0.46C139.06,80.25,139.123,80.404,139.185,80.557z"/>
		</g>
		<g>
			<path fill="#D41B5A" d="M136.125,107.323c-0.083,0.1-0.165,0.202-0.247,0.3c-0.085,0.101-0.167,0.198-0.25,0.297
				c-0.084,0.097-0.167,0.195-0.252,0.292c-0.083,0.095-0.167,0.192-0.251,0.287c0.084-0.095,0.168-0.192,0.251-0.287
				c0.085-0.097,0.168-0.195,0.252-0.292c0.083-0.099,0.165-0.196,0.25-0.297C135.96,107.525,136.042,107.423,136.125,107.323z"/>
		</g>
		<g>
			<path fill="#D41B5A" d="M97.114,130.151c-2.778,0.755-5.682,1.362-8.662,1.821c-2.979,0.457-6.028,0.763-9.099,0.922
				c-3.069,0.158-6.156,0.166-9.211,0.026c-3.048-0.139-6.064-0.427-8.997-0.859c-1.344-0.29-2.674-0.617-3.988-0.984
				c-1.312-0.365-2.605-0.769-3.876-1.214c-1.269-0.444-2.514-0.928-3.73-1.451c-1.215-0.523-2.401-1.09-3.554-1.695
				c-0.357-0.188-0.711-0.38-1.062-0.577c-0.351-0.195-0.697-0.397-1.041-0.602c-0.343-0.203-0.683-0.411-1.019-0.624
				c-0.335-0.213-0.667-0.429-0.996-0.649c-0.67-0.449-1.324-0.916-1.96-1.401c-0.635-0.485-1.254-0.983-1.854-1.504
				c-0.599-0.518-1.179-1.055-1.74-1.605c-0.56-0.554-1.1-1.124-1.62-1.712c-0.265-0.3-0.523-0.606-0.777-0.914
				c-0.253-0.31-0.501-0.622-0.743-0.941c-0.241-0.317-0.478-0.64-0.707-0.967c-0.23-0.327-0.454-0.658-0.672-0.995
				c-0.453-0.701-0.881-1.422-1.282-2.165c-0.399-0.742-0.771-1.503-1.113-2.285c-0.342-0.78-0.655-1.581-0.938-2.404
				c-0.282-0.819-0.534-1.661-0.754-2.524l-0.106-0.411l-1.101-4.31l-2.438-9.535L23.03,86.5l-2.683-10.499l-0.992-3.876
				l-1.316-5.151c-0.116-0.458-0.22-0.912-0.311-1.365c-0.089-0.451-0.167-0.899-0.231-1.344c-0.064-0.444-0.116-0.886-0.154-1.324
				c-0.039-0.437-0.065-0.871-0.08-1.303c-0.012-0.327-0.016-0.653-0.013-0.978c0.002-0.324,0.013-0.646,0.028-0.967
				c0.016-0.319,0.038-0.638,0.067-0.955c0.029-0.315,0.064-0.63,0.106-0.942c0.106-0.794,0.25-1.574,0.435-2.345
				c0.183-0.766,0.404-1.523,0.66-2.267c0.256-0.743,0.546-1.472,0.87-2.189c0.324-0.716,0.679-1.421,1.065-2.114
				c0.159-0.286,0.324-0.571,0.494-0.851c0.169-0.282,0.344-0.562,0.523-0.838c0.18-0.278,0.365-0.553,0.554-0.825
				c0.189-0.273,0.381-0.543,0.579-0.813c0.668-0.904,1.386-1.785,2.15-2.642c0.761-0.853,1.568-1.683,2.414-2.486
				c0.845-0.804,1.728-1.58,2.645-2.33c0.914-0.75,1.861-1.475,2.836-2.173c0.283-0.203,0.567-0.403,0.854-0.6
				c0.288-0.199,0.576-0.394,0.868-0.587c0.29-0.194,0.583-0.384,0.878-0.574c0.293-0.187,0.59-0.374,0.888-0.559
				c0.986-0.609,1.993-1.195,3.012-1.754c1.018-0.56,2.051-1.094,3.091-1.601c1.04-0.509,2.089-0.989,3.141-1.444
				c1.051-0.455,2.107-0.881,3.161-1.283c0.342-0.13,0.683-0.256,1.024-0.38c0.341-0.125,0.682-0.245,1.021-0.364
				c0.341-0.117,0.681-0.233,1.02-0.345c0.339-0.113,0.678-0.223,1.016-0.329c0.549-0.173,1.097-0.338,1.642-0.497
				c0.544-0.159,1.086-0.307,1.624-0.449c0.539-0.142,1.074-0.275,1.604-0.402c0.53-0.125,1.056-0.243,1.578-0.351
				c0.641-0.16,1.295-0.309,1.963-0.453c0.667-0.142,1.348-0.275,2.042-0.402c0.692-0.125,1.398-0.244,2.114-0.352
				s1.443-0.209,2.181-0.299c0.206-0.025,0.412-0.05,0.62-0.074c0.208-0.025,0.417-0.048,0.625-0.07
				c0.209-0.023,0.419-0.045,0.629-0.065c0.211-0.021,0.422-0.042,0.633-0.061c1.222-0.113,2.465-0.2,3.722-0.26
				c1.259-0.062,2.533-0.095,3.816-0.099c1.283-0.003,2.579,0.021,3.878,0.076c1.3,0.054,2.604,0.14,3.908,0.259
				c0.377,0.034,0.758,0.072,1.138,0.112c0.378,0.039,0.758,0.082,1.135,0.128c0.378,0.046,0.758,0.093,1.136,0.145
				s0.756,0.106,1.132,0.164c1.255,0.191,2.502,0.414,3.737,0.671c1.237,0.259,2.46,0.552,3.668,0.88
				c1.211,0.33,2.404,0.697,3.576,1.1c1.174,0.407,2.324,0.851,3.447,1.336c0.326,0.14,0.648,0.284,0.968,0.43
				c0.321,0.147,0.638,0.298,0.955,0.452c0.315,0.155,0.629,0.312,0.938,0.473c0.313,0.162,0.619,0.325,0.926,0.494
				c0.981,0.542,1.934,1.121,2.854,1.739c0.922,0.618,1.813,1.277,2.666,1.976c0.854,0.701,1.673,1.443,2.448,2.229
				c0.779,0.788,1.516,1.618,2.208,2.496c0.196,0.25,0.39,0.505,0.58,0.764c0.19,0.258,0.375,0.521,0.559,0.787
				c0.181,0.267,0.36,0.536,0.535,0.812c0.174,0.272,0.345,0.551,0.511,0.834c0.11,0.189,0.221,0.379,0.326,0.57
				c0.109,0.192,0.213,0.386,0.315,0.582c0.104,0.195,0.206,0.394,0.307,0.592c0.1,0.2,0.195,0.401,0.293,0.604l3.634,7.733
				l1.733,3.689l4.466,9.5l1.804,3.837l4.247,9.035l0.911,1.944c0.074,0.154,0.145,0.307,0.215,0.462
				c0.068,0.152,0.139,0.308,0.204,0.461c0.065,0.154,0.132,0.307,0.195,0.46c0.064,0.153,0.128,0.308,0.189,0.46
				c0.396,0.989,0.734,1.973,1.016,2.946c0.281,0.979,0.509,1.95,0.681,2.911c0.174,0.966,0.293,1.92,0.36,2.87
				c0.066,0.95,0.083,1.891,0.05,2.822c-0.013,0.333-0.03,0.663-0.056,0.99c-0.023,0.328-0.054,0.656-0.09,0.983
				c-0.037,0.325-0.081,0.651-0.128,0.975c-0.048,0.324-0.104,0.647-0.163,0.968c-0.187,0.997-0.431,1.981-0.726,2.95
				c-0.297,0.972-0.646,1.929-1.042,2.871c-0.399,0.943-0.848,1.874-1.341,2.786c-0.496,0.915-1.037,1.813-1.621,2.693
				c-0.083,0.1-0.165,0.202-0.247,0.3c-0.085,0.101-0.167,0.198-0.25,0.297c-0.084,0.097-0.167,0.195-0.252,0.292
				c-0.083,0.095-0.167,0.192-0.251,0.287c-2.138,2.433-4.646,4.78-7.439,6.988c-2.809,2.221-5.901,4.297-9.19,6.177
				c-3.302,1.889-6.795,3.576-10.388,5.009C104.504,128.108,100.81,129.285,97.114,130.151z M65.285,108.529
				c1.574,1.039,3.279,1.881,5.11,2.526c1.838,0.644,3.799,1.087,5.881,1.325c2.085,0.241,4.289,0.275,6.604,0.102
				c2.317-0.171,4.744-0.55,7.275-1.136c2.525-0.584,4.828-1.3,6.905-2.144c2.075-0.842,3.924-1.809,5.543-2.9
				c1.614-1.09,2.999-2.303,4.152-3.633c1.148-1.327,2.067-2.77,2.752-4.328c0.491-1.128,0.809-2.216,1.011-3.217
				c0.198-0.998,0.281-1.91,0.301-2.69c0.019-0.778-0.025-1.425-0.076-1.896c-0.054-0.469-0.112-0.765-0.127-0.838L93.974,49.211
				c-0.036-0.055-0.19-0.296-0.473-0.664c-0.28-0.366-0.686-0.859-1.225-1.422c-0.537-0.561-1.209-1.191-2.019-1.833
				c-0.808-0.641-1.753-1.293-2.843-1.902c-1.501-0.832-3.088-1.49-4.761-1.973c-1.665-0.481-3.421-0.792-5.26-0.929
				c-1.836-0.138-3.758-0.104-5.767,0.1c-2.007,0.205-4.102,0.579-6.283,1.127c-2.189,0.545-4.199,1.186-6.024,1.926
				c-1.83,0.738-3.479,1.574-4.944,2.503c-1.47,0.932-2.756,1.96-3.858,3.084c-1.106,1.128-2.026,2.352-2.759,3.673
				c-0.535,0.962-0.917,1.891-1.188,2.748c-0.272,0.859-0.434,1.645-0.527,2.319c-0.094,0.677-0.119,1.238-0.119,1.646
				c-0.001,0.408,0.024,0.663,0.03,0.723l12.857,41.263c0.026,0.063,0.158,0.338,0.41,0.76c0.253,0.423,0.627,0.996,1.141,1.655
				c0.516,0.662,1.171,1.408,1.983,2.181C63.162,106.974,64.136,107.771,65.285,108.529"/>
		</g>
		<g>
			<path fill="#D41B5A" d="M69.903,22.63c1.222-0.113,2.465-0.2,3.722-0.26c1.259-0.062,2.533-0.095,3.816-0.099
				c1.283-0.003,2.579,0.021,3.878,0.076c1.3,0.054,2.604,0.14,3.908,0.259c-1.305-0.119-2.608-0.205-3.908-0.259
				c-1.299-0.055-2.595-0.079-3.878-0.076c-1.284,0.004-2.558,0.038-3.816,0.099C72.368,22.43,71.125,22.517,69.903,22.63z"/>
		</g>
		<g>
			<path fill="#091F40" d="M31.558,30.369c-0.296,0.188-0.589,0.378-0.88,0.569c-0.291,0.189-0.579,0.382-0.865,0.576
				c-0.285,0.193-0.568,0.39-0.85,0.586c-0.28,0.196-0.559,0.395-0.833,0.594c0.274-0.2,0.553-0.398,0.833-0.594
				c0.281-0.196,0.564-0.393,0.85-0.586c0.286-0.194,0.574-0.387,0.865-0.576C30.969,30.747,31.262,30.557,31.558,30.369z"/>
		</g>
		<g>
			<path fill="#091F40" d="M21.937,34.503c0.559-0.493,1.137-0.981,1.73-1.461c0.593-0.48,1.204-0.955,1.829-1.421
				c0.625-0.467,1.264-0.928,1.918-1.382c0.652-0.453,1.318-0.899,1.999-1.338c-0.68,0.439-1.347,0.886-1.999,1.338
				c-0.655,0.454-1.294,0.915-1.918,1.382c-0.625,0.466-1.236,0.941-1.829,1.421C23.074,33.522,22.496,34.01,21.937,34.503z"/>
		</g>
		<g>
			<path fill="#D41B5A" d="M85.228,22.605c0.377,0.034,0.758,0.072,1.138,0.112c0.378,0.039,0.758,0.082,1.135,0.128
				c0.378,0.046,0.758,0.093,1.136,0.145s0.756,0.106,1.132,0.164c-0.376-0.058-0.754-0.112-1.132-0.164s-0.758-0.099-1.136-0.145
				c-0.377-0.046-0.757-0.089-1.135-0.128C85.985,22.677,85.604,22.639,85.228,22.605z"/>
		</g>
		<g>
			<path fill="#091F40" d="M89.768,23.155c-0.376-0.058-0.754-0.112-1.132-0.164s-0.758-0.099-1.136-0.145
				c-0.377-0.046-0.757-0.089-1.135-0.128c-0.38-0.04-0.761-0.078-1.138-0.112c0.377,0.034,0.758,0.072,1.138,0.112
				c0.378,0.039,0.758,0.082,1.135,0.128c0.378,0.046,0.758,0.093,1.136,0.145S89.392,23.097,89.768,23.155z"/>
		</g>
		<g>
			<path fill="#091F40" d="M90.761,17.979l-0.993,5.176c-0.376-0.058-0.754-0.112-1.132-0.164s-0.758-0.099-1.136-0.145
				c-0.377-0.046-0.757-0.089-1.135-0.128c-0.38-0.04-0.761-0.078-1.138-0.112l1.025-5.126c0.382,0.032,0.761,0.066,1.141,0.103
				c0.379,0.036,0.757,0.075,1.129,0.116c0.378,0.042,0.752,0.086,1.124,0.133C90.021,17.878,90.393,17.927,90.761,17.979z"/>
		</g>
		<g>
			<path fill="#091F40" d="M36.163,33.604c-0.298,0.185-0.595,0.372-0.888,0.559c-0.295,0.189-0.588,0.38-0.878,0.574
				c-0.292,0.193-0.58,0.389-0.868,0.587c-0.287,0.197-0.571,0.397-0.854,0.6l-4.544-3.229c0.274-0.2,0.553-0.398,0.833-0.594
				c0.281-0.196,0.564-0.393,0.85-0.586c0.286-0.194,0.574-0.387,0.865-0.576c0.291-0.191,0.584-0.38,0.88-0.569L36.163,33.604z"/>
		</g>
		<g>
			<path fill="#091F40" d="M112.201,25.105c-0.298-0.181-0.596-0.359-0.896-0.531c-0.297-0.171-0.599-0.34-0.899-0.505
				c-0.302-0.164-0.604-0.323-0.908-0.479c-0.304-0.157-0.609-0.308-0.914-0.457c-1.094-0.531-2.201-1.014-3.308-1.451
				c-1.104-0.437-2.207-0.83-3.3-1.182c-1.09-0.352-2.168-0.664-3.225-0.941c-1.058-0.276-2.091-0.519-3.093-0.73
				c1.002,0.211,2.035,0.454,3.093,0.73c1.057,0.277,2.135,0.589,3.225,0.941c1.093,0.352,2.196,0.745,3.3,1.182
				c1.106,0.437,2.214,0.92,3.308,1.451c0.305,0.148,0.61,0.299,0.914,0.457c0.304,0.156,0.606,0.315,0.908,0.479
				c0.301,0.165,0.603,0.334,0.899,0.505C111.605,24.747,111.903,24.924,112.201,25.105z"/>
		</g>
		<g>
			<path fill="#091F40" d="M112.201,25.105l-4.218,3.885c-0.307-0.168-0.613-0.332-0.926-0.494c-0.31-0.161-0.623-0.318-0.938-0.473
				c-0.317-0.154-0.634-0.305-0.955-0.452c-0.319-0.146-0.642-0.29-0.968-0.43l4.387-4.008c0.305,0.148,0.61,0.299,0.914,0.457
				c0.304,0.156,0.606,0.315,0.908,0.479c0.301,0.165,0.603,0.333,0.899,0.505C111.605,24.747,111.903,24.924,112.201,25.105z"/>
		</g>
		<g>
			<path fill="#D41B5A" d="M20.48,48.881c0.159-0.286,0.324-0.571,0.494-0.851c0.169-0.282,0.344-0.562,0.523-0.838
				c0.18-0.278,0.365-0.553,0.554-0.825c0.189-0.273,0.381-0.543,0.579-0.813c-0.198,0.27-0.39,0.539-0.579,0.813
				c-0.189,0.272-0.374,0.547-0.554,0.825c-0.179,0.277-0.354,0.556-0.523,0.838C20.804,48.311,20.639,48.595,20.48,48.881z"/>
		</g>
		<g>
			<path fill="#091F40" d="M22.629,45.554c-0.198,0.27-0.39,0.539-0.579,0.813c-0.189,0.272-0.374,0.547-0.554,0.825
				c-0.179,0.277-0.354,0.556-0.523,0.838c-0.169,0.28-0.334,0.565-0.494,0.851c0.159-0.286,0.324-0.571,0.494-0.851
				c0.169-0.282,0.344-0.562,0.523-0.838c0.18-0.278,0.365-0.553,0.554-0.825C22.239,46.093,22.432,45.824,22.629,45.554z"/>
		</g>
		<g>
			<path fill="#D41B5A" d="M65.345,41.717c-2.189,0.545-4.199,1.186-6.024,1.926c-1.83,0.738-3.479,1.574-4.944,2.503
				c-1.47,0.932-2.756,1.96-3.858,3.084c-1.106,1.128-2.026,2.352-2.759,3.673c0.732-1.321,1.653-2.545,2.759-3.673
				c1.102-1.124,2.389-2.152,3.858-3.084c1.465-0.929,3.114-1.765,4.944-2.503C61.146,42.903,63.156,42.262,65.345,41.717z"/>
		</g>
		<g>
			<path fill="#091F40" d="M124.628,38.753l-4.283,1.874c-0.166-0.283-0.337-0.562-0.511-0.834
				c-0.175-0.276-0.354-0.545-0.535-0.812c-0.184-0.266-0.368-0.529-0.559-0.787c-0.19-0.258-0.384-0.514-0.58-0.764l4.667-2.029
				c0.137,0.221,0.271,0.444,0.403,0.671c0.134,0.226,0.263,0.457,0.392,0.688c0.126,0.232,0.253,0.469,0.375,0.706
				c0.122,0.238,0.242,0.48,0.359,0.725L124.628,38.753z"/>
		</g>
		<g>
			<path fill="#091F40" d="M17.45,57.796c-0.042,0.312-0.077,0.627-0.106,0.942c-0.029,0.317-0.051,0.636-0.067,0.955
				c-0.015,0.32-0.026,0.643-0.028,0.967c-0.002,0.325,0.001,0.651,0.013,0.978l-5.489-0.338c-0.025-0.296-0.044-0.591-0.06-0.883
				c-0.014-0.291-0.022-0.583-0.026-0.87c-0.004-0.286-0.003-0.573,0.003-0.857c0.007-0.284,0.018-0.565,0.034-0.846l0.071-0.384
				L17.45,57.796z"/>
		</g>
		<g>
			<path fill="#D41B5A" d="M47.76,52.904c-0.535,0.962-0.917,1.891-1.188,2.748c-0.272,0.859-0.434,1.645-0.527,2.319
				c-0.094,0.677-0.119,1.238-0.119,1.646c-0.001,0.408,0.024,0.663,0.03,0.723c-0.005-0.06-0.031-0.315-0.03-0.723
				c0-0.408,0.025-0.969,0.119-1.646c0.093-0.674,0.254-1.46,0.527-2.319C46.843,54.794,47.225,53.866,47.76,52.904z"/>
		</g>
		<g>
			<polygon fill="#091F40" points="131.397,52.858 126.953,54.397 125.22,50.708 129.633,49.185 			"/>
		</g>
		<g>
			<polygon fill="#091F40" points="20.347,76.001 15.357,77.166 14.402,73.278 19.355,72.125 			"/>
		</g>
		<g>
			<polygon fill="#091F40" points="24.075,90.59 18.989,91.938 17.981,87.835 23.03,86.5 			"/>
		</g>
		<g>
			<path fill="#091F40" d="M142.626,76.616c0.117,0.324,0.229,0.645,0.334,0.965c0.104,0.317,0.204,0.638,0.297,0.955
				s0.18,0.635,0.262,0.949c0.083,0.315,0.158,0.629,0.229,0.943l-4.563,0.128c-0.062-0.152-0.125-0.307-0.189-0.46
				c-0.063-0.153-0.13-0.306-0.195-0.46c-0.065-0.153-0.136-0.309-0.204-0.461c-0.07-0.155-0.141-0.308-0.215-0.462l-0.911-1.944
				L142.626,76.616z"/>
		</g>
		<g>
			<path fill="#091F40" d="M23.035,107.221c-0.126-0.324-0.249-0.652-0.366-0.985c-0.118-0.333-0.23-0.67-0.339-1.011
				c-0.107-0.341-0.21-0.684-0.308-1.032c-0.098-0.35-0.191-0.7-0.279-1.058c0.088,0.357,0.181,0.708,0.279,1.058
				c0.097,0.349,0.2,0.691,0.308,1.032c0.109,0.341,0.221,0.678,0.339,1.011C22.786,106.568,22.909,106.896,23.035,107.221z"/>
		</g>
		<g>
			<path fill="#091F40" d="M143.69,92.752c0.223-0.953,0.4-1.926,0.522-2.92c0.122-0.992,0.194-2.004,0.207-3.034
				c0.011-1.028-0.034-2.073-0.146-3.139c-0.109-1.061-0.283-2.138-0.527-3.23c0.244,1.093,0.418,2.17,0.527,3.23
				c0.111,1.065,0.156,2.11,0.146,3.139c-0.013,1.03-0.085,2.042-0.207,3.034C144.091,90.826,143.913,91.799,143.69,92.752z"/>
		</g>
		<g>
			<path fill="#091F40" d="M141.291,92.106l2.399,0.646c-0.076,0.32-0.156,0.64-0.24,0.955c-0.086,0.316-0.176,0.63-0.27,0.939
				c-0.096,0.313-0.194,0.621-0.299,0.926c-0.105,0.306-0.213,0.612-0.327,0.913l-1.7-0.463c0.06-0.32,0.115-0.644,0.163-0.968
				c0.047-0.323,0.091-0.649,0.128-0.975c0.036-0.327,0.066-0.655,0.09-0.983C141.261,92.77,141.278,92.439,141.291,92.106z"/>
		</g>
		<g>
			<path fill="#091F40" d="M34.705,118.042l-2.135,2.32c-0.299-0.254-0.595-0.512-0.887-0.774s-0.58-0.532-0.864-0.808
				c-0.285-0.271-0.565-0.554-0.841-0.837c-0.275-0.285-0.547-0.574-0.815-0.868l2.643-2.851c0.218,0.337,0.442,0.668,0.672,0.995
				c0.229,0.327,0.466,0.649,0.707,0.967c0.242,0.319,0.489,0.632,0.743,0.941C34.182,117.436,34.44,117.742,34.705,118.042z"/>
		</g>
		<g>
			<path fill="#D41B5A" d="M41.879,124.265c-0.67-0.449-1.324-0.916-1.96-1.401c-0.635-0.485-1.254-0.983-1.854-1.504
				c-0.599-0.518-1.179-1.055-1.74-1.605c-0.56-0.554-1.1-1.124-1.62-1.712c0.52,0.588,1.06,1.158,1.62,1.712
				c0.561,0.551,1.141,1.088,1.74,1.605c0.601,0.521,1.22,1.019,1.854,1.504C40.555,123.349,41.209,123.815,41.879,124.265z"/>
		</g>
		<g>
			<path fill="#091F40" d="M41.879,124.265c0.328,0.221,0.66,0.437,0.996,0.649c0.336,0.213,0.676,0.421,1.019,0.624
				c0.343,0.204,0.69,0.406,1.041,0.602c0.351,0.197,0.705,0.389,1.062,0.577l-0.661,1.168c-0.364-0.147-0.73-0.299-1.096-0.456
				s-0.731-0.317-1.098-0.486c-0.365-0.165-0.731-0.337-1.096-0.514c-0.366-0.177-0.731-0.356-1.095-0.543L41.879,124.265z"/>
		</g>
		<g>
			<path fill="#091F40" d="M97.799,132.043c-3.841,1.043-7.903,1.811-12.071,2.305c-4.167,0.496-8.429,0.713-12.667,0.658
				c-4.229-0.055-8.425-0.379-12.474-0.974c-4.032-0.591-7.91-1.449-11.518-2.569c-0.39-0.12-0.783-0.246-1.179-0.377
				c-0.396-0.13-0.794-0.265-1.195-0.405c-0.4-0.14-0.804-0.286-1.208-0.438c-0.405-0.151-0.812-0.307-1.219-0.469
				c-0.059-0.023-0.117-0.047-0.174-0.07c-0.059-0.023-0.117-0.046-0.176-0.07c-0.057-0.021-0.116-0.046-0.173-0.071
				c-0.059-0.022-0.116-0.047-0.175-0.07c-0.165-0.067-0.332-0.137-0.498-0.207c-0.167-0.071-0.333-0.141-0.499-0.213
				c-0.166-0.071-0.332-0.146-0.499-0.219c-0.167-0.075-0.332-0.148-0.499-0.225c-0.144-0.065-0.288-0.131-0.432-0.198
				c-0.145-0.068-0.289-0.135-0.432-0.203c-0.144-0.07-0.288-0.14-0.432-0.209c-0.144-0.068-0.288-0.142-0.433-0.213
				c-2.294-1.14-4.571-2.476-6.742-4.034c-2.158-1.549-4.208-3.319-6.066-5.338c-1.844-2.002-3.494-4.248-4.868-6.765
				c-1.36-2.493-2.448-5.249-3.181-8.289L9.79,65.198c-0.844-3.504-0.945-6.79-0.509-9.847c0.43-3.023,1.386-5.829,2.67-8.401
				c1.272-2.548,2.87-4.873,4.603-6.957c1.721-2.071,3.577-3.907,5.383-5.491c0.559-0.493,1.137-0.981,1.73-1.461
				c0.593-0.48,1.204-0.955,1.829-1.421c0.625-0.467,1.264-0.928,1.918-1.382c0.652-0.453,1.318-0.899,1.999-1.338
				c2.003-1.29,4.113-2.514,6.299-3.656c2.179-1.14,4.434-2.198,6.733-3.161c2.294-0.96,4.634-1.827,6.988-2.584
				c2.352-0.757,4.719-1.404,7.072-1.929c3.124-0.785,6.412-1.395,9.776-1.828c3.366-0.432,6.813-0.688,10.253-0.763
				c3.447-0.075,6.89,0.03,10.241,0.318c3.36,0.29,6.633,0.762,9.727,1.426c2.523,0.542,5.249,1.269,8.014,2.25
				c2.781,0.986,5.605,2.229,8.308,3.798c2.722,1.58,5.326,3.496,7.642,5.817c2.341,2.346,4.392,5.113,5.978,8.381l17.268,35.588
				c1.047,2.156,1.82,4.267,2.354,6.326c0.539,2.073,0.838,4.093,0.93,6.053c0.095,1.972-0.018,3.88-0.298,5.722
				c-0.283,1.852-0.738,3.633-1.322,5.336c-0.032,0.097-0.065,0.191-0.1,0.288c-0.035,0.096-0.068,0.19-0.104,0.286
				c-0.036,0.097-0.07,0.191-0.107,0.286c-0.033,0.095-0.069,0.189-0.106,0.284c-0.449,1.17-0.959,2.303-1.517,3.392
				c-0.556,1.092-1.16,2.145-1.798,3.151c-0.637,1.011-1.306,1.977-1.994,2.896c-0.69,0.921-1.399,1.796-2.111,2.621
				c-2.212,2.56-4.818,5.036-7.728,7.362c-2.926,2.341-6.155,4.534-9.596,6.52c-3.453,1.994-7.111,3.776-10.878,5.289
				C105.557,129.886,101.679,131.129,97.799,132.043z M61.146,132.062c2.933,0.433,5.949,0.721,8.997,0.859
				c3.055,0.14,6.142,0.132,9.211-0.026c3.07-0.159,6.12-0.465,9.099-0.922c2.98-0.459,5.884-1.066,8.662-1.821
				c3.695-0.866,7.393-2.043,10.993-3.479c3.593-1.433,7.086-3.12,10.388-5.009c3.289-1.88,6.382-3.956,9.19-6.177
				c2.793-2.208,5.302-4.554,7.439-6.988c0.084-0.095,0.168-0.192,0.251-0.287c0.085-0.097,0.168-0.195,0.252-0.292
				c0.083-0.099,0.165-0.196,0.25-0.297c0.082-0.098,0.164-0.2,0.247-0.3c0.629-0.761,1.249-1.561,1.849-2.398
				c0.6-0.835,1.179-1.706,1.729-2.613c0.549-0.905,1.068-1.846,1.548-2.818c0.479-0.971,0.918-1.973,1.306-3.008
				c0.113-0.301,0.223-0.606,0.326-0.913c0.104-0.305,0.203-0.613,0.299-0.926c0.096-0.31,0.184-0.623,0.27-0.939
				c0.084-0.315,0.167-0.635,0.24-0.955c0.223-0.953,0.4-1.926,0.522-2.92c0.122-0.992,0.194-2.004,0.207-3.034
				c0.011-1.028-0.034-2.073-0.146-3.139c-0.109-1.061-0.283-2.138-0.527-3.23c-0.07-0.314-0.146-0.628-0.229-0.943
				c-0.082-0.314-0.169-0.632-0.262-0.949s-0.192-0.638-0.297-0.955c-0.105-0.32-0.217-0.641-0.334-0.962
				c-0.093-0.254-0.188-0.505-0.289-0.757c-0.099-0.253-0.202-0.506-0.308-0.759c-0.109-0.254-0.22-0.509-0.335-0.763
				c-0.114-0.254-0.231-0.511-0.356-0.766l-3.234-6.74l-1.834-3.826l-4.872-10.15l-1.765-3.674l-5.005-10.432l-0.271-0.562
				c-0.117-0.244-0.237-0.487-0.359-0.725c-0.122-0.237-0.247-0.474-0.375-0.706c-0.128-0.233-0.258-0.463-0.392-0.688
				c-0.133-0.227-0.267-0.45-0.403-0.671c-0.698-1.12-1.458-2.17-2.269-3.153c-0.81-0.978-1.671-1.891-2.569-2.743
				c-0.897-0.849-1.837-1.638-2.807-2.371c-0.968-0.729-1.964-1.404-2.981-2.028c-0.298-0.181-0.596-0.359-0.896-0.531
				c-0.297-0.171-0.599-0.34-0.899-0.505c-0.302-0.164-0.604-0.323-0.908-0.479c-0.304-0.157-0.609-0.308-0.914-0.457
				c-1.094-0.531-2.201-1.014-3.308-1.451c-1.104-0.437-2.207-0.83-3.3-1.182c-1.09-0.352-2.168-0.664-3.225-0.941
				c-1.058-0.276-2.091-0.519-3.093-0.73c-0.395-0.083-0.795-0.165-1.2-0.242c-0.402-0.077-0.809-0.152-1.217-0.222
				c-0.409-0.071-0.82-0.14-1.232-0.203c-0.414-0.066-0.829-0.127-1.248-0.185c-0.368-0.051-0.74-0.101-1.114-0.147
				c-0.372-0.046-0.746-0.09-1.124-0.133c-0.373-0.04-0.75-0.08-1.129-0.116c-0.38-0.037-0.759-0.071-1.141-0.103
				c-1.396-0.115-2.809-0.199-4.23-0.249c-1.421-0.051-2.852-0.068-4.285-0.053c-1.433,0.015-2.867,0.062-4.298,0.14
				c-1.429,0.081-2.854,0.192-4.27,0.336c-0.364,0.036-0.729,0.076-1.092,0.117c-0.363,0.041-0.725,0.084-1.086,0.13
				c-0.361,0.044-0.721,0.092-1.082,0.142c-0.358,0.05-0.717,0.101-1.074,0.156c-0.648,0.097-1.293,0.202-1.933,0.315
				c-0.64,0.11-1.276,0.229-1.907,0.355c-0.63,0.125-1.256,0.259-1.877,0.398c-0.62,0.141-1.234,0.287-1.842,0.44
				c-0.611,0.137-1.223,0.28-1.835,0.434c-0.613,0.154-1.226,0.315-1.838,0.484c-0.613,0.169-1.226,0.346-1.839,0.532
				c-0.612,0.186-1.223,0.378-1.834,0.579c-0.336,0.111-0.673,0.224-1.01,0.339s-0.672,0.233-1.007,0.352
				c-0.335,0.121-0.67,0.244-1.004,0.367c-0.334,0.124-0.668,0.25-1.001,0.38c-1.266,0.488-2.52,1.008-3.758,1.555
				c-1.24,0.549-2.464,1.126-3.667,1.729c-1.204,0.602-2.386,1.232-3.541,1.884c-1.157,0.653-2.287,1.329-3.383,2.026
				c-0.296,0.188-0.589,0.378-0.88,0.569c-0.291,0.189-0.579,0.382-0.865,0.576c-0.285,0.193-0.568,0.39-0.85,0.586
				c-0.28,0.196-0.559,0.395-0.833,0.594c-0.359,0.259-0.714,0.522-1.062,0.787c-0.349,0.264-0.694,0.531-1.033,0.799
				c-0.34,0.27-0.673,0.541-1.002,0.813c-0.328,0.273-0.651,0.548-0.968,0.825c-0.596,0.521-1.199,1.071-1.798,1.647
				c-0.601,0.578-1.202,1.183-1.792,1.817c-0.591,0.634-1.175,1.295-1.742,1.983c-0.569,0.689-1.121,1.408-1.649,2.15
				c-0.188,0.262-0.373,0.53-0.555,0.8c-0.181,0.27-0.359,0.544-0.534,0.821c-0.175,0.278-0.346,0.559-0.513,0.841
				c-0.167,0.284-0.332,0.573-0.49,0.864c-0.444,0.813-0.856,1.65-1.226,2.513c-0.372,0.866-0.703,1.755-0.985,2.67
				c-0.283,0.92-0.519,1.862-0.697,2.831c-0.178,0.972-0.302,1.968-0.36,2.988c-0.016,0.281-0.027,0.562-0.034,0.846
				c-0.006,0.284-0.007,0.571-0.003,0.857c0.004,0.289,0.012,0.579,0.026,0.87c0.016,0.294,0.035,0.586,0.06,0.883
				c0.028,0.322,0.062,0.648,0.104,0.976c0.042,0.325,0.088,0.657,0.143,0.989c0.056,0.332,0.118,0.666,0.187,1.003
				c0.069,0.337,0.146,0.677,0.23,1.018l1.966,7.994l0.956,3.888l2.624,10.669l1.008,4.103l2.727,11.088
				c0.094,0.383,0.193,0.756,0.294,1.12c0.101,0.364,0.207,0.719,0.317,1.065c0.11,0.348,0.223,0.688,0.34,1.022
				c0.119,0.335,0.241,0.664,0.368,0.987c0.371,0.951,0.781,1.866,1.227,2.749c0.446,0.886,0.929,1.736,1.444,2.556
				c0.516,0.82,1.063,1.609,1.641,2.367c0.578,0.758,1.186,1.484,1.816,2.183c0.268,0.294,0.54,0.583,0.815,0.868
				c0.276,0.285,0.556,0.565,0.841,0.839c0.284,0.273,0.572,0.543,0.864,0.806s0.587,0.521,0.887,0.774
				c0.651,0.552,1.318,1.079,1.997,1.583c0.68,0.506,1.373,0.987,2.075,1.445c0.703,0.461,1.416,0.897,2.134,1.312
				c0.719,0.416,1.445,0.81,2.174,1.184c0.364,0.187,0.729,0.366,1.095,0.543c0.365,0.177,0.731,0.349,1.096,0.514
				c0.367,0.169,0.733,0.329,1.098,0.486c0.366,0.157,0.731,0.309,1.096,0.456c0.451,0.184,0.901,0.36,1.35,0.529
				c0.448,0.168,0.894,0.33,1.338,0.485c0.443,0.155,0.884,0.304,1.322,0.446c0.437,0.141,0.871,0.279,1.3,0.409
				c0.825,0.249,1.664,0.481,2.514,0.703c0.853,0.219,1.719,0.426,2.595,0.619c0.878,0.192,1.766,0.371,2.665,0.534
				C59.319,131.776,60.229,131.925,61.146,132.062"/>
		</g>
		<g>
			<path fill="#091F40" d="M22.629,45.554c-0.198,0.27-0.39,0.539-0.579,0.813c-0.189,0.272-0.374,0.547-0.554,0.825
				c-0.179,0.277-0.354,0.556-0.523,0.838c-0.169,0.28-0.334,0.565-0.494,0.851l-5.488-2.041c0.159-0.292,0.324-0.58,0.49-0.864
				c0.167-0.284,0.338-0.563,0.513-0.841c0.174-0.277,0.353-0.551,0.534-0.821c0.182-0.271,0.366-0.538,0.554-0.8L22.629,45.554z"/>
		</g>
		<g>
			<polygon fill="#091F40" points="138.104,66.834 133.223,67.735 131.419,63.897 136.27,63.009 			"/>
		</g>
		<g>
			<path fill="#091F40" d="M27.614,104.435l-4.579,2.786c-0.126-0.324-0.249-0.652-0.366-0.985c-0.118-0.333-0.23-0.67-0.339-1.011
				c-0.107-0.341-0.21-0.684-0.308-1.032c-0.098-0.35-0.191-0.7-0.279-1.058l-0.027-0.109l4.797-2.9L27.614,104.435z"/>
		</g>
		<g>
			<path fill="#091F40" d="M145.374,95.993l-0.238,1.193l-0.179-0.049c0.037-0.095,0.073-0.189,0.106-0.284
				c0.037-0.095,0.071-0.189,0.107-0.286c0.035-0.096,0.068-0.19,0.104-0.286C145.308,96.185,145.342,96.09,145.374,95.993z"/>
		</g>
		<g>
			<path fill="#D41B5A" d="M34.705,118.042c-0.265-0.3-0.523-0.606-0.777-0.914c-0.253-0.31-0.501-0.622-0.743-0.941
				c-0.241-0.317-0.478-0.64-0.707-0.967c-0.23-0.327-0.454-0.658-0.672-0.995c0.218,0.337,0.442,0.668,0.672,0.995
				c0.229,0.327,0.466,0.649,0.707,0.967c0.242,0.319,0.489,0.632,0.743,0.941C34.182,117.436,34.44,117.742,34.705,118.042z"/>
		</g>
		<g>
			<path fill="#091F40" d="M39.847,127.806c-2.294-1.14-4.571-2.476-6.742-4.034c-2.158-1.549-4.208-3.319-6.066-5.338
				c-1.844-2.002-3.494-4.248-4.868-6.765c-1.36-2.493-2.448-5.249-3.181-8.289c0.732,3.04,1.821,5.796,3.181,8.289
				c1.374,2.517,3.024,4.763,4.868,6.765c1.857,2.019,3.908,3.789,6.066,5.338C35.276,125.33,37.553,126.666,39.847,127.806z"/>
		</g>
		<g>
			<path fill="#091F40" d="M39.813,127.866l0.034-0.061c0.145,0.071,0.289,0.145,0.433,0.213c0.144,0.071,0.288,0.139,0.432,0.209
				c0.143,0.068,0.288,0.135,0.432,0.203c0.144,0.067,0.288,0.133,0.432,0.198L39.813,127.866z"/>
		</g>
		<g>
			<path fill="#091F40" d="M44.268,129.774c-0.059-0.023-0.117-0.047-0.174-0.07c-0.059-0.023-0.117-0.046-0.176-0.07
				c-0.057-0.021-0.116-0.046-0.173-0.071c-0.059-0.022-0.116-0.047-0.175-0.07c0.059,0.023,0.116,0.048,0.175,0.07
				c0.057,0.025,0.116,0.05,0.173,0.071c0.059,0.024,0.117,0.047,0.176,0.07C44.151,129.728,44.209,129.751,44.268,129.774z"/>
		</g>
		<g>
			<path fill="#091F40" d="M44.268,129.774c-0.059-0.023-0.117-0.047-0.174-0.07c-0.059-0.023-0.117-0.046-0.176-0.07
				c-0.057-0.021-0.116-0.046-0.173-0.071c-0.059-0.022-0.116-0.047-0.175-0.07l0.688,0.298L44.268,129.774z"/>
		</g>
	</g>
</g>
</svg>
