<?xml version="1.0" encoding="utf-8"?>
<!-- Generator: Adobe Illustrator 16.0.3, SVG Export Plug-In . SVG Version: 6.00 Build 0)  -->
<!DOCTYPE svg PUBLIC "-//W3C//DTD SVG 1.1//EN" "http://www.w3.org/Graphics/SVG/1.1/DTD/svg11.dtd">
<svg version="1.1" id="Layer_1" xmlns="http://www.w3.org/2000/svg" xmlns:xlink="http://www.w3.org/1999/xlink" x="0px" y="0px"
	 width="164px" height="125px" viewBox="0 0 164 125" enable-background="new 0 0 164 125" xml:space="preserve">
<g>
	<g>
		<polygon fill="#091F40" points="140.717,101.274 12.16,101.274 28.284,5.682 156.84,5.682 		"/>
		<polygon fill="#FFFFFF" points="31.354,93.724 18.888,93.724 20.991,81.257 33.456,81.257 		"/>
		<polygon fill="#FFFFFF" points="48.884,93.724 36.418,93.724 38.521,81.257 50.986,81.257 		"/>
		<polygon fill="#FFFFFF" points="66.414,93.724 53.949,93.724 56.051,81.257 68.517,81.257 		"/>
		<polygon fill="#FFFFFF" points="83.944,93.724 71.479,93.724 73.582,81.257 86.047,81.257 		"/>
		<polygon fill="#FFFFFF" points="101.475,93.724 89.009,93.724 91.111,81.257 103.578,81.257 		"/>
		<polygon fill="#FFFFFF" points="119.006,93.724 106.54,93.724 108.642,81.257 121.108,81.257 		"/>
		<polygon fill="#FFFFFF" points="136.536,93.724 124.068,93.724 126.172,81.257 138.64,81.257 		"/>
		<polygon fill="#FFFFFF" points="34.311,76.192 21.844,76.192 23.948,63.728 36.415,63.728 		"/>
		<polygon fill="#FFFFFF" points="51.841,76.192 39.375,76.192 41.479,63.728 53.943,63.728 		"/>
		<polygon fill="#FFFFFF" points="69.373,76.192 56.905,76.192 59.007,63.728 71.474,63.728 		"/>
		<polygon fill="#FFFFFF" points="86.901,76.192 74.437,76.192 76.537,63.728 89.005,63.728 		"/>
		<polygon fill="#FFFFFF" points="104.432,76.192 91.966,76.192 94.069,63.728 106.535,63.728 		"/>
		<polygon fill="#FFFFFF" points="121.963,76.192 109.495,76.192 111.6,63.728 124.063,63.728 		"/>
		<polygon fill="#FFFFFF" points="139.494,76.192 127.027,76.192 129.129,63.728 141.595,63.728 		"/>
		<polygon fill="#FFFFFF" points="37.269,58.663 24.802,58.663 26.903,46.196 39.37,46.196 		"/>
		<polygon fill="#FFFFFF" points="54.797,58.663 42.333,58.663 44.434,46.196 56.901,46.196 		"/>
		<polygon fill="#FFFFFF" points="72.328,58.663 59.861,58.663 61.965,46.196 74.431,46.196 		"/>
		<polygon fill="#FFFFFF" points="89.859,58.663 77.392,58.663 79.495,46.196 91.959,46.196 		"/>
		<polygon fill="#FFFFFF" points="107.39,58.663 94.924,58.663 97.023,46.196 109.491,46.196 		"/>
		<polygon fill="#FFFFFF" points="124.918,58.663 112.454,58.663 114.556,46.196 127.022,46.196 		"/>
		<polygon fill="#FFFFFF" points="142.449,58.663 129.983,58.663 132.086,46.196 144.555,46.196 		"/>
		<polygon fill="#FFFFFF" points="40.225,41.131 27.758,41.131 29.861,28.667 42.327,28.667 		"/>
		<polygon fill="#FFFFFF" points="57.756,41.131 45.289,41.131 47.392,28.667 59.856,28.667 		"/>
		<polygon fill="#FFFFFF" points="75.285,41.131 62.819,41.131 64.922,28.667 77.388,28.667 		"/>
		<polygon fill="#FFFFFF" points="92.813,41.131 80.35,41.131 82.452,28.667 94.918,28.667 		"/>
		<polygon fill="#FFFFFF" points="110.346,41.131 97.879,41.131 99.983,28.667 112.45,28.667 		"/>
		<polygon fill="#FFFFFF" points="127.876,41.131 115.41,41.131 117.513,28.667 129.979,28.667 		"/>
		<polygon fill="#FFFFFF" points="145.407,41.131 132.941,41.131 135.044,28.667 147.509,28.667 		"/>
	</g>
	<circle fill="#091F40" cx="66.038" cy="50.657" r="25.911"/>
	<polygon fill="#FFFFFF" points="84.89,73.771 48.808,73.771 41.194,65.409 47.392,28.667 83.853,28.667 91.223,36.213 	"/>
	<g>
		<g>
			<circle fill="#D31C56" cx="66.14" cy="51.219" r="14.083"/>
			<path fill="#FFFFFF" d="M66.142,60.181c4.942,0,8.963-4.02,8.963-8.961c0-4.943-4.021-8.963-8.963-8.963
				s-8.962,4.021-8.962,8.963C57.18,56.161,61.199,60.181,66.142,60.181z"/>
			<path fill="#091F40" d="M61.02,51.22c0-2.824,2.296-5.123,5.122-5.123c2.824,0,5.121,2.296,5.121,5.123
				c0,2.824-2.297,5.121-5.121,5.121C63.315,56.341,61.02,54.044,61.02,51.22z M66.142,53.524c1.27,0,2.304-1.035,2.304-2.305
				c0-1.271-1.034-2.305-2.304-2.305c-1.271,0-2.304,1.033-2.304,2.305C63.836,52.489,64.869,53.524,66.142,53.524z"/>
		</g>
	</g>
	<g>
		<path fill="#D31C56" d="M121.136,116.095c-0.827,0-1.598-0.33-2.169-0.928l-39.105-40.91c-1.144-1.195-1.1-3.098,0.097-4.242
			l4.338-4.145c0.561-0.537,1.296-0.832,2.071-0.832c0.827,0,1.598,0.33,2.169,0.928l39.105,40.91
			c0.554,0.578,0.85,1.338,0.831,2.141c-0.019,0.801-0.347,1.547-0.927,2.1l-4.338,4.146
			C122.647,115.798,121.911,116.095,121.136,116.095z"/>
		
			<rect x="58.155" y="61.561" transform="matrix(-0.7229 0.691 -0.691 -0.7229 185.6945 59.3186)" fill="#D31C56" width="45.594" height="10.67"/>
		<polygon fill="#D31C56" points="61.704,23.193 74.17,20.791 104.124,52.128 96.409,59.501 		"/>
		<polygon fill="#D31C56" points="35.382,57.868 38.343,45.524 73.05,81.831 65.335,89.206 		"/>
	</g>
	<g display="none">
		<path display="inline" fill="#D31C56" d="M128.364,106.185c1.527,1.596,1.47,4.129-0.127,5.654l-4.338,4.146
			c-1.596,1.525-4.129,1.469-5.655-0.127l-39.105-40.91c-1.526-1.598-1.469-4.129,0.128-5.656l4.338-4.145
			c1.596-1.527,4.129-1.471,5.654,0.127L128.364,106.185z"/>
		
			<rect x="57.156" y="60.561" transform="matrix(0.7229 -0.691 0.691 0.7229 -23.7904 74.4726)" display="inline" fill="#D31C56" width="47.593" height="12.672"/>
		<polygon display="inline" fill="#D31C56" points="74.517,19.706 105.538,52.159 96.378,60.915 59.714,22.558 		"/>
		<polygon display="inline" fill="#D31C56" points="34.282,58.165 65.304,90.62 74.464,81.864 37.799,43.506 		"/>
	</g>
</g>
</svg>
