<?xml version="1.0" encoding="utf-8"?>
<!-- Generator: Adobe Illustrator 16.0.3, SVG Export Plug-In . SVG Version: 6.00 Build 0)  -->
<!DOCTYPE svg PUBLIC "-//W3C//DTD SVG 1.1//EN" "http://www.w3.org/Graphics/SVG/1.1/DTD/svg11.dtd">
<svg version="1.1" id="Layer_1" xmlns="http://www.w3.org/2000/svg" xmlns:xlink="http://www.w3.org/1999/xlink" x="0px" y="0px"
	 width="110px" height="125px" viewBox="395 0 110 125" enable-background="new 395 0 110 125" xml:space="preserve">
<path fill="#041E41" d="M488.511,41.712c3.137-18.597-9.443-33.725-28.04-33.725s-36.275,15.127-39.413,33.725h-6.084
	l-10.047,59.563h80.1l10.047-59.563H488.511z M458.888,59.145c-0.491,2.898-2.72,5.371-5.437,6.354
	c-3.161,27.603-3.529,25.089-6.672,25.089c-3.144,0-4.357,2.514,1.791-25.089c-2.388-0.981-3.784-3.456-3.294-6.354
	c0.634-3.757,4.194-6.804,7.953-6.804S459.521,55.388,458.888,59.145z M476.272,41.712h-42.976
	c2.001-11.866,13.245-21.486,25.112-21.486C470.272,20.226,478.271,29.847,476.272,41.712z"/>
</svg>
