<?xml version="1.0" encoding="utf-8"?>
<!-- Generator: Adobe Illustrator 16.0.3, SVG Export Plug-In . SVG Version: 6.00 Build 0)  -->
<!DOCTYPE svg PUBLIC "-//W3C//DTD SVG 1.1//EN" "http://www.w3.org/Graphics/SVG/1.1/DTD/svg11.dtd">
<svg version="1.1" id="Layer_1" xmlns="http://www.w3.org/2000/svg" xmlns:xlink="http://www.w3.org/1999/xlink" x="0px" y="0px"
	 width="110px" height="125px" viewBox="395 0 110 125" enable-background="new 395 0 110 125" xml:space="preserve">
<path fill="#041E41" d="M495.072,41.712l-10.047,59.561h-80.1l10.047-59.561h5.603l0.965-5.713
	c3.135-18.597,20.815-33.726,39.411-33.726c18.597,0,31.178,15.129,28.041,33.726h-12.238c2.002-11.866-5.999-21.488-17.865-21.488
	c-11.868,0-23.11,9.622-25.111,21.488l-0.964,5.713H495.072z M458.887,59.146c0.635-3.758-1.9-6.805-5.658-6.805
	s-7.319,3.048-7.953,6.805c-0.489,2.897,0.907,5.372,3.295,6.354c-6.148,27.603-4.934,25.089-1.792,25.089
	c3.144,0,3.512,2.514,6.672-25.089C456.168,64.516,458.398,62.043,458.887,59.146z"/>
</svg>
