<?xml version="1.0" encoding="utf-8"?>
<!-- Generator: Adobe Illustrator 16.0.3, SVG Export Plug-In . SVG Version: 6.00 Build 0)  -->
<!DOCTYPE svg PUBLIC "-//W3C//DTD SVG 1.1//EN" "http://www.w3.org/Graphics/SVG/1.1/DTD/svg11.dtd">
<svg version="1.1" id="Layer_1" xmlns="http://www.w3.org/2000/svg" xmlns:xlink="http://www.w3.org/1999/xlink" x="0px" y="0px"
	 width="164px" height="125px" viewBox="0 0 164 125" enable-background="new 0 0 164 125" xml:space="preserve">
<g>
	<g>
		<polygon fill="#041E41" points="140.717,101.273 12.16,101.273 28.284,5.682 156.84,5.682 		"/>
		<polygon fill="#FFFFFF" points="31.354,93.725 18.889,93.725 20.991,81.257 33.456,81.257 		"/>
		<polygon fill="#FFFFFF" points="48.884,93.725 36.418,93.725 38.521,81.257 50.986,81.257 		"/>
		<polygon fill="#FFFFFF" points="66.414,93.725 53.949,93.725 56.051,81.257 68.517,81.257 		"/>
		<polygon fill="#FFFFFF" points="83.944,93.725 71.479,93.725 73.582,81.257 86.047,81.257 		"/>
		<polygon fill="#FFFFFF" points="101.475,93.725 89.009,93.725 91.111,81.257 103.578,81.257 		"/>
		<polygon fill="#FFFFFF" points="119.006,93.725 106.54,93.725 108.642,81.257 121.108,81.257 		"/>
		<polygon fill="#FFFFFF" points="136.536,93.725 124.068,93.725 126.172,81.257 138.64,81.257 		"/>
		<polygon fill="#FFFFFF" points="34.311,76.191 21.844,76.191 23.948,63.727 36.415,63.727 		"/>
		<polygon fill="#FFFFFF" points="51.841,76.191 39.375,76.191 41.479,63.727 53.943,63.727 		"/>
		<polygon fill="#FFFFFF" points="69.373,76.191 56.905,76.191 59.007,63.727 71.474,63.727 		"/>
		<polygon fill="#FFFFFF" points="86.901,76.191 74.438,76.191 76.537,63.727 89.005,63.727 		"/>
		<polygon fill="#FFFFFF" points="104.432,76.191 91.966,76.191 94.069,63.727 106.535,63.727 		"/>
		<polygon fill="#FFFFFF" points="121.963,76.191 109.495,76.191 111.6,63.727 124.063,63.727 		"/>
		<polygon fill="#FFFFFF" points="139.494,76.191 127.027,76.191 129.129,63.727 141.595,63.727 		"/>
		<polygon fill="#FFFFFF" points="37.269,58.663 24.802,58.663 26.903,46.195 39.37,46.195 		"/>
		<polygon fill="#FFFFFF" points="54.797,58.663 42.333,58.663 44.434,46.195 56.901,46.195 		"/>
		<polygon fill="#FFFFFF" points="72.328,58.663 59.861,58.663 61.965,46.195 74.431,46.195 		"/>
		<polygon fill="#FFFFFF" points="89.859,58.663 77.392,58.663 79.495,46.195 91.959,46.195 		"/>
		<polygon fill="#FFFFFF" points="107.39,58.663 94.924,58.663 97.023,46.195 109.491,46.195 		"/>
		<polygon fill="#FFFFFF" points="124.918,58.663 112.454,58.663 114.556,46.195 127.021,46.195 		"/>
		<polygon fill="#FFFFFF" points="142.449,58.663 129.983,58.663 132.086,46.195 144.555,46.195 		"/>
		<polygon fill="#FFFFFF" points="40.225,41.131 27.758,41.131 29.861,28.666 42.327,28.666 		"/>
		<polygon fill="#FFFFFF" points="57.756,41.131 45.289,41.131 47.392,28.666 59.856,28.666 		"/>
		<polygon fill="#FFFFFF" points="75.285,41.131 62.819,41.131 64.922,28.666 77.388,28.666 		"/>
		<polygon fill="#FFFFFF" points="92.813,41.131 80.35,41.131 82.452,28.666 94.918,28.666 		"/>
		<polygon fill="#FFFFFF" points="110.346,41.131 97.879,41.131 99.983,28.666 112.45,28.666 		"/>
		<polygon fill="#FFFFFF" points="127.876,41.131 115.41,41.131 117.513,28.666 129.979,28.666 		"/>
		<polygon fill="#FFFFFF" points="145.407,41.131 132.941,41.131 135.044,28.666 147.509,28.666 		"/>
	</g>
	<circle fill="#041E41" cx="102.229" cy="50.655" r="25.911"/>
	<polygon fill="#FFFFFF" points="120.979,73.208 84.897,73.208 77.284,64.846 83.481,28.104 119.942,28.104 127.313,35.65 	"/>
	<path fill="#D50054" d="M82.666,77.461c-41.175,48.538-38.421,43.637-43.111,39.182s-9.443-1.451,36.912-45.067
		c-10.357-12.741-9.899-31.555,1.702-43.771c12.603-13.268,33.647-13.809,46.914-1.208c13.269,12.601,13.807,33.645,1.208,46.914
		C114.686,85.727,95.923,87.15,82.666,77.461z M83.442,32.812c-9.854,10.376-9.435,26.776,0.941,36.629
		c10.375,9.855,26.776,9.437,36.631-0.94c9.855-10.376,9.436-26.776-0.94-36.631C109.699,22.014,93.298,22.437,83.442,32.812z"/>
	<g>
		<g>
			<circle fill="#D50054" cx="102.229" cy="50.656" r="14.083"/>
			<path fill="#FFFFFF" d="M102.23,59.617c4.942,0,8.964-4.02,8.964-8.961c0-4.941-4.021-8.962-8.964-8.962
				c-4.941,0-8.962,4.021-8.962,8.962C93.269,55.597,97.289,59.617,102.23,59.617z"/>
			<path fill="#041E41" d="M97.109,50.656c0-2.824,2.296-5.122,5.122-5.122c2.823,0,5.12,2.296,5.12,5.122
				c0,2.825-2.297,5.122-5.12,5.122C99.405,55.777,97.109,53.48,97.109,50.656z M102.23,52.96c1.271,0,2.305-1.034,2.305-2.305
				s-1.034-2.305-2.305-2.305s-2.304,1.034-2.304,2.305C99.926,51.926,100.959,52.96,102.23,52.96z"/>
		</g>
	</g>
</g>
</svg>
