<?xml version="1.0" encoding="utf-8"?>
<!-- Generator: Adobe Illustrator 16.0.3, SVG Export Plug-In . SVG Version: 6.00 Build 0)  -->
<!DOCTYPE svg PUBLIC "-//W3C//DTD SVG 1.1//EN" "http://www.w3.org/Graphics/SVG/1.1/DTD/svg11.dtd">
<svg version="1.1" locationTabxmlns="http://www.w3.org/2000/svg" xmlns:xlink="http://www.w3.org/1999/xlink" x="0px" y="0px"
	 viewBox="0 0 305 100" enable-background="new 0 0 305 100" xml:space="preserve">
<g>
	<g>
		<g>
			<polygon fill="#041E41" points="107.94,69.3 93.686,76.961 91.107,66.373 100.531,61.308 			"/>
			<polygon fill="#041E41" points="99.165,63.982 94.092,66.708 90.893,60.756 95.966,58.029 98.355,62.477 			"/>
		</g>
		<g>
			<rect x="29.466" y="61.111" fill="#041E41" width="8.889" height="16.666"/>

				<rect x="40.789" y="53.714" transform="matrix(0.8661 0.4999 -0.4999 0.8661 39.2414 -13.7223)" fill="#041E41" width="8.889" height="25.336"/>
			<ellipse fill="#FFFFFF" cx="33.911" cy="77.412" rx="13.476" ry="12.588"/>
			<g>
				<circle fill="#D50054" cx="33.911" cy="77.777" r="12.222"/>
				<path fill="#FFFFFF" d="M33.91,85.556c-4.288,0-7.777-3.489-7.777-7.778S29.622,70,33.91,70c4.289,0,7.777,3.488,7.777,7.777
					S38.199,85.556,33.91,85.556z"/>
				<path fill="#041E41" d="M33.91,82.223c-2.45,0-4.444-1.994-4.444-4.445c0-2.45,1.994-4.443,4.444-4.443s4.444,1.993,4.444,4.443
					C38.354,80.229,36.36,82.223,33.91,82.223z M35.91,77.777c0-1.103-0.897-2-2-2s-2,0.897-2,2c0,1.104,0.897,2,2,2
					S35.91,78.881,35.91,77.777z"/>
			</g>
		</g>
		<g>
			<rect x="74.321" y="61.111" fill="#041E41" width="8.89" height="16.666"/>

				<rect x="62.999" y="53.714" transform="matrix(-0.8661 0.4999 -0.4999 -0.8661 159.0391 90.1594)" fill="#041E41" width="8.889" height="25.335"/>
			<ellipse fill="#FFFFFF" cx="78.766" cy="77.412" rx="13.476" ry="12.588"/>
			<g>
				<circle fill="#D50054" cx="78.766" cy="77.777" r="12.222"/>
				<path fill="#FFFFFF" d="M78.766,85.556c4.289,0,7.778-3.489,7.778-7.778S83.055,70,78.766,70c-4.288,0-7.777,3.488-7.777,7.777
					S74.478,85.556,78.766,85.556z"/>
				<path fill="#041E41" d="M74.321,77.777c0-2.45,1.994-4.443,4.444-4.443c2.451,0,4.445,1.993,4.445,4.443
					c0,2.451-1.994,4.445-4.445,4.445C76.315,82.223,74.321,80.229,74.321,77.777z M78.766,79.777c1.104,0,2-0.896,2-2
					c0-1.103-0.896-2-2-2c-1.103,0-1.999,0.897-1.999,2C76.767,78.881,77.663,79.777,78.766,79.777z"/>
			</g>
		</g>
		<g>
			<path fill="#041E41" d="M97.778,64.53H24.445L33.643,10H63.93c-2.276,13.112,42.53,3.325,40.845,13.112L97.778,64.53z"/>
			<polygon fill="#FFFFFF" points="35.394,60.223 28.282,60.223 29.481,53.111 36.593,53.111 			"/>
			<polygon fill="#FFFFFF" points="45.394,60.223 38.282,60.223 39.481,53.111 46.593,53.111 			"/>
			<polygon fill="#FFFFFF" points="55.394,60.223 48.282,60.223 49.481,53.111 56.593,53.111 			"/>
			<polygon fill="#FFFFFF" points="65.394,60.223 58.282,60.223 59.481,53.111 66.593,53.111 			"/>
			<polygon fill="#FFFFFF" points="75.394,60.223 68.282,60.223 69.481,53.111 76.593,53.111 			"/>
			<polygon fill="#FFFFFF" points="85.394,60.223 78.282,60.223 79.481,53.111 86.593,53.111 			"/>
			<polygon fill="#FFFFFF" points="95.394,60.223 88.282,60.223 89.481,53.111 96.593,53.111 			"/>
			<polygon fill="#FFFFFF" points="37.08,50.222 29.969,50.222 31.169,43.111 38.279,43.111 			"/>
			<polygon fill="#FFFFFF" points="47.08,50.222 39.969,50.222 41.169,43.111 48.279,43.111 			"/>
			<polygon fill="#FFFFFF" points="57.08,50.222 49.969,50.222 51.169,43.111 58.279,43.111 			"/>
			<polygon fill="#FFFFFF" points="67.08,50.222 59.969,50.222 61.169,43.111 68.28,43.111 			"/>
			<polygon fill="#FFFFFF" points="77.08,50.222 69.97,50.222 71.169,43.111 78.279,43.111 			"/>
			<polygon fill="#FFFFFF" points="87.08,50.222 79.969,50.222 81.169,43.111 88.279,43.111 			"/>
			<polygon fill="#FFFFFF" points="97.08,50.222 89.969,50.222 91.169,43.111 98.279,43.111 			"/>
			<polygon fill="#FFFFFF" points="38.768,40.223 31.656,40.223 32.855,33.111 39.967,33.111 			"/>
			<polygon fill="#FFFFFF" points="48.768,40.223 41.656,40.223 42.855,33.111 49.967,33.111 			"/>
			<polygon fill="#FFFFFF" points="58.767,40.223 51.656,40.223 52.855,33.111 59.967,33.111 			"/>
			<polygon fill="#FFFFFF" points="68.768,40.223 61.655,40.223 62.855,33.111 69.967,33.111 			"/>
			<polygon fill="#FFFFFF" points="78.767,40.223 71.656,40.223 72.855,33.111 79.967,33.111 			"/>
			<polygon fill="#FFFFFF" points="88.768,40.223 81.656,40.223 82.855,33.111 89.967,33.111 			"/>
			<polygon fill="#FFFFFF" points="98.767,40.223 91.656,40.223 92.855,33.111 99.967,33.111 			"/>
			<polygon fill="#FFFFFF" points="40.454,30.223 33.343,30.223 34.542,23.112 41.653,23.112 			"/>
			<polygon fill="#FFFFFF" points="50.454,30.223 43.343,30.223 44.542,23.112 51.653,23.112 			"/>
			<polygon fill="#FFFFFF" points="60.454,30.223 53.343,30.223 54.542,23.112 61.653,23.112 			"/>
			<polygon fill="#FFFFFF" points="70.454,30.223 63.343,30.223 64.542,23.112 71.653,23.112 			"/>
			<polygon fill="#FFFFFF" points="80.454,30.223 73.343,30.223 74.542,23.112 81.653,23.112 			"/>
			<polygon fill="#FFFFFF" points="90.454,30.223 83.343,30.223 84.542,23.112 91.653,23.112 			"/>
			<polygon fill="#FFFFFF" points="100.454,30.223 93.343,30.223 94.542,23.112 101.653,23.112 			"/>
		</g>
		<polygon fill="#D50054" points="26.866,30.223 9.755,30.223 10.954,23.112 28.065,23.112 		"/>
		<polygon fill="#D50054" points="21.846,60.223 14.735,60.223 15.935,53.111 23.046,53.111 		"/>
		<polygon fill="#D50054" points="23.533,50.222 13.089,50.222 14.288,43.111 24.732,43.111 		"/>
		<polygon fill="#D50054" points="25.22,40.223 11.441,40.223 12.642,33.111 26.419,33.111 		"/>
	</g>
	<path fill="#041E41" d="M124.476,49.328h-6.165l-2.507,15.256h-9.029l6.814-41.472h23.04c3.799,0,6.349,3.051,5.725,6.849
		l-2.057,12.517c-0.512,3.113-2.995,5.729-6.004,6.601l4.8,15.505h-9.9L124.476,49.328z M121.268,31.331l-1.606,9.776h11.271
		c0.373,0,0.663-0.249,0.725-0.623l1.402-8.53c0.061-0.374-0.147-0.623-0.521-0.623H121.268z"/>
	<path fill="#041E41" d="M178.135,23.112l8.839-1.495l-7.06,42.967h-8.593L178.135,23.112z"/>
	<path fill="#041E41" d="M192.006,23.112l8.839-1.495l-7.06,42.967h-8.593L192.006,23.112z"/>
	<path fill="#041E41" d="M246.611,50.573l-1.176,7.162c-0.624,3.799-4.178,6.85-7.976,6.85H223.2c-3.798,0-6.35-3.051-5.725-6.85
		l4.563-27.773c0.624-3.798,4.175-6.849,7.976-6.849h14.26c3.798,0,6.348,3.051,5.724,6.849l-1.023,6.227l-9.089,1.495l0.942-5.729
		c0.061-0.374-0.146-0.623-0.521-0.623h-8.842c-0.374,0-0.664,0.249-0.727,0.623l-3.907,23.787
		c-0.061,0.374,0.146,0.623,0.521,0.623h8.842c0.373,0,0.664-0.249,0.726-0.623l1.096-6.663L246.611,50.573z"/>
	<path fill="#041E41" d="M250.179,54.061c0.624-3.799,3.43-6.477,7.54-6.477c2.304,0,6.218,0.436,9.479,1.059l0.89-5.417
		c0.062-0.374-0.147-0.623-0.52-0.623h-6.415c-0.374,0-0.665,0.249-0.726,0.623l-0.316,1.93l-7.87-1.37l0.367-2.242
		c0.583-3.549,3.992-6.476,7.541-6.476h11.396c3.549,0,5.995,2.927,5.413,6.476l-3.786,23.041h-8.282l0.236-1.433
		c-2.79,1.059-7.935,2.056-10.303,2.056c-4.108,0-6.035-2.678-5.41-6.477L250.179,54.061z M266.163,54.932
		c0.082-0.498-0.127-0.747-0.489-0.81c-2.201-0.249-5.72-0.436-6.405-0.436c-0.373,0-0.664,0.249-0.724,0.623l-0.625,3.798
		c-0.062,0.374,0.147,0.623,0.521,0.623c0.685,0,5.768-0.996,6.691-1.308c0.394-0.124,0.684-0.374,0.755-0.81L266.163,54.932z"/>
	<path fill="#041E41" d="M286.406,23.112l8.839-1.495l-7.059,42.967h-8.594L286.406,23.112z"/>
	<g>
		<circle fill="#D50054" cx="156.171" cy="49.826" r="14.758"/>
		<path fill="#FFFFFF" d="M156.171,59.217c5.18,0,9.393-4.213,9.393-9.391c0-5.179-4.213-9.392-9.393-9.392
			c-5.178,0-9.392,4.213-9.392,9.392C146.779,55.004,150.993,59.217,156.171,59.217z"/>
		<path fill="#041E41" d="M150.805,49.826c0-2.959,2.407-5.367,5.366-5.367s5.367,2.407,5.367,5.367s-2.408,5.366-5.367,5.366
			S150.805,52.785,150.805,49.826z M156.171,52.241c1.332,0,2.415-1.085,2.415-2.416c0-1.332-1.083-2.415-2.415-2.415
			s-2.414,1.083-2.414,2.415C153.757,51.156,154.839,52.241,156.171,52.241z"/>
	</g>
	<path fill="#041E41" d="M200.019,47.521l1.207-7.347h15.817l-1.207,7.347H200.019z"/>
	<g>
		<path fill="#041E41" d="M216.19,89.391l0.922-5.615h5.088l-0.922,5.615H216.19z"/>
		<path fill="#041E41" d="M241.499,82.003l-0.619,3.775c-0.33,2.003-2.203,3.612-4.205,3.612h-7.518
			c-2.004,0-3.348-1.609-3.018-3.612l2.405-14.642c0.329-2.001,2.202-3.61,4.204-3.61h7.518c2.002,0,3.348,1.609,3.02,3.61
			l-0.54,3.284l-4.791,0.788l0.496-3.021c0.031-0.198-0.078-0.329-0.275-0.329h-4.662c-0.196,0-0.35,0.131-0.382,0.329l-2.061,12.54
			c-0.032,0.197,0.077,0.328,0.274,0.328h4.662c0.198,0,0.349-0.131,0.382-0.328l0.578-3.513L241.499,82.003z"/>
		<path fill="#041E41" d="M255.912,89.391h-8.076c-2.002,0-3.347-1.609-3.018-3.612l2.406-14.642c0.328-2.001,2.201-3.61,4.204-3.61
			h8.076c2.002,0,3.346,1.609,3.018,3.61l-2.406,14.642C259.787,87.781,257.914,89.391,255.912,89.391z M257.315,71.859h-5.121
			c-0.197,0-0.352,0.131-0.383,0.329l-2.061,12.54c-0.032,0.197,0.077,0.328,0.274,0.328h5.122c0.197,0,0.349-0.131,0.382-0.328
			l2.06-12.54C257.622,71.99,257.511,71.859,257.315,71.859z"/>
		<path fill="#041E41" d="M270.439,77.901l-1.888,11.489h-4.597l3.593-21.864h4.596l3.33,13.099l7.634-13.099h4.597l-3.593,21.864
			h-4.596l1.889-11.489l-4.813,8.107h-4.004L270.439,77.901z"/>
	</g>
</g>
</svg>
