<?xml version="1.0" standalone="no"?>
<!DOCTYPE svg PUBLIC "-//W3C//DTD SVG 20010904//EN"
 "http://www.w3.org/TR/2001/REC-SVG-20010904/DTD/svg10.dtd">
<svg version="1.0" xmlns="http://www.w3.org/2000/svg"
 width="700.000000pt" height="700.000000pt" viewBox="0 0 700.000000 700.000000"
 preserveAspectRatio="xMidYMid meet">
<metadata>
Created by potrace 1.11, written by Peter Selinger 2001-2013
</metadata>
<g transform="translate(0.000000,700.000000) scale(0.100000,-0.100000)"
fill="#000000" stroke="none">
<path d="M1785 6168 c-4 -24 -9 -56 -11 -73 -3 -16 -7 -37 -9 -45 -2 -8 -7
-37 -11 -65 -3 -27 -8 -59 -10 -70 -4 -21 -51 -297 -60 -350 -2 -16 -6 -41 -9
-55 -3 -14 -7 -38 -9 -55 -3 -16 -19 -111 -36 -210 -17 -99 -33 -191 -35 -205
-8 -55 -30 -189 -39 -235 -5 -26 -19 -105 -22 -125 -1 -8 -14 -85 -28 -170
-15 -85 -29 -171 -32 -190 -3 -19 -19 -114 -35 -210 -17 -96 -32 -188 -35
-205 -2 -16 -6 -41 -9 -55 -3 -14 -7 -38 -9 -55 -7 -42 -13 -77 -31 -180 -9
-49 -18 -106 -21 -125 -3 -19 -9 -57 -14 -85 -5 -27 -11 -63 -14 -80 -2 -16
-9 -58 -15 -93 -7 -35 -14 -75 -16 -90 -6 -44 -25 -159 -41 -242 -2 -14 -7
-41 -10 -60 -2 -19 -9 -57 -14 -85 -6 -27 -12 -66 -15 -85 -3 -19 -9 -60 -14
-90 -5 -30 -8 -57 -6 -60 2 -3 78 -5 169 -5 l166 1 0 -34 c0 -28 -5 -35 -32
-44 -55 -19 -180 -88 -234 -128 -156 -117 -274 -289 -319 -465 -33 -127 -27
-325 13 -450 89 -278 364 -520 657 -579 17 -4 41 -9 55 -12 14 -3 66 -8 116
-11 356 -22 715 179 869 486 72 143 104 331 80 471 -12 71 -13 76 -30 137
l-16 59 164 284 164 285 333 0 332 0 84 -144 c46 -79 84 -144 84 -146 0 -2 36
-65 81 -141 l80 -137 -21 -81 c-28 -102 -29 -112 -30 -223 -3 -399 294 -743
719 -833 254 -53 556 13 759 168 156 118 271 288 318 467 28 108 26 316 -5
415 -62 202 -178 358 -351 474 -75 50 -202 112 -222 108 -5 -1 -8 15 -8 36 l0
37 328 1 c303 0 328 -1 340 -18 7 -10 11 -21 9 -26 -3 -4 -35 -23 -71 -42 -36
-19 -66 -40 -66 -47 0 -6 16 -76 35 -155 20 -79 37 -152 39 -163 2 -11 9 -40
16 -65 7 -25 14 -53 16 -64 12 -65 58 -242 65 -250 4 -4 43 11 86 34 114 63
161 88 333 180 85 45 180 96 210 113 30 16 84 45 120 64 186 100 210 115 203
126 -3 7 -30 37 -59 67 -29 30 -65 69 -81 86 -60 66 -241 261 -294 318 l-56
59 -68 -36 c-38 -21 -73 -37 -77 -37 -14 0 -8 63 22 240 17 96 33 189 36 205
2 17 9 57 15 90 6 33 13 74 16 90 2 17 6 41 9 55 2 14 15 90 28 170 14 80 27
159 30 175 3 17 21 127 41 245 35 212 41 245 49 285 2 11 7 43 11 70 5 28 9
52 10 55 1 3 5 30 10 60 5 30 9 57 10 60 1 3 5 28 9 55 4 28 10 61 12 75 3 14
18 102 34 195 16 94 31 185 34 203 3 17 8 47 11 65 9 53 26 150 31 177 16 81
16 167 1 197 -52 99 -214 166 -482 198 -27 4 -61 8 -75 11 -14 2 -61 6 -105 9
-44 3 -102 8 -130 10 -27 3 -120 7 -205 10 -85 3 -198 8 -250 10 -52 3 -151 7
-220 10 -241 10 -426 24 -545 40 -16 2 -64 9 -105 14 -77 11 -103 16 -155 28
-36 8 -31 7 -75 17 -114 25 -254 93 -318 156 -71 68 -87 114 -92 263 0 4 -461
7 -1024 7 l-1024 0 -7 -42z m509 -3658 c-1 -7 -41 -82 -52 -98 -6 -9 -22 -7
-68 12 -50 20 -60 28 -62 51 -2 15 1 31 7 34 12 8 177 8 175 1z m2251 -29 c0
-31 -4 -34 -59 -57 -33 -13 -60 -23 -62 -21 -11 12 -62 106 -59 109 2 2 44 3
92 3 l88 -1 0 -33z"/>
<path d="M290 5320 l-34 -5 -40 -232 c-22 -128 -37 -235 -34 -238 3 -3 187 -5
409 -5 760 -1 746 -1 746 13 1 11 48 298 59 357 3 14 7 44 10 68 6 41 5 42
-22 42 -329 4 -1068 4 -1094 0z"/>
<path d="M370 4625 c-4 -11 -11 -40 -14 -65 -3 -25 -8 -56 -11 -70 -2 -14 -14
-81 -25 -150 -12 -69 -23 -137 -25 -151 l-5 -27 459 1 c253 0 464 3 468 6 10
6 75 382 77 441 l1 34 -459 1 c-451 0 -459 0 -466 -20z"/>
<path d="M460 3836 c-12 -72 -24 -138 -25 -146 -13 -70 -29 -178 -30 -190 0
-13 45 -15 343 -15 189 0 348 2 353 6 5 3 22 84 38 180 16 96 32 185 35 199 3
14 8 41 10 61 l5 35 -353 0 -353 1 -23 -131z"/>
<path d="M577 3188 c-9 -57 -19 -114 -22 -128 -3 -14 -12 -68 -21 -120 -9 -52
-18 -103 -20 -112 -2 -14 4 -18 29 -19 81 -2 449 0 452 3 1 2 5 22 9 46 3 24
12 82 21 130 8 48 17 105 20 127 3 22 8 45 10 52 2 6 7 37 10 67 l7 56 -239 0
-239 0 -17 -102z"/>
</g>
</svg>
