<?xml version="1.0" encoding="utf-8"?>
<!-- Generator: Adobe Illustrator 16.0.3, SVG Export Plug-In . SVG Version: 6.00 Build 0)  -->
<!DOCTYPE svg PUBLIC "-//W3C//DTD SVG 1.1//EN" "http://www.w3.org/Graphics/SVG/1.1/DTD/svg11.dtd">
<svg version="1.1" id="Layer_1" xmlns="http://www.w3.org/2000/svg" xmlns:xlink="http://www.w3.org/1999/xlink" x="0px" y="0px"
	 viewBox="0 0 150 150" enable-background="new 0 0 150 150" xml:space="preserve">
<g>
	<path fill-rule="evenodd" clip-rule="evenodd" fill="#FFFFFF" d="M43.362,30.512c0.338-0.183,0.675-0.368,1.014-0.548
		c7.032-3.745,14.451-5.824,22.458-4.667c10.192,1.472,17.169,7.087,20.546,16.868c2.236,6.478,1.957,13.073,0.061,19.575
		c-3.752,12.862-11.689,22.457-23.307,28.976c-7.106,3.987-14.751,5.885-22.932,4.625c-8.244-1.268-14.461-5.541-18.438-12.946
		c-0.136-0.251-0.28-0.497-0.42-0.747c-0.083,0.168-0.068,0.291-0.038,0.413c2.75,10.832,9.176,18.679,19.292,23.394
		c9.017,4.205,18.494,4.728,28.162,3.019c9.125-1.613,17.446-5.216,25.051-10.474c10.104-6.989,17.971-15.902,22.934-27.215
		c3.632-8.279,5.236-16.915,3.689-25.919c-2.049-11.934-8.627-20.585-19.52-25.827c-8.478-4.08-17.481-4.746-26.68-3.42
		c-8.182,1.179-15.777,4.051-22.874,8.255c-3.22,1.908-6.31,4.007-9.112,6.505c-0.086,0.039-0.171,0.078-0.257,0.117
		c0.015,0.035,0.029,0.069,0.043,0.104C43.144,30.569,43.253,30.541,43.362,30.512z M67.633,109.356
		c6.006,0.125,14.688-0.638,22.829-2.945c12.192-3.456,22.807-9.53,31.108-19.229c8.214-9.594,12.833-20.604,12.447-33.431
		c-0.153-5.096-1.313-9.965-3.584-14.537c-4.555-9.17-12.048-14.865-21.581-18.117c-0.22-0.075-0.464-0.08-0.752-0.126
		c0.059,0.094,0.069,0.13,0.09,0.138c6.73,2.811,11.428,7.699,14.392,14.28c3.446,7.648,3.982,15.671,2.602,23.832
		c-2.126,12.552-8.069,23.104-17.245,31.847C99.717,98.902,89.945,104,79.021,106.895C75.075,107.939,71.036,108.631,67.633,109.356
		z M40.586,46.034c0.055,0.075,0.111,0.15,0.166,0.225c0.243-0.11,0.478-0.247,0.731-0.327c1.614-0.51,3.2-1.201,4.854-1.472
		c5.262-0.863,9.854,2.017,11.493,7.056c1.09,3.353,0.847,6.688-0.368,9.938C55.22,67.45,51.266,71.82,45.019,73.72
		c-4.327,1.317-8.272,0.563-11.446-2.895c-0.549-0.599-0.975-1.312-1.464-1.979c-0.025,0.059-0.064,0.106-0.06,0.148
		c0.017,0.135,0.04,0.271,0.079,0.401c1.221,3.979,3.604,7.035,7.335,8.912c4.801,2.414,9.771,2.237,14.73,0.575
		c4.985-1.672,9.058-4.711,12.282-8.831c3.992-5.101,5.994-10.834,5.059-17.384c-0.462-3.235-1.893-6.038-4.211-8.313
		c-3.057-3-6.868-4.295-11.085-4.324c-4.575-0.031-8.763,1.372-12.599,3.828C42.588,44.531,41.602,45.306,40.586,46.034z
		 M79.574,124.596c-0.372,0-0.672,0-0.973,0c-4.047,0-8.093-0.002-12.14,0.002c-1.315,0.001-2.618,0.824-3.001,1.931
		c-0.737,2.126-1.455,4.26-2.166,6.395c-0.262,0.788-0.009,1.438,0.76,1.752c0.44,0.179,0.957,0.241,1.44,0.242
		c6.028,0.016,12.056,0.012,18.084,0.007c0.766,0,1.726,0.239,2.242-0.13c0.515-0.367,0.605-1.352,0.846-2.078
		c1.487-4.483,2.971-8.968,4.438-13.458c0.349-1.066-0.097-1.759-1.209-1.947c-0.35-0.059-0.711-0.067-1.067-0.067
		c-6.166-0.004-12.332-0.003-18.498-0.003c-0.55,0-1.099,0-1.71,0c-0.498,1.469-0.991,2.925-1.52,4.488c5.208,0,10.263,0,15.413,0
		C80.188,122.723,79.892,123.629,79.574,124.596z M52.782,127.57c-0.268,0.79-0.544,1.45-0.709,2.136
		c-0.154,0.639-0.497,0.77-1.11,0.767c-4.625-0.025-9.25-0.02-13.874-0.003c-0.292,0.001-0.775,0.087-0.843,0.261
		c-0.528,1.342-0.976,2.715-1.471,4.142c0.235,0.026,0.365,0.052,0.495,0.052c6.772,0.003,13.544,0.013,20.315-0.005
		c1.616-0.004,2.821-0.928,3.342-2.454c0.639-1.87,1.263-3.744,1.902-5.613c0.482-1.409-0.113-2.253-1.615-2.254
		c-3.166-0.004-6.332-0.002-9.498-0.002c-1.148,0-2.297,0-3.553,0c0.249-0.732,0.528-1.363,0.67-2.022
		c0.16-0.75,0.564-0.888,1.274-0.882c4.57,0.033,9.139,0.024,13.709,0.002c0.294-0.001,0.773-0.148,0.852-0.351
		c0.515-1.32,0.943-2.673,1.398-4.012c-0.116-0.047-0.164-0.084-0.213-0.084c-7.103-0.004-14.205-0.02-21.307,0.01
		c-1.04,0.005-1.822,0.604-2.182,1.61c-0.804,2.249-1.586,4.505-2.365,6.763c-0.459,1.331-0.027,1.939,1.353,1.939
		C43.785,127.57,48.216,127.57,52.782,127.57z M37.979,117.282c-2.638,0-5.179,0-7.73,0c-0.083,0.212-0.157,0.389-0.221,0.567
		c-1.416,3.981-2.842,7.96-4.233,11.949c-0.175,0.5-0.396,0.68-0.928,0.672c-2.091-0.03-4.183-0.011-6.275-0.016
		c-0.202-0.001-0.404-0.044-0.695-0.078c1.572-4.406,3.114-8.729,4.687-13.137c-2.541,0-4.932-0.013-7.324,0.022
		c-0.206,0.002-0.516,0.278-0.595,0.493c-1.901,5.207-3.785,10.42-5.653,15.637c-0.333,0.934,0.09,1.527,1.076,1.529
		c6.632,0.009,13.265,0.012,19.898-0.001c1.173-0.003,2.021-0.654,2.413-1.765c1.167-3.313,2.33-6.628,3.494-9.941
		C36.583,121.256,37.271,119.297,37.979,117.282z M86.488,134.882c2.662,0,5.212,0,7.785,0c0.07-0.176,0.152-0.349,0.211-0.528
		c1.28-3.943,2.573-7.883,3.823-11.835c0.2-0.631,0.481-0.833,1.154-0.828c4.598,0.034,9.196,0.022,13.795,0.007
		c0.289-0.002,0.772-0.099,0.834-0.271c0.489-1.353,0.897-2.733,1.338-4.13c-0.195-0.03-0.275-0.054-0.355-0.054
		c-6.939-0.002-13.879-0.008-20.817,0.002c-1.157,0.002-2.21,0.824-2.591,1.951c-0.42,1.248-0.84,2.498-1.253,3.752
		C89.115,126.883,87.824,130.821,86.488,134.882z M40.399,46.397l0.03-0.044l-0.052-0.004L40.399,46.397z"/>
	<path fill-rule="evenodd" clip-rule="evenodd" fill="#1E3057" d="M141.1,117.821c-0.276,0.746-0.563,1.488-0.829,2.238
		c-0.191,0.541-0.355,1.092-0.536,1.649c-4.833,0-9.622,0.016-14.411-0.018c-0.743-0.006-1.164,0.133-1.302,0.935
		c-0.109,0.64-0.378,1.251-0.604,1.97c0.362,0,0.651,0,0.941,0c4.047,0,8.093-0.002,12.139,0.002
		c1.486,0.001,2.098,0.839,1.662,2.257c-0.565,1.838-1.131,3.676-1.693,5.515c-0.519,1.69-1.677,2.555-3.481,2.556
		c-6.496,0.005-12.991,0.002-19.487,0.002c-0.351,0-0.7,0-1.153,0c0.459-1.445,0.864-2.807,1.347-4.14
		c0.065-0.182,0.519-0.314,0.794-0.315c4.597-0.02,9.193-0.035,13.789,0.007c0.774,0.008,1.146-0.191,1.284-0.965
		c0.111-0.637,0.363-1.249,0.575-1.943c-2.961,0-5.82,0-8.679,0c-1.652,0-3.303,0.004-4.954-0.002
		c-1.014-0.002-1.589-0.649-1.307-1.585c0.749-2.469,1.488-4.943,2.367-7.366c0.361-0.995,1.309-1.389,2.415-1.387
		c6.716,0.018,13.432,0.01,20.148,0.006c0.325,0,0.651-0.05,0.976-0.076C141.1,117.381,141.1,117.602,141.1,117.821z"/>
	<path fill-rule="evenodd" clip-rule="evenodd" fill="#1E3057" d="M43.249,30.377c2.802-2.499,5.892-4.598,9.112-6.505
		c7.096-4.204,14.691-7.076,22.874-8.255c9.199-1.326,18.202-0.66,26.68,3.42c10.893,5.242,17.471,13.893,19.52,25.827
		c1.547,9.004-0.058,17.64-3.689,25.919c-4.963,11.313-12.829,20.226-22.934,27.215c-7.605,5.258-15.926,8.86-25.051,10.474
		c-9.667,1.709-19.145,1.187-28.162-3.019c-10.116-4.715-16.542-12.562-19.292-23.394c-0.03-0.122-0.044-0.245,0.038-0.413
		c0.14,0.25,0.284,0.496,0.42,0.747c3.977,7.405,10.195,11.679,18.438,12.946c8.181,1.26,15.826-0.638,22.932-4.625
		c11.618-6.52,19.555-16.114,23.307-28.976c1.896-6.501,2.175-13.097-0.061-19.575c-3.377-9.781-10.354-15.396-20.546-16.868
		c-8.007-1.156-15.426,0.923-22.458,4.667c-0.339,0.181-0.676,0.365-1.014,0.548C43.325,30.467,43.287,30.422,43.249,30.377z"/>
	<path fill-rule="evenodd" clip-rule="evenodd" fill="#CD2033" d="M67.633,109.356c3.403-0.726,7.442-1.417,11.388-2.462
		c10.924-2.895,20.696-7.992,28.917-15.825c9.176-8.743,15.119-19.295,17.245-31.847c1.381-8.161,0.845-16.184-2.602-23.832
		c-2.964-6.581-7.661-11.469-14.392-14.28c-0.021-0.008-0.031-0.044-0.09-0.138c0.288,0.046,0.532,0.051,0.752,0.126
		c9.533,3.252,17.026,8.947,21.581,18.117c2.271,4.572,3.431,9.441,3.584,14.537c0.386,12.827-4.233,23.837-12.447,33.431
		c-8.302,9.698-18.916,15.772-31.108,19.229C82.321,108.719,73.639,109.481,67.633,109.356z"/>
	<path fill-rule="evenodd" clip-rule="evenodd" fill="#AAB3B2" d="M40.586,46.034c1.016-0.728,2.002-1.503,3.053-2.176
		c3.836-2.456,8.024-3.859,12.599-3.828c4.218,0.029,8.028,1.324,11.085,4.324c2.319,2.275,3.749,5.078,4.211,8.313
		c0.935,6.55-1.067,12.284-5.059,17.384c-3.224,4.119-7.297,7.159-12.282,8.831c-4.959,1.662-9.929,1.839-14.73-0.575
		c-3.731-1.877-6.115-4.933-7.335-8.912c-0.04-0.129-0.062-0.266-0.079-0.401c-0.005-0.042,0.035-0.089,0.06-0.148
		c0.489,0.667,0.915,1.38,1.464,1.979c3.174,3.458,7.119,4.212,11.446,2.895c6.248-1.9,10.202-6.27,12.444-12.267
		c1.215-3.249,1.458-6.584,0.368-9.938c-1.639-5.039-6.231-7.919-11.493-7.056c-1.654,0.271-3.241,0.962-4.854,1.472
		c-0.253,0.08-0.488,0.216-0.731,0.327C40.697,46.184,40.641,46.109,40.586,46.034z"/>
	<path fill-rule="evenodd" clip-rule="evenodd" fill="#1E3057" d="M79.574,124.596c0.317-0.967,0.614-1.873,0.939-2.867
		c-5.15,0-10.206,0-15.413,0c0.529-1.563,1.022-3.02,1.52-4.488c0.611,0,1.16,0,1.71,0c6.166,0,12.332-0.001,18.498,0.003
		c0.355,0,0.717,0.009,1.067,0.067c1.112,0.188,1.559,0.881,1.209,1.947c-1.468,4.49-2.951,8.975-4.438,13.458
		c-0.24,0.727-0.331,1.711-0.846,2.078c-0.517,0.369-1.477,0.13-2.242,0.13c-6.029,0.005-12.057,0.009-18.084-0.007
		c-0.483-0.001-1-0.063-1.44-0.242c-0.769-0.313-1.022-0.964-0.76-1.752c0.711-2.135,1.429-4.269,2.166-6.395
		c0.383-1.106,1.687-1.93,3.001-1.931c4.047-0.004,8.093-0.002,12.14-0.002C78.902,124.596,79.202,124.596,79.574,124.596z
		 M69.941,130.464c2.528,0,4.887,0.007,7.245-0.013c0.172,0,0.442-0.136,0.494-0.274c0.316-0.833,0.583-1.686,0.879-2.571
		c-2.624,0-5.139,0-7.674,0C70.579,128.533,70.282,129.434,69.941,130.464z"/>
	<path fill-rule="evenodd" clip-rule="evenodd" fill="#1E3057" d="M52.782,127.57c-4.566,0-8.997,0-13.428-0.001
		c-1.38,0-1.813-0.608-1.353-1.939c0.779-2.258,1.561-4.514,2.365-6.763c0.36-1.006,1.142-1.605,2.182-1.61
		c7.102-0.029,14.204-0.014,21.307-0.01c0.049,0,0.097,0.037,0.213,0.084c-0.455,1.339-0.883,2.691-1.398,4.012
		c-0.078,0.202-0.557,0.35-0.852,0.351c-4.57,0.022-9.139,0.031-13.709-0.002c-0.709-0.006-1.114,0.132-1.274,0.882
		c-0.142,0.659-0.421,1.29-0.67,2.022c1.255,0,2.404,0,3.553,0c3.166,0,6.332-0.002,9.498,0.002
		c1.502,0.001,2.098,0.845,1.615,2.254c-0.639,1.869-1.264,3.743-1.902,5.613c-0.521,1.526-1.727,2.45-3.342,2.454
		c-6.771,0.018-13.543,0.008-20.315,0.005c-0.13,0-0.26-0.025-0.495-0.052c0.495-1.427,0.942-2.8,1.471-4.142
		c0.068-0.174,0.552-0.26,0.843-0.261c4.625-0.017,9.25-0.022,13.874,0.003c0.613,0.003,0.956-0.128,1.11-0.767
		C52.238,129.021,52.514,128.36,52.782,127.57z"/>
	<path fill-rule="evenodd" clip-rule="evenodd" fill="#1E3057" d="M37.979,117.282c-0.708,2.015-1.397,3.974-2.085,5.933
		c-1.165,3.313-2.327,6.628-3.494,9.941c-0.392,1.11-1.239,1.762-2.413,1.765c-6.633,0.013-13.266,0.01-19.898,0.001
		c-0.986-0.002-1.41-0.596-1.076-1.529c1.868-5.217,3.752-10.43,5.653-15.637c0.079-0.215,0.39-0.491,0.595-0.493
		c2.392-0.035,4.783-0.022,7.324-0.022c-1.573,4.408-3.115,8.73-4.687,13.137c0.291,0.034,0.493,0.077,0.695,0.078
		c2.092,0.005,4.184-0.015,6.275,0.016c0.532,0.008,0.753-0.172,0.928-0.672c1.391-3.989,2.817-7.968,4.233-11.949
		c0.064-0.179,0.138-0.355,0.221-0.567C32.8,117.282,35.341,117.282,37.979,117.282z"/>
	<path fill-rule="evenodd" clip-rule="evenodd" fill="#1E3057" d="M86.488,134.882c1.335-4.061,2.627-7.999,3.923-11.935
		c0.413-1.254,0.833-2.504,1.253-3.752c0.381-1.127,1.434-1.949,2.591-1.951c6.938-0.01,13.878-0.004,20.817-0.002
		c0.08,0,0.16,0.023,0.355,0.054c-0.44,1.396-0.849,2.777-1.338,4.13c-0.062,0.173-0.545,0.27-0.834,0.271
		c-4.599,0.016-9.197,0.027-13.795-0.007c-0.673-0.005-0.954,0.197-1.154,0.828c-1.25,3.952-2.543,7.892-3.823,11.835
		c-0.059,0.18-0.141,0.353-0.211,0.528C91.7,134.882,89.15,134.882,86.488,134.882z"/>
	<path fill-rule="evenodd" clip-rule="evenodd" fill="#1E3057" d="M43.362,30.512c-0.109,0.029-0.218,0.057-0.328,0.085
		c-0.014-0.034-0.028-0.069-0.043-0.104c0.086-0.04,0.171-0.079,0.257-0.117C43.287,30.422,43.325,30.467,43.362,30.512z"/>
	<polygon fill-rule="evenodd" clip-rule="evenodd" fill="#AAB3B2" points="40.399,46.397 40.377,46.349 40.429,46.353 	"/>
	<path fill-rule="evenodd" clip-rule="evenodd" fill="#FFFFFF" d="M69.941,130.464c0.34-1.03,0.638-1.931,0.944-2.858
		c2.535,0,5.05,0,7.674,0c-0.296,0.886-0.563,1.738-0.879,2.571c-0.052,0.139-0.322,0.274-0.494,0.274
		C74.828,130.471,72.47,130.464,69.941,130.464z"/>
	<path fill-rule="evenodd" clip-rule="evenodd" fill="#AAB3B2" d="M112.53,65.583c-0.112-1.444-0.1-2.967-0.387-4.43
		c-0.2-1.017-0.701-2.024-1.271-2.905c-0.793-1.229-1.993-1.532-3.41-1.105c-1.782,0.536-3.027,1.775-4.046,3.238
		c-0.878,1.261-1.632,2.609-2.443,3.917c-0.104,0.17-0.225,0.331-0.462,0.432c0.31-1.058,0.649-2.108,0.921-3.176
		c0.92-3.608,1.468-7.263,1.537-10.998c0.093-4.869-0.528-9.599-2.521-14.078c-1.795-4.038-4.53-7.193-8.91-8.985
		c0.399-0.024,0.617-0.049,0.836-0.05c2.614-0.003,5.231-0.029,7.846,0.018c0.636,0.012,1.314,0.161,1.893,0.424
		c3.713,1.692,6.469,4.482,8.485,7.943c5.43,9.319,6.368,19.032,2.248,29.111C112.744,65.187,112.61,65.421,112.53,65.583z"/>
</g>
</svg>
