<?xml version="1.0" encoding="utf-8"?>
<!-- Generator: Adobe Illustrator 16.0.3, SVG Export Plug-In . SVG Version: 6.00 Build 0)  -->
<!DOCTYPE svg PUBLIC "-//W3C//DTD SVG 1.1//EN" "http://www.w3.org/Graphics/SVG/1.1/DTD/svg11.dtd">
<svg version="1.1" xmlns="http://www.w3.org/2000/svg" xmlns:xlink="http://www.w3.org/1999/xlink" x="0px" y="0px"
	 viewBox="0 0 155 150" enable-background="new 0 0 155 150" xml:space="preserve">
<g>
	<g>
		<path d="M12.026,40.6h7.623c5.082,0,8.523,0.197,10.321,0.589c1.8,0.391,3.267,1.392,4.401,3.001c1.134,1.608,1.7,4.177,1.7,7.702
			c0,3.219-0.399,5.382-1.201,6.489c-0.801,1.107-2.379,1.772-4.732,1.993c2.131,0.528,3.564,1.234,4.298,2.12
			c0.732,0.887,1.189,1.699,1.368,2.44c0.18,0.741,0.268,2.78,0.268,6.118v10.91H26.07V68.216c0-2.213-0.175-3.584-0.524-4.112
			c-0.35-0.527-1.266-0.792-2.75-0.792v18.649H12.026V40.6z M22.795,47.678v9.197c1.211,0,2.06-0.167,2.545-0.5
			c0.486-0.331,0.729-1.41,0.729-3.23V50.87c0-1.311-0.234-2.17-0.704-2.58C24.897,47.882,24.041,47.678,22.795,47.678z"/>
		<path d="M49.762,40.6h8.058c5.203,0,8.72,0.239,10.553,0.715c1.833,0.478,3.228,1.261,4.182,2.351
			c0.956,1.09,1.552,2.303,1.791,3.64c0.239,1.336,0.359,3.964,0.359,7.882v14.485c0,3.712-0.176,6.196-0.525,7.447
			c-0.349,1.253-0.959,2.231-1.828,2.937c-0.871,0.708-1.945,1.203-3.224,1.482c-1.28,0.282-3.207,0.423-5.782,0.423H49.762V40.6z
			 M60.532,47.678v27.207c1.552,0,2.506-0.31,2.866-0.932c0.358-0.621,0.536-2.313,0.536-5.071V52.813
			c0-1.874-0.059-3.075-0.178-3.603c-0.12-0.527-0.393-0.916-0.819-1.162C62.51,47.801,61.708,47.678,60.532,47.678z"/>
		<path d="M113.188,58.612h-10.77v-7.189c0-2.091-0.116-3.394-0.346-3.914c-0.229-0.517-0.738-0.776-1.521-0.776
			c-0.887,0-1.45,0.314-1.688,0.945c-0.239,0.63-0.359,1.992-0.359,4.087v19.211c0,2.01,0.12,3.321,0.359,3.934
			c0.238,0.613,0.776,0.92,1.612,0.92c0.799,0,1.325-0.307,1.574-0.921c0.245-0.616,0.369-2.057,0.369-4.329v-5.199h10.77v1.613
			c0,4.28-0.302,7.316-0.908,9.107c-0.606,1.793-1.943,3.36-4.018,4.708c-2.071,1.348-4.623,2.021-7.658,2.021
			c-3.157,0-5.758-0.57-7.804-1.711c-2.047-1.143-3.404-2.722-4.069-4.741c-0.665-2.017-0.996-5.053-0.996-9.105V55.188
			c0-2.98,0.102-5.216,0.306-6.706c0.203-1.491,0.814-2.926,1.83-4.305c1.015-1.38,2.421-2.466,4.223-3.257
			c1.798-0.792,3.866-1.188,6.201-1.188c3.173,0,5.791,0.612,7.854,1.837c2.064,1.223,3.421,2.75,4.068,4.579
			c0.648,1.829,0.971,4.673,0.971,8.534V58.612z"/>
		<path d="M136.348,40.6v33.084h6.551v8.277h-17.32V40.6H136.348z"/>
	</g>
	<g>
		<path d="M10.948,86.426h1.385c0.923,0,1.548,0.037,1.875,0.107c0.328,0.071,0.595,0.253,0.8,0.546
			c0.207,0.292,0.31,0.76,0.31,1.397c0,0.587-0.073,0.979-0.22,1.18c-0.145,0.202-0.431,0.323-0.859,0.364
			c0.388,0.095,0.646,0.223,0.781,0.384c0.133,0.162,0.215,0.31,0.249,0.443c0.032,0.135,0.049,0.506,0.049,1.112v1.98H13.5v-2.497
			c0-0.399-0.033-0.649-0.096-0.746c-0.064-0.096-0.231-0.146-0.5-0.146v3.389h-1.957V86.426z M12.904,87.713v1.67
			c0.22,0,0.374-0.03,0.463-0.09c0.087-0.061,0.133-0.257,0.133-0.587v-0.415c0-0.236-0.044-0.391-0.128-0.468
			C13.286,87.749,13.131,87.713,12.904,87.713z"/>
		<path d="M20.363,89.945v1.509c0,0.555-0.029,0.963-0.083,1.217c-0.055,0.259-0.176,0.502-0.357,0.725
			c-0.184,0.225-0.417,0.392-0.704,0.496c-0.287,0.108-0.616,0.162-0.988,0.162c-0.416,0-0.768-0.046-1.055-0.138
			c-0.289-0.091-0.512-0.229-0.672-0.412c-0.159-0.185-0.274-0.405-0.342-0.669c-0.068-0.262-0.102-0.654-0.102-1.177V90.08
			c0-0.573,0.062-1.019,0.186-1.343c0.123-0.321,0.347-0.581,0.668-0.771c0.323-0.196,0.735-0.297,1.237-0.297
			c0.421,0,0.783,0.063,1.084,0.189c0.303,0.126,0.536,0.287,0.7,0.489c0.164,0.2,0.277,0.409,0.336,0.621
			C20.333,89.184,20.363,89.508,20.363,89.945z M18.485,89.48c0-0.315-0.016-0.515-0.05-0.597c-0.034-0.081-0.107-0.124-0.218-0.124
			c-0.113,0-0.186,0.043-0.223,0.124c-0.037,0.082-0.057,0.281-0.057,0.597v2.779c0,0.295,0.02,0.48,0.057,0.571
			c0.037,0.087,0.109,0.133,0.218,0.133c0.111,0,0.186-0.042,0.221-0.122c0.035-0.079,0.053-0.255,0.053-0.521V89.48z"/>
		<path d="M23.051,86.426v7.515h-1.933v-7.515H23.051z"/>
		<path d="M25.794,86.426v7.515h-1.933v-7.515H25.794z"/>
		<path d="M30.858,90.971h-2.432v1.333c0,0.277,0.021,0.459,0.061,0.538c0.041,0.08,0.118,0.122,0.232,0.122
			c0.143,0,0.238-0.055,0.286-0.164c0.048-0.104,0.072-0.311,0.072-0.617v-0.813h1.781v0.456c0,0.38-0.024,0.674-0.073,0.878
			c-0.047,0.204-0.161,0.421-0.337,0.653s-0.4,0.406-0.671,0.522c-0.271,0.116-0.611,0.175-1.02,0.175
			c-0.397,0-0.747-0.058-1.05-0.173c-0.305-0.114-0.541-0.271-0.709-0.472c-0.168-0.2-0.286-0.419-0.351-0.656
			c-0.065-0.241-0.098-0.59-0.098-1.049v-1.797c0-0.538,0.073-0.964,0.22-1.273c0.145-0.311,0.383-0.551,0.716-0.715
			c0.331-0.165,0.712-0.25,1.143-0.25c0.526,0,0.961,0.103,1.304,0.303c0.342,0.199,0.583,0.464,0.72,0.791
			c0.139,0.33,0.208,0.794,0.208,1.393V90.971z M28.975,89.968v-0.45c0-0.317-0.017-0.523-0.051-0.618
			c-0.034-0.093-0.104-0.14-0.209-0.14c-0.13,0-0.211,0.041-0.241,0.12c-0.031,0.078-0.048,0.291-0.048,0.638v0.45H28.975z"/>
		<path d="M33.473,87.782l-0.075,0.811c0.273-0.583,0.668-0.886,1.186-0.924v2.169c-0.344,0-0.597,0.047-0.757,0.139
			c-0.162,0.093-0.262,0.224-0.298,0.389c-0.037,0.165-0.056,0.548-0.056,1.144v2.432h-1.877v-6.158H33.473z"/>
		<path d="M36.983,86.426h1.465c0.944,0,1.583,0.046,1.917,0.131c0.333,0.086,0.586,0.229,0.759,0.427
			c0.173,0.199,0.282,0.418,0.325,0.662c0.043,0.242,0.065,0.723,0.065,1.432v2.631c0,0.676-0.032,1.127-0.095,1.353
			c-0.063,0.229-0.174,0.407-0.331,0.535c-0.159,0.129-0.354,0.219-0.586,0.269c-0.232,0.052-0.583,0.076-1.051,0.076h-2.468V86.426
			z M38.94,87.713v4.941c0.282,0,0.455-0.057,0.52-0.167c0.065-0.113,0.098-0.421,0.098-0.922v-2.919
			c0-0.339-0.01-0.562-0.032-0.655c-0.021-0.095-0.072-0.166-0.148-0.211C39.298,87.735,39.154,87.713,38.94,87.713z"/>
		<path d="M46.566,90.971h-2.431v1.333c0,0.277,0.02,0.459,0.06,0.538c0.041,0.08,0.118,0.122,0.232,0.122
			c0.143,0,0.238-0.055,0.286-0.164c0.048-0.104,0.072-0.311,0.072-0.617v-0.813h1.78v0.456c0,0.38-0.024,0.674-0.073,0.878
			c-0.047,0.204-0.16,0.421-0.335,0.653c-0.178,0.232-0.401,0.406-0.673,0.522c-0.272,0.116-0.611,0.175-1.02,0.175
			c-0.396,0-0.748-0.058-1.05-0.173c-0.304-0.114-0.54-0.271-0.708-0.472c-0.17-0.2-0.287-0.419-0.352-0.656
			c-0.065-0.241-0.098-0.59-0.098-1.049v-1.797c0-0.538,0.073-0.964,0.218-1.273c0.145-0.311,0.384-0.551,0.716-0.715
			c0.332-0.165,0.713-0.25,1.143-0.25c0.528,0,0.961,0.103,1.304,0.303c0.341,0.199,0.583,0.464,0.72,0.791
			c0.137,0.33,0.208,0.794,0.208,1.393V90.971z M44.684,89.968v-0.45c0-0.317-0.017-0.523-0.052-0.618
			c-0.034-0.093-0.104-0.14-0.209-0.14c-0.13,0-0.211,0.041-0.243,0.12c-0.03,0.078-0.045,0.291-0.045,0.638v0.45H44.684z"/>
		<path d="M49.181,87.782l-0.074,0.811c0.273-0.583,0.667-0.886,1.185-0.924v2.169c-0.344,0-0.597,0.047-0.758,0.139
			c-0.162,0.093-0.261,0.224-0.298,0.389s-0.055,0.548-0.055,1.144v2.432h-1.878v-6.158H49.181z"/>
		<path d="M52.774,86.426v1.779c0.154-0.181,0.327-0.313,0.518-0.402c0.19-0.088,0.396-0.134,0.62-0.134
			c0.257,0,0.48,0.043,0.669,0.122c0.189,0.081,0.333,0.194,0.433,0.34c0.099,0.144,0.159,0.286,0.178,0.426
			c0.021,0.139,0.03,0.438,0.03,0.892v2.777c0,0.449-0.03,0.787-0.09,1.01c-0.06,0.22-0.201,0.412-0.425,0.574
			c-0.223,0.161-0.488,0.244-0.795,0.244c-0.221,0-0.426-0.048-0.616-0.144c-0.191-0.098-0.365-0.242-0.522-0.434l-0.122,0.464
			h-1.757v-7.515H52.774z M53.345,89.532c0-0.318-0.02-0.527-0.06-0.624c-0.041-0.099-0.119-0.148-0.237-0.148
			c-0.116,0-0.19,0.044-0.224,0.128c-0.034,0.087-0.05,0.302-0.05,0.645v2.653c0,0.332,0.018,0.544,0.057,0.64
			c0.04,0.09,0.117,0.139,0.23,0.139c0.118,0,0.195-0.05,0.231-0.145c0.035-0.098,0.053-0.326,0.053-0.694V89.532z"/>
		<path d="M59.979,87.782l-0.537,4.456c-0.083,0.704-0.155,1.187-0.213,1.443s-0.152,0.469-0.286,0.636s-0.319,0.291-0.556,0.369
			c-0.236,0.078-0.616,0.119-1.136,0.119h-1.138V93.82c0.292,0,0.479-0.015,0.563-0.043c0.084-0.03,0.126-0.096,0.126-0.197
			c0-0.049-0.039-0.265-0.117-0.647l-1.028-5.15h1.706l0.616,4.158l0.3-4.158H59.979z"/>
		<path d="M66.865,89.698h-1.957v-1.305c0-0.382-0.021-0.616-0.063-0.711c-0.042-0.095-0.134-0.144-0.277-0.144
			c-0.162,0-0.264,0.059-0.306,0.174c-0.043,0.114-0.065,0.36-0.065,0.742v3.49c0,0.365,0.022,0.606,0.065,0.714
			c0.042,0.113,0.14,0.17,0.292,0.17c0.146,0,0.24-0.057,0.287-0.17c0.044-0.107,0.067-0.371,0.067-0.785v-0.945h1.957v0.294
			c0,0.777-0.055,1.331-0.166,1.654c-0.109,0.325-0.352,0.609-0.729,0.855c-0.377,0.245-0.841,0.367-1.392,0.367
			c-0.575,0-1.046-0.104-1.418-0.311c-0.372-0.207-0.618-0.493-0.739-0.863c-0.121-0.364-0.181-0.917-0.181-1.653v-2.195
			c0-0.542,0.018-0.946,0.055-1.219c0.039-0.271,0.149-0.532,0.333-0.781c0.185-0.251,0.44-0.449,0.768-0.592
			c0.326-0.145,0.702-0.216,1.127-0.216c0.576,0,1.052,0.111,1.427,0.333c0.375,0.224,0.621,0.501,0.74,0.833
			c0.117,0.333,0.176,0.847,0.176,1.551V89.698z"/>
		<path d="M71.883,89.945v1.509c0,0.555-0.028,0.963-0.083,1.217c-0.057,0.259-0.175,0.502-0.359,0.725
			c-0.183,0.225-0.418,0.392-0.703,0.496c-0.288,0.108-0.616,0.162-0.988,0.162c-0.415,0-0.767-0.046-1.056-0.138
			c-0.288-0.091-0.512-0.229-0.671-0.412c-0.16-0.185-0.273-0.405-0.341-0.669c-0.068-0.262-0.102-0.654-0.102-1.177V90.08
			c0-0.573,0.061-1.019,0.185-1.343c0.125-0.321,0.347-0.581,0.671-0.771c0.321-0.196,0.733-0.297,1.236-0.297
			c0.42,0,0.782,0.063,1.084,0.189c0.302,0.126,0.536,0.287,0.7,0.489c0.164,0.2,0.276,0.409,0.337,0.621
			C71.853,89.184,71.883,89.508,71.883,89.945z M70.005,89.48c0-0.315-0.018-0.515-0.051-0.597
			c-0.034-0.081-0.106-0.124-0.217-0.124c-0.113,0-0.187,0.043-0.224,0.124c-0.038,0.082-0.057,0.281-0.057,0.597v2.779
			c0,0.295,0.019,0.48,0.057,0.571c0.037,0.087,0.109,0.133,0.218,0.133c0.113,0,0.186-0.042,0.221-0.122
			c0.035-0.079,0.053-0.255,0.053-0.521V89.48z"/>
		<path d="M74.303,90.168h-1.762v-0.414c0-0.475,0.056-0.843,0.166-1.101c0.109-0.259,0.331-0.485,0.662-0.684
			c0.331-0.198,0.763-0.301,1.292-0.301c0.635,0,1.114,0.114,1.436,0.338c0.323,0.228,0.517,0.502,0.581,0.825
			c0.065,0.328,0.098,1,0.098,2.019v3.09h-1.827v-0.549c-0.115,0.222-0.263,0.387-0.444,0.495c-0.181,0.111-0.397,0.167-0.648,0.167
			c-0.329,0-0.63-0.094-0.905-0.276c-0.274-0.184-0.411-0.589-0.411-1.209v-0.506c0-0.461,0.073-0.776,0.219-0.943
			s0.507-0.362,1.082-0.585c0.617-0.239,0.947-0.403,0.991-0.487c0.043-0.083,0.065-0.254,0.065-0.509
			c0-0.323-0.024-0.533-0.072-0.63c-0.048-0.099-0.128-0.148-0.24-0.148c-0.127,0-0.206,0.043-0.237,0.124
			c-0.031,0.082-0.046,0.295-0.046,0.638V90.168z M74.898,91.012c-0.302,0.22-0.475,0.404-0.523,0.554
			c-0.047,0.147-0.072,0.361-0.072,0.64c0,0.319,0.021,0.524,0.063,0.62c0.042,0.09,0.124,0.139,0.248,0.139
			c0.118,0,0.195-0.039,0.23-0.111c0.036-0.071,0.054-0.264,0.054-0.57V91.012z"/>
		<path d="M79.501,86.426v7.515h-1.935v-7.515H79.501z"/>
		<path d="M82.243,86.426v0.979h-1.933v-0.979H82.243z M82.243,87.782v6.158h-1.933v-6.158H82.243z"/>
		<path d="M85.112,86.96v0.97h0.505v0.976h-0.505V92.2c0,0.405,0.021,0.633,0.063,0.677c0.04,0.047,0.217,0.07,0.522,0.07v0.993
			h-0.759c-0.426,0-0.732-0.016-0.914-0.054c-0.183-0.032-0.346-0.116-0.484-0.244s-0.228-0.274-0.261-0.442
			c-0.034-0.164-0.052-0.554-0.052-1.166v-3.129h-0.402V87.93h0.402v-0.97H85.112z"/>
		<path d="M88.189,86.426v0.979h-1.934v-0.979H88.189z M88.189,87.782v6.158h-1.934v-6.158H88.189z"/>
		<path d="M93.248,89.945v1.509c0,0.555-0.026,0.963-0.083,1.217c-0.056,0.259-0.174,0.502-0.356,0.725
			c-0.184,0.225-0.418,0.392-0.704,0.496c-0.288,0.108-0.616,0.162-0.988,0.162c-0.415,0-0.767-0.046-1.056-0.138
			c-0.286-0.091-0.513-0.229-0.671-0.412c-0.159-0.185-0.273-0.405-0.342-0.669c-0.067-0.262-0.101-0.654-0.101-1.177V90.08
			c0-0.573,0.06-1.019,0.184-1.343c0.125-0.321,0.347-0.581,0.67-0.771c0.321-0.196,0.735-0.297,1.236-0.297
			c0.422,0,0.785,0.063,1.085,0.189c0.302,0.126,0.536,0.287,0.699,0.489c0.166,0.2,0.276,0.409,0.338,0.621
			C93.22,89.184,93.248,89.508,93.248,89.945z M91.372,89.48c0-0.315-0.017-0.515-0.052-0.597c-0.033-0.081-0.105-0.124-0.218-0.124
			s-0.187,0.043-0.223,0.124c-0.038,0.082-0.058,0.281-0.058,0.597v2.779c0,0.295,0.02,0.48,0.058,0.571
			c0.036,0.087,0.108,0.133,0.218,0.133c0.113,0,0.187-0.042,0.22-0.122c0.037-0.079,0.055-0.255,0.055-0.521V89.48z"/>
		<path d="M95.902,87.782l-0.032,0.566c0.136-0.226,0.302-0.396,0.5-0.507c0.195-0.115,0.424-0.173,0.682-0.173
			c0.322,0,0.583,0.077,0.788,0.231c0.204,0.15,0.336,0.343,0.396,0.57c0.059,0.231,0.087,0.615,0.087,1.155v4.314h-1.878v-4.264
			c0-0.425-0.013-0.683-0.04-0.777c-0.029-0.093-0.105-0.14-0.233-0.14c-0.133,0-0.216,0.056-0.25,0.163
			c-0.034,0.105-0.051,0.391-0.051,0.854v4.164h-1.879v-6.158H95.902z"/>
		<path d="M105.422,90.826c0,0.757-0.017,1.29-0.054,1.605c-0.035,0.312-0.146,0.602-0.333,0.86
			c-0.188,0.26-0.441,0.458-0.762,0.598c-0.318,0.14-0.69,0.21-1.115,0.21c-0.403,0-0.765-0.066-1.085-0.198
			c-0.322-0.131-0.579-0.327-0.774-0.591c-0.195-0.263-0.311-0.548-0.348-0.86c-0.037-0.307-0.057-0.849-0.057-1.624v-1.284
			c0-0.754,0.019-1.289,0.055-1.605c0.035-0.312,0.147-0.601,0.335-0.859c0.187-0.26,0.44-0.46,0.76-0.599
			c0.318-0.14,0.691-0.209,1.114-0.209c0.402,0,0.766,0.065,1.086,0.196c0.319,0.134,0.577,0.331,0.773,0.592
			c0.195,0.264,0.313,0.549,0.349,0.859c0.038,0.309,0.056,0.851,0.056,1.625V90.826z M103.464,88.354
			c0-0.347-0.018-0.569-0.056-0.668c-0.039-0.097-0.119-0.147-0.239-0.147c-0.103,0-0.181,0.042-0.234,0.119
			c-0.056,0.078-0.083,0.314-0.083,0.696v3.512c0,0.438,0.02,0.706,0.055,0.806c0.034,0.104,0.116,0.157,0.248,0.157
			c0.133,0,0.219-0.059,0.256-0.179c0.037-0.119,0.054-0.397,0.054-0.84V88.354z"/>
		<path d="M108.736,86.426v0.953c-0.387,0-0.617,0.017-0.686,0.054c-0.07,0.033-0.106,0.137-0.106,0.303v0.194h0.792v0.976h-0.446
			v5.035h-1.879v-5.035h-0.386V87.93h0.386c0-0.404,0.015-0.675,0.041-0.812c0.028-0.136,0.097-0.257,0.209-0.364
			c0.109-0.107,0.265-0.188,0.462-0.245c0.198-0.055,0.506-0.083,0.925-0.083H108.736z"/>
		<path d="M113.031,86.426v6.012h1.189v1.503h-3.147v-7.515H113.031z"/>
		<path d="M119.12,90.971h-2.432v1.333c0,0.277,0.021,0.459,0.061,0.538c0.039,0.08,0.118,0.122,0.232,0.122
			c0.144,0,0.236-0.055,0.285-0.164c0.048-0.104,0.072-0.311,0.072-0.617v-0.813h1.781v0.456c0,0.38-0.025,0.674-0.073,0.878
			c-0.047,0.204-0.16,0.421-0.337,0.653c-0.176,0.232-0.4,0.406-0.672,0.522c-0.271,0.116-0.61,0.175-1.02,0.175
			c-0.397,0-0.747-0.058-1.051-0.173c-0.306-0.114-0.54-0.271-0.71-0.472c-0.168-0.2-0.285-0.419-0.352-0.656
			c-0.064-0.241-0.095-0.59-0.095-1.049v-1.797c0-0.538,0.072-0.964,0.217-1.273c0.146-0.311,0.386-0.551,0.717-0.715
			c0.33-0.165,0.711-0.25,1.144-0.25c0.526,0,0.96,0.103,1.303,0.303c0.343,0.199,0.582,0.464,0.721,0.791
			c0.139,0.33,0.208,0.794,0.208,1.393V90.971z M117.236,89.968v-0.45c0-0.317-0.017-0.523-0.05-0.618
			c-0.035-0.093-0.105-0.14-0.21-0.14c-0.13,0-0.212,0.041-0.241,0.12c-0.031,0.078-0.047,0.291-0.047,0.638v0.45H117.236z"/>
		<path d="M121.534,90.168h-1.762v-0.414c0-0.475,0.056-0.843,0.166-1.101c0.107-0.259,0.33-0.485,0.662-0.684
			s0.763-0.301,1.292-0.301c0.634,0,1.114,0.114,1.437,0.338c0.322,0.228,0.516,0.502,0.581,0.825c0.064,0.328,0.098,1,0.098,2.019
			v3.09h-1.829v-0.549c-0.112,0.222-0.261,0.387-0.442,0.495c-0.182,0.111-0.397,0.167-0.649,0.167c-0.326,0-0.63-0.094-0.903-0.276
			c-0.274-0.184-0.411-0.589-0.411-1.209v-0.506c0-0.461,0.071-0.776,0.218-0.943c0.147-0.167,0.509-0.362,1.084-0.585
			c0.616-0.239,0.947-0.403,0.99-0.487c0.042-0.083,0.066-0.254,0.066-0.509c0-0.323-0.027-0.533-0.072-0.63
			c-0.05-0.099-0.128-0.148-0.242-0.148c-0.126,0-0.206,0.043-0.234,0.124c-0.033,0.082-0.048,0.295-0.048,0.638V90.168z
			 M122.131,91.012c-0.302,0.22-0.477,0.404-0.524,0.554c-0.049,0.147-0.072,0.361-0.072,0.64c0,0.319,0.021,0.524,0.063,0.62
			c0.042,0.09,0.123,0.139,0.248,0.139c0.117,0,0.193-0.039,0.23-0.111c0.034-0.071,0.055-0.264,0.055-0.57V91.012z"/>
		<path d="M129.063,87.782v4.742c0,0.643-0.015,1.057-0.045,1.242c-0.029,0.188-0.134,0.386-0.313,0.595
			c-0.18,0.208-0.432,0.367-0.749,0.479c-0.322,0.11-0.727,0.166-1.213,0.166c-0.599,0-1.078-0.102-1.441-0.307
			c-0.36-0.202-0.55-0.6-0.561-1.193h1.819c0,0.272,0.101,0.408,0.301,0.408c0.142,0,0.234-0.043,0.282-0.125
			c0.049-0.083,0.069-0.26,0.069-0.525v-0.466c-0.161,0.146-0.33,0.257-0.51,0.33c-0.177,0.074-0.364,0.113-0.56,0.113
			c-0.339,0-0.615-0.068-0.833-0.205c-0.219-0.135-0.367-0.315-0.448-0.535c-0.084-0.219-0.121-0.536-0.121-0.945v-2.237
			c0-0.585,0.103-1.005,0.314-1.263c0.211-0.257,0.532-0.387,0.962-0.387c0.237,0,0.45,0.051,0.645,0.145
			c0.195,0.099,0.365,0.242,0.516,0.435l0.138-0.466H129.063z M127.177,89.416c0-0.282-0.015-0.462-0.045-0.54
			c-0.034-0.075-0.106-0.116-0.216-0.116c-0.11,0-0.187,0.045-0.233,0.135c-0.044,0.088-0.066,0.261-0.066,0.521v2.07
			c0,0.276,0.017,0.454,0.053,0.537c0.031,0.081,0.103,0.122,0.214,0.122c0.124,0,0.203-0.049,0.242-0.149
			c0.035-0.098,0.052-0.322,0.052-0.673V89.416z"/>
		<path d="M134.183,87.782v6.158h-1.91l0.031-0.512c-0.13,0.21-0.29,0.365-0.481,0.469s-0.41,0.156-0.657,0.156
			c-0.282,0-0.516-0.05-0.701-0.15c-0.185-0.099-0.322-0.229-0.411-0.393c-0.089-0.164-0.144-0.335-0.165-0.516
			c-0.022-0.174-0.034-0.532-0.034-1.059v-4.154h1.879v4.191c0,0.479,0.014,0.762,0.044,0.855c0.029,0.089,0.109,0.135,0.239,0.135
			c0.14,0,0.223-0.049,0.25-0.139c0.024-0.096,0.038-0.394,0.038-0.898v-4.145H134.183z"/>
		<path d="M139.232,90.971h-2.431v1.333c0,0.277,0.019,0.459,0.062,0.538c0.039,0.08,0.115,0.122,0.231,0.122
			c0.142,0,0.237-0.055,0.285-0.164c0.049-0.104,0.072-0.311,0.072-0.617v-0.813h1.78v0.456c0,0.38-0.023,0.674-0.072,0.878
			s-0.159,0.421-0.337,0.653c-0.175,0.232-0.4,0.406-0.672,0.522c-0.272,0.116-0.61,0.175-1.02,0.175
			c-0.396,0-0.747-0.058-1.052-0.173c-0.302-0.114-0.54-0.271-0.708-0.472c-0.169-0.2-0.285-0.419-0.351-0.656
			c-0.064-0.241-0.1-0.59-0.1-1.049v-1.797c0-0.538,0.074-0.964,0.221-1.273c0.146-0.311,0.383-0.551,0.716-0.715
			c0.331-0.165,0.712-0.25,1.144-0.25c0.525,0,0.963,0.103,1.305,0.303c0.343,0.199,0.581,0.464,0.719,0.791
			c0.138,0.33,0.207,0.794,0.207,1.393V90.971z M137.35,89.968v-0.45c0-0.317-0.018-0.523-0.051-0.618
			c-0.032-0.093-0.104-0.14-0.21-0.14c-0.128,0-0.21,0.041-0.241,0.12c-0.031,0.078-0.046,0.291-0.046,0.638v0.45H137.35z"/>
		<path d="M143.831,89.75h-1.663v-0.334c0-0.284-0.016-0.464-0.051-0.542c-0.03-0.074-0.113-0.114-0.244-0.114
			c-0.104,0-0.184,0.037-0.236,0.106c-0.051,0.069-0.079,0.172-0.079,0.313c0,0.189,0.013,0.327,0.04,0.415
			c0.026,0.089,0.104,0.186,0.237,0.291c0.132,0.104,0.401,0.258,0.81,0.458c0.547,0.268,0.903,0.52,1.076,0.752
			c0.168,0.237,0.254,0.579,0.254,1.025c0,0.504-0.064,0.88-0.193,1.137c-0.13,0.256-0.35,0.453-0.654,0.59
			c-0.305,0.139-0.675,0.207-1.103,0.207c-0.479,0-0.888-0.074-1.226-0.225c-0.34-0.147-0.571-0.349-0.699-0.602
			s-0.19-0.639-0.19-1.152v-0.297h1.662v0.391c0,0.332,0.022,0.546,0.063,0.644c0.042,0.1,0.125,0.151,0.249,0.151
			c0.133,0,0.226-0.036,0.279-0.103s0.078-0.207,0.078-0.419c0-0.293-0.034-0.478-0.103-0.552c-0.071-0.074-0.435-0.294-1.091-0.66
			c-0.552-0.309-0.888-0.59-1.009-0.841c-0.122-0.254-0.183-0.553-0.183-0.9c0-0.492,0.065-0.853,0.195-1.088
			c0.131-0.23,0.351-0.413,0.663-0.541c0.311-0.127,0.674-0.191,1.086-0.191c0.408,0,0.757,0.054,1.043,0.158
			c0.286,0.103,0.507,0.239,0.659,0.412c0.154,0.167,0.246,0.326,0.28,0.472c0.031,0.146,0.048,0.373,0.048,0.682V89.75z"/>
	</g>
	<g>
		<polygon points="16.555,98.149 18.453,101.995 22.699,102.609 19.627,105.6 20.353,109.825 16.555,107.83 12.755,109.825
			13.48,105.6 10.408,102.609 14.654,101.995 		"/>
		<polygon points="36.856,98.149 38.756,101.995 43.002,102.609 39.93,105.6 40.655,109.825 36.856,107.83 33.058,109.825
			33.783,105.6 30.711,102.609 34.958,101.995 		"/>
		<polygon points="57.16,98.149 59.059,101.995 63.304,102.609 60.232,105.6 60.957,109.825 57.16,107.83 53.361,109.825
			54.085,105.6 51.013,102.609 55.26,101.995 		"/>
		<polygon points="77.461,98.149 79.361,101.995 83.607,102.609 80.535,105.6 81.26,109.825 77.461,107.83 73.663,109.825
			74.388,105.6 71.316,102.609 75.563,101.995 		"/>
		<polygon points="97.764,98.149 99.663,101.995 103.911,102.609 100.836,105.6 101.563,109.825 97.764,107.83 93.967,109.825
			94.689,105.6 91.618,102.609 95.866,101.995 		"/>
		<polygon points="118.065,98.149 119.965,101.995 124.213,102.609 121.14,105.6 121.865,109.825 118.065,107.83 114.268,109.825
			114.995,105.6 111.921,102.609 116.168,101.995 		"/>
		<polygon points="138.37,98.149 140.268,101.995 144.514,102.609 141.441,105.6 142.168,109.825 138.37,107.83 134.57,109.825
			135.297,105.6 132.223,102.609 136.47,101.995 		"/>
	</g>
</g>
</svg>
