<?xml version="1.0" encoding="utf-8"?>
<!-- Generator: Adobe Illustrator 16.0.3, SVG Export Plug-In . SVG Version: 6.00 Build 0)  -->
<!DOCTYPE svg PUBLIC "-//W3C//DTD SVG 1.1//EN" "http://www.w3.org/Graphics/SVG/1.1/DTD/svg11.dtd">
<svg version="1.1" locationTabxmlns="http://www.w3.org/2000/svg" xmlns:xlink="http://www.w3.org/1999/xlink" x="0px" y="0px"
	 viewBox="0 0 130 150" enable-background="new 0 0 130 150" xml:space="preserve">
<g>
	<path fill="#010101" d="M64.129,92.722c-9.286,0-16.844-7.555-16.844-16.842c0-9.288,7.558-16.843,16.844-16.843
		c9.287,0,16.844,7.555,16.844,16.843C80.973,85.167,73.416,92.722,64.129,92.722 M65.001,20.053
		c-30.347,0-54.946,24.6-54.946,54.946s24.6,54.945,54.946,54.945c30.345,0,54.945-24.6,54.945-54.945S95.346,20.053,65.001,20.053"
		/>
	<circle fill="none" stroke="#FFFFFF" stroke-miterlimit="10" cx="65" cy="74.999" r="55"/>
	<circle fill="none" stroke="#010101" stroke-width="7" stroke-miterlimit="10" cx="64.129" cy="75.879" r="36.417"/>
	<path fill="#F2F2F2" d="M45.073,25.632c0.587-0.197,1.242-0.272,1.85-0.123c0.552,0.137,0.884,0.419,0.998,0.821
		c0.113,0.401-0.021,0.807-0.39,1.221c-0.372,0.414-0.869,0.72-1.503,0.932c-0.625,0.208-1.205,0.261-1.761,0.154
		c-0.552-0.106-0.907-0.345-1.056-0.731c-0.15-0.386-0.051-0.811,0.313-1.257C43.921,26.164,44.487,25.829,45.073,25.632
		 M47.331,38.126c-1.081-2.817-2.164-5.632-3.245-8.449c1.409-0.527,2.827-1.001,4.271-1.426c0.858,3.008,1.716,6.017,2.574,9.027
		c0.228,0.789,0.057,1.621-0.392,2.3c-0.639,0.968-1.795,1.554-2.817,1.988c-0.556,0.236-1.114,0.424-1.65,0.573
		c-0.537,0.148-0.866,0.239-0.985,0.252c-0.452-0.596-0.908-1.188-1.367-1.777c0.212-0.015,0.564-0.073,1.054-0.165
		c0.491-0.092,1.065-0.256,1.626-0.524c0.529-0.252,0.878-0.535,1.006-0.765C47.531,38.932,47.507,38.587,47.331,38.126"/>
	<path fill="#F2F2F2" d="M52.271,36.145c-0.684-2.796-1.367-5.59-2.05-8.387c1.452-0.342,2.909-0.63,4.381-0.867
		c0.056,0.358,0.082,0.538,0.137,0.895c0.01-0.01,0.067-0.082,0.174-0.215c0.106-0.132,0.27-0.277,0.491-0.428
		c0.223-0.152,0.527-0.297,0.915-0.433c0.438-0.153,0.954-0.259,1.54-0.311c0.545-0.048,0.958-0.049,1.236-0.016
		c0.191,0.628,0.378,1.258,0.559,1.889c-0.631-0.123-1.276-0.155-1.917-0.095c-0.564,0.051-1.039,0.188-1.401,0.361
		c-0.702,0.331-1.34,0.995-1.2,1.837c0.257,1.683,0.513,3.365,0.77,5.049C54.683,35.623,53.476,35.862,52.271,36.145"/>
	<path fill="#F2F2F2" d="M67.504,33.001c0.166-1.382,0.33-2.765,0.495-4.147c0.005-0.038-0.175-0.147-0.55-0.324
		c-0.374-0.175-0.785-0.297-1.223-0.351c-0.631-0.076-1.354,0.037-1.828,0.459c-0.491,0.441-0.62,1.222-0.64,1.866
		c-0.021,0.708,0.002,1.591,0.442,2.177c0.31,0.41,0.861,0.644,1.602,0.696c0.372,0.026,0.719-0.017,1.034-0.12
		C67.151,33.155,67.374,33.071,67.504,33.001 M73.369,24.014c-0.827,3.941-1.653,7.884-2.481,11.825
		c-1.213-0.243-2.424-0.442-3.649-0.6c0.023-0.196,0.034-0.293,0.057-0.49c-0.176,0.098-0.485,0.209-0.924,0.342
		c-0.438,0.132-0.952,0.175-1.54,0.141c-0.665-0.039-1.339-0.172-1.947-0.432c-0.682-0.293-1.106-0.816-1.479-1.398
		c-0.521-0.812-0.657-1.931-0.69-2.921c-0.093-2.796,1.896-4.388,4.533-4.24c0.659,0.036,1.346,0.108,2.001,0.275
		c0.486,0.122,0.817,0.232,0.994,0.309c0.143-1.194,0.285-2.389,0.428-3.582C70.248,23.442,71.811,23.699,73.369,24.014"/>
	<path fill="#F2F2F2" d="M77.208,35.868c0.532,0.09,0.958,0.053,1.242-0.101c0.285-0.153,0.453-0.284,0.499-0.398l0.492-1.227
		c-0.021,0.009-0.089,0.039-0.204,0.089c-0.113,0.049-0.313,0.072-0.598,0.072c-0.285-0.001-0.682-0.058-1.177-0.165
		c-0.619-0.135-1.09-0.158-1.4-0.073c-0.311,0.086-0.556,0.336-0.635,0.683c-0.084,0.361,0.251,0.697,0.93,0.929
		C76.514,35.729,76.804,35.8,77.208,35.868 M77.898,37.988c0.131-0.327,0.195-0.49,0.326-0.816c-0.132,0.12-0.442,0.225-0.903,0.299
		c-0.665,0.106-1.396-0.091-2.033-0.291c-0.787-0.248-1.523-0.684-2.099-1.276c-0.526-0.544-0.748-1.308-0.584-2.047
		c0.174-0.77,0.705-1.422,1.495-1.606c1.133-0.267,2.298-0.072,3.41,0.146c0.627,0.125,1.256,0.279,1.895,0.23
		c0.46-0.036,0.749-0.174,0.84-0.401c0.084-0.211-0.011-0.466-0.296-0.76c-0.284-0.293-0.705-0.554-1.242-0.736
		c-0.987-0.333-2.033-0.63-3.099-0.553c-0.796,0.058-1.331,0.167-1.605,0.29c0.397-0.595,0.801-1.186,1.208-1.772
		c0.007-0.029,0.219-0.058,0.642-0.081c0.42-0.021,0.997,0.011,1.719,0.118c0.849,0.126,1.694,0.364,2.482,0.671
		c1.338,0.522,2.832,1.195,3.71,2.407c0.471,0.653,0.73,1.525,0.345,2.284c-0.922,1.81-1.845,3.621-2.767,5.431
		C80.209,38.972,79.065,38.463,77.898,37.988"/>
	<path fill="#F2F2F2" d="M44.013,120.531c-0.025,0.05-0.255,0.038-0.689-0.034c-0.434-0.072-0.923-0.239-1.467-0.503
		c-1.251-0.645-1.964-1.406-2.138-2.285c-0.175-0.878,0.077-1.977,0.759-3.299c0.391-0.696,0.812-1.238,1.26-1.62
		c0.447-0.383,0.968-0.595,1.557-0.631c0.592-0.038,1.272,0.136,2.041,0.518c0.457,0.236,0.849,0.482,1.179,0.738
		c0.328,0.256,0.56,0.448,0.691,0.575l-0.308,1.359c-0.087-0.16-0.267-0.396-0.542-0.711s-0.658-0.598-1.144-0.849
		c-0.671-0.346-1.238-0.347-1.705-0.004c-0.466,0.344-0.876,0.859-1.231,1.551c-0.275,0.533-0.487,1.019-0.633,1.457
		c-0.149,0.438-0.192,0.856-0.131,1.254c0.062,0.399,0.289,0.715,0.683,0.948c0.477,0.246,0.896,0.406,1.26,0.482
		c0.362,0.076,0.659,0.103,0.887,0.079c0.208-0.018,0.314-0.033,0.32-0.042l-0.005-0.001L44.013,120.531z"/>
	<path fill="#F2F2F2" d="M47.249,119.171c-0.147,0.472-0.246,0.834-0.297,1.088c-0.048,0.251-0.028,0.504,0.06,0.754
		c0.089,0.25,0.297,0.435,0.627,0.552c0.459,0.164,0.81,0.097,1.051-0.204c0.244-0.299,0.477-0.764,0.7-1.39
		c0.22-0.618,0.332-1.127,0.338-1.529c0.006-0.4-0.219-0.683-0.676-0.847c-0.475-0.154-0.841-0.082-1.096,0.216
		C47.7,118.108,47.465,118.563,47.249,119.171 M49.299,116.85c0.637,0.226,1.108,0.509,1.419,0.846
		c0.308,0.339,0.474,0.735,0.499,1.19c0.024,0.455-0.071,0.988-0.288,1.597c-0.339,0.953-0.794,1.577-1.363,1.873
		c-0.568,0.296-1.318,0.277-2.25-0.054c-0.878-0.323-1.449-0.775-1.713-1.36c-0.263-0.585-0.226-1.352,0.111-2.299
		C46.377,116.833,47.572,116.235,49.299,116.85"/>
	<path fill="#F2F2F2" d="M56.847,120.248l-0.941,4.282l-1.192-0.263l0.896-4.079c0.103-0.468-0.21-0.781-0.936-0.941
		c-0.362-0.037-0.641,0.017-0.834,0.157c-0.192,0.142-0.315,0.265-0.371,0.367l-0.884,4.028l-1.601-0.352l1.223-5.568l1.601,0.352
		l-0.099,0.453c0.025-0.008,0.111-0.041,0.257-0.098c0.148-0.055,0.35-0.094,0.602-0.112c0.253-0.017,0.535,0.008,0.849,0.076
		c0.59,0.13,0.996,0.357,1.216,0.684C56.852,119.562,56.924,119.899,56.847,120.248"/>
	<path fill="#F2F2F2" d="M57.895,124.765l0.563-4.949l-1.092-0.125l0.082-0.714l1.09,0.123l0.04-0.34
		c0.071-0.626,0.353-1.093,0.844-1.402c0.427-0.25,1.112-0.324,2.061-0.215l-0.106,0.938c-0.381-0.043-0.669,0.003-0.86,0.142
		c-0.192,0.16-0.307,0.4-0.344,0.719l-0.039,0.34l1.092,0.124l-0.082,0.716l-1.09-0.126l-0.563,4.95L57.895,124.765z"/>
	<path fill="#F2F2F2" d="M62.392,117.132c0.289,0.015,0.511,0.112,0.666,0.299c0.154,0.186,0.225,0.402,0.215,0.65
		c-0.013,0.253-0.105,0.467-0.28,0.64s-0.408,0.253-0.703,0.239c-0.284-0.015-0.506-0.115-0.663-0.306
		c-0.159-0.189-0.232-0.404-0.221-0.645c0.012-0.244,0.104-0.455,0.281-0.633C61.862,117.2,62.098,117.117,62.392,117.132
		 M61.194,125.08l0.269-5.694l1.621,0.075l-0.271,5.694L61.194,125.08z"/>
	<path fill="#F2F2F2" d="M67.386,123.879l-0.14-3.453c-0.001-0.032-0.091-0.087-0.27-0.161c-0.18-0.073-0.425-0.115-0.738-0.124
		c-0.572,0.023-0.948,0.209-1.132,0.557c-0.182,0.35-0.26,0.844-0.233,1.485c0.021,0.509,0.083,0.927,0.188,1.253
		s0.271,0.57,0.495,0.729c0.226,0.159,0.521,0.231,0.888,0.216c0.265-0.035,0.489-0.117,0.671-0.246
		C67.297,124.007,67.388,123.921,67.386,123.879 M68.733,117.057l0.322,7.973l-1.62,0.064l-0.016-0.342
		c-0.056,0.064-0.189,0.147-0.397,0.25c-0.209,0.104-0.508,0.164-0.896,0.18c-0.447,0.012-0.851-0.048-1.212-0.181
		c-0.361-0.13-0.668-0.414-0.92-0.847c-0.252-0.435-0.394-1.068-0.428-1.904c-0.031-1.11,0.156-1.852,0.56-2.227
		c0.404-0.373,0.929-0.572,1.575-0.598c0.61-0.025,1.114,0.052,1.515,0.227l-0.103-2.529L68.733,117.057z"/>
	<path fill="#F2F2F2" d="M72.162,119.509c-0.777,0.154-1.075,0.774-0.897,1.863l2.494-0.411
		C73.577,119.848,73.044,119.364,72.162,119.509 M71.389,122.119c0.072,0.293,0.238,0.649,0.496,1.075
		c0.256,0.423,0.626,0.605,1.111,0.55c0.588-0.098,1.036-0.248,1.346-0.449c0.31-0.203,0.506-0.359,0.591-0.476l-0.083,1.019
		c0.009,0.057-0.146,0.16-0.463,0.309c-0.317,0.151-0.733,0.269-1.249,0.354c-0.204,0.033-0.364,0.054-0.48,0.062
		c-0.845,0.077-1.495-0.057-1.95-0.405c-0.455-0.347-0.762-0.975-0.92-1.88c-0.171-1.039-0.075-1.838,0.285-2.394
		c0.361-0.558,0.968-0.909,1.817-1.057c1.022-0.169,1.757-0.019,2.208,0.448c0.384,0.388,0.636,0.953,0.76,1.697
		c0.021,0.14,0.037,0.259,0.045,0.358c0.009,0.1,0.012,0.169,0.013,0.208L71.389,122.119z"/>
	<path fill="#F2F2F2" d="M79.923,118.215l1.232,4.209l-1.171,0.342l-1.174-4.006c-0.135-0.461-0.559-0.586-1.272-0.377
		c-0.336,0.142-0.556,0.321-0.657,0.537c-0.099,0.218-0.148,0.384-0.147,0.499l1.16,3.959l-1.574,0.462l-1.601-5.474l1.572-0.458
		l0.129,0.444c0.02-0.02,0.079-0.09,0.182-0.208c0.103-0.122,0.259-0.25,0.471-0.387c0.213-0.14,0.474-0.254,0.782-0.342
		c0.579-0.172,1.044-0.166,1.396,0.016C79.599,117.611,79.824,117.873,79.923,118.215"/>
	<path fill="#F2F2F2" d="M82.579,116.468l1.253,3.059c0.125,0.304,0.306,0.483,0.541,0.536c0.174,0.05,0.442-0.001,0.809-0.149
		l0.306,0.746c-0.029,0.015-0.086,0.041-0.166,0.076c-0.081,0.04-0.176,0.082-0.279,0.124c-0.692,0.284-1.244,0.375-1.66,0.273
		c-0.48-0.097-0.846-0.448-1.094-1.052l-1.227-2.992l-1.016,0.415l-0.273-0.665l1.017-0.416l-0.864-2.107l1.518-0.621l0.863,2.108
		l1.02-0.418l0.272,0.664L82.579,116.468z"/>
	<path fill="#F1583E" d="M24.194,92.45c0.595-0.293,0.76-0.785,0.495-1.478l-0.601-1.564l-2.173,0.833l0.579,1.515
		C22.795,92.538,23.362,92.77,24.194,92.45 M19.127,93.199c0.308,0.802,0.893,1.038,1.754,0.708c0.386-0.147,0.636-0.38,0.753-0.697
		s0.106-0.655-0.031-1.016l-0.612-1.598l-2.494,0.956L19.127,93.199z M25.692,90.813c0.565,1.475,0.257,2.44-0.926,2.894
		c-0.706,0.271-1.249,0.248-1.632-0.068c-0.385-0.317-0.626-0.608-0.729-0.877c0.363,1.305,0.008,2.164-1.066,2.575
		c-0.836,0.305-1.488,0.293-1.956-0.037c-0.471-0.329-0.845-0.855-1.123-1.582l-1.355-3.533l7.45-2.856L25.692,90.813z"/>
	<path fill="#F1583E" d="M22.96,97.081c-0.421,0.255-0.733,0.461-0.938,0.615c-0.203,0.156-0.355,0.355-0.454,0.602
		c-0.099,0.244-0.063,0.518,0.106,0.818c0.238,0.424,0.546,0.602,0.926,0.538c0.381-0.065,0.86-0.259,1.441-0.58
		c0.574-0.314,0.994-0.62,1.264-0.914c0.27-0.296,0.286-0.654,0.051-1.073c-0.255-0.425-0.577-0.611-0.965-0.556
		C24.003,96.586,23.525,96.77,22.96,97.081 M26.035,96.693c0.328,0.585,0.496,1.104,0.505,1.557
		c0.011,0.454-0.127,0.858-0.408,1.212c-0.282,0.356-0.706,0.689-1.271,1.002c-0.884,0.487-1.638,0.654-2.259,0.503
		c-0.624-0.153-1.175-0.654-1.655-1.51c-0.448-0.815-0.578-1.526-0.39-2.133c0.188-0.607,0.721-1.153,1.6-1.64
		C23.852,94.771,25.143,95.106,26.035,96.693"/>

		<rect x="22.689" y="100.266" transform="matrix(-0.8267 0.5627 -0.5627 -0.8267 105.6012 169.6077)" fill="#F1583E" width="7.979" height="1.604"/>
	<path fill="#F1583E" d="M27.651,106.918l2.671-2.194c0.025-0.021,0.015-0.126-0.036-0.313c-0.049-0.187-0.164-0.408-0.344-0.663
		c-0.364-0.444-0.74-0.634-1.128-0.566c-0.389,0.064-0.831,0.301-1.326,0.708c-0.394,0.323-0.689,0.626-0.886,0.906
		c-0.195,0.282-0.289,0.56-0.281,0.835s0.129,0.556,0.36,0.837c0.189,0.192,0.391,0.321,0.603,0.388
		C27.497,106.923,27.619,106.944,27.651,106.918 M33.906,103.877l-6.165,5.066l-1.029-1.253l0.265-0.218
		c-0.086-0.007-0.232-0.063-0.44-0.167c-0.208-0.104-0.436-0.307-0.683-0.607c-0.279-0.346-0.475-0.705-0.587-1.073
		c-0.113-0.368-0.073-0.783,0.12-1.245c0.194-0.463,0.615-0.959,1.26-1.488c0.867-0.696,1.572-0.994,2.114-0.898
		c0.54,0.098,1.016,0.396,1.428,0.897c0.388,0.47,0.631,0.918,0.731,1.342l1.958-1.608L33.906,103.877z"/>
	<path fill="#5350A2" d="M100.197,110.203c-0.642,0.688-1.228,1.108-1.76,1.263c-0.533,0.155-0.989,0.147-1.372-0.026
		c-0.383-0.173-0.757-0.429-1.122-0.771l-3.878-3.626l1.282-1.375l3.866,3.613c0.012,0.012,0.043,0.043,0.096,0.102
		c0.054,0.057,0.102,0.105,0.144,0.146c0.685,0.639,1.388,0.571,2.111-0.202c0.666-0.712,0.666-1.381-0.003-2.006
		c-0.054-0.049-0.116-0.104-0.191-0.167s-0.118-0.1-0.132-0.111l-3.829-3.578l1.058-1.132l3.829,3.578l0.275,0.258
		C101.781,107.297,101.657,108.644,100.197,110.203"/>
	<path fill="#5350A2" d="M102.487,99.938l3.598,2.507l-0.698,1.002l-3.426-2.386c-0.393-0.274-0.803-0.107-1.228,0.503
		c-0.174,0.322-0.231,0.599-0.174,0.831c0.058,0.231,0.123,0.392,0.197,0.482l3.385,2.358l-0.938,1.345l-4.678-3.26l0.938-1.346
		l0.38,0.268c0.002-0.027,0.005-0.121,0.01-0.276c0.005-0.159,0.046-0.357,0.126-0.598c0.079-0.241,0.21-0.493,0.392-0.757
		c0.346-0.494,0.713-0.782,1.099-0.86C101.855,99.672,102.195,99.735,102.487,99.938"/>
	<path fill="#5350A2" d="M106.601,101.492l-4.944-2.841l0.807-1.406l4.945,2.84L106.601,101.492z M100.076,96.797
		c0.145-0.251,0.335-0.403,0.569-0.455c0.237-0.055,0.462-0.018,0.677,0.106c0.22,0.126,0.366,0.306,0.441,0.539
		c0.074,0.235,0.037,0.48-0.108,0.736c-0.142,0.246-0.333,0.396-0.575,0.451c-0.241,0.054-0.467,0.021-0.674-0.1
		c-0.213-0.121-0.357-0.3-0.436-0.538C99.894,97.299,99.928,97.052,100.076,96.797"/>
	<path fill="#5350A2" d="M104.476,94.866l2.971,1.451c0.295,0.144,0.55,0.157,0.764,0.04c0.16-0.078,0.327-0.294,0.501-0.649
		l0.726,0.355c-0.014,0.031-0.038,0.087-0.073,0.167c-0.034,0.084-0.077,0.177-0.126,0.279c-0.328,0.67-0.682,1.105-1.058,1.307
		c-0.425,0.246-0.931,0.227-1.515-0.059l-2.909-1.42l-0.481,0.987l-0.646-0.316l0.482-0.986l-2.046-1l0.72-1.472l2.045,0.999
		l0.485-0.989l0.646,0.315L104.476,94.866z"/>
	<path fill="#5350A2" d="M105.975,91.146c-0.252,0.75,0.142,1.315,1.176,1.696l0.877-2.364
		C106.968,90.088,106.284,90.31,105.975,91.146 M107.86,93.104c0.29,0.081,0.685,0.114,1.18,0.102
		c0.495-0.016,0.838-0.246,1.027-0.694c0.207-0.559,0.3-1.021,0.276-1.389c-0.023-0.366-0.064-0.616-0.122-0.747l0.843,0.574
		c0.055,0.021,0.069,0.205,0.043,0.555c-0.028,0.349-0.132,0.768-0.313,1.255c-0.069,0.194-0.133,0.344-0.183,0.449
		c-0.352,0.771-0.789,1.267-1.316,1.491c-0.526,0.224-1.224,0.181-2.089-0.129c-0.988-0.365-1.635-0.841-1.939-1.429
		c-0.306-0.587-0.312-1.287-0.021-2.097c0.358-0.969,0.853-1.534,1.482-1.693c0.524-0.142,1.14-0.083,1.849,0.179
		c0.134,0.049,0.246,0.096,0.336,0.137c0.089,0.042,0.151,0.073,0.187,0.092L107.86,93.104z"/>
	<path fill="#5350A2" d="M111.439,85.909l-3.362-0.798c-0.033-0.007-0.108,0.064-0.228,0.218c-0.119,0.152-0.226,0.379-0.319,0.677
		c-0.133,0.559-0.054,0.971,0.231,1.24c0.287,0.269,0.743,0.479,1.367,0.626c0.495,0.116,0.915,0.17,1.258,0.155
		c0.342-0.015,0.62-0.106,0.836-0.28c0.214-0.175,0.362-0.44,0.448-0.796c0.037-0.265,0.018-0.503-0.058-0.714
		C111.539,86.028,111.48,85.918,111.439,85.909 M105.234,82.772l7.765,1.839l-0.375,1.577l-0.333-0.078
		c0.045,0.071,0.09,0.222,0.134,0.452c0.043,0.228,0.02,0.53-0.07,0.909c-0.107,0.433-0.274,0.805-0.498,1.117
		c-0.225,0.313-0.58,0.533-1.065,0.658c-0.485,0.126-1.134,0.092-1.947-0.1c-1.078-0.271-1.743-0.649-1.993-1.14
		c-0.25-0.489-0.302-1.049-0.152-1.678c0.14-0.594,0.35-1.06,0.627-1.396l-2.465-0.585L105.234,82.772z"/>
	<path fill="#F2F2F2" d="M19.946,83.957c0,0-0.071-0.215-0.204-0.617c-0.064-0.202-0.148-0.447-0.229-0.746
		c-0.084-0.297-0.187-0.637-0.281-1.021c-0.048-0.193-0.1-0.396-0.149-0.609c-0.025-0.107-0.051-0.217-0.078-0.328
		c-0.024-0.11-0.047-0.227-0.073-0.344c-0.05-0.234-0.102-0.479-0.151-0.732s-0.093-0.521-0.143-0.792
		c-0.024-0.138-0.049-0.276-0.073-0.418c-0.021-0.142-0.04-0.285-0.062-0.431c-0.041-0.291-0.086-0.593-0.124-0.903
		c-0.036-0.31-0.069-0.628-0.104-0.955c-0.031-0.324-0.054-0.66-0.083-1.002c-0.006-0.086-0.013-0.172-0.02-0.259l-0.002-0.032
		l-0.002-0.016c-0.001,0.007-0.001-0.029-0.001-0.03l-0.003-0.065l-0.006-0.128c-0.007-0.171-0.014-0.346-0.021-0.521
		c-0.008-0.176-0.016-0.352-0.022-0.53c-0.007-0.179-0.018-0.357-0.015-0.546c-0.003-0.374-0.001-0.753,0.001-1.143
		c0-0.095,0.001-0.193,0.001-0.291c0.004-0.096,0.008-0.193,0.012-0.291c0.007-0.194,0.015-0.39,0.022-0.587
		c0.008-0.198,0.017-0.396,0.024-0.596c0.009-0.2,0.03-0.4,0.044-0.603c0.018-0.202,0.034-0.405,0.051-0.611
		c0.009-0.103,0.018-0.204,0.025-0.307c0.01-0.104,0.017-0.208,0.031-0.31c0.046-0.413,0.097-0.83,0.148-1.25
		c0.023-0.212,0.063-0.421,0.095-0.634c0.035-0.211,0.068-0.422,0.104-0.637c0.291-1.704,0.698-3.45,1.235-5.19
		c0.141-0.433,0.284-0.867,0.427-1.303c0.152-0.431,0.315-0.861,0.475-1.294c0.336-0.857,0.692-1.711,1.086-2.55
		c0.781-1.676,1.677-3.301,2.656-4.834c0.124-0.19,0.249-0.38,0.373-0.569c0.127-0.188,0.244-0.381,0.377-0.563
		c0.262-0.368,0.521-0.732,0.779-1.096c0.271-0.354,0.54-0.704,0.809-1.053c0.132-0.177,0.274-0.342,0.414-0.51
		c0.14-0.167,0.277-0.335,0.415-0.5c1.117-1.32,2.283-2.52,3.438-3.597c0.592-0.524,1.156-1.042,1.736-1.504
		c0.289-0.234,0.568-0.468,0.855-0.681c0.284-0.216,0.561-0.431,0.837-0.635c0.279-0.201,0.556-0.392,0.824-0.58
		c0.135-0.094,0.267-0.188,0.397-0.278c0.131-0.092,0.269-0.174,0.397-0.258c0.264-0.169,0.52-0.333,0.769-0.492
		c0.063-0.039,0.124-0.078,0.186-0.117c0.063-0.037,0.125-0.073,0.187-0.111c0.124-0.071,0.245-0.143,0.366-0.212
		c0.238-0.139,0.472-0.274,0.695-0.405c0.226-0.126,0.448-0.24,0.66-0.353c0.211-0.111,0.415-0.217,0.609-0.32
		c0.096-0.053,0.193-0.098,0.287-0.144s0.188-0.088,0.277-0.131c0.357-0.17,0.677-0.324,0.958-0.448
		c0.283-0.121,0.525-0.222,0.722-0.303c0.393-0.159,0.602-0.244,0.602-0.244s-0.182,0.135-0.522,0.388
		c-0.171,0.125-0.382,0.277-0.63,0.455c-0.243,0.183-0.522,0.395-0.837,0.632c-0.154,0.12-0.322,0.239-0.49,0.374
		c-0.171,0.134-0.348,0.275-0.532,0.421c-0.185,0.145-0.377,0.297-0.576,0.456c-0.194,0.161-0.396,0.33-0.604,0.504
		c-0.104,0.086-0.21,0.175-0.317,0.264c-0.054,0.044-0.107,0.09-0.163,0.133c-0.054,0.047-0.105,0.094-0.161,0.142
		c-0.215,0.189-0.437,0.385-0.664,0.584c-0.113,0.101-0.229,0.199-0.345,0.304c-0.115,0.105-0.23,0.212-0.346,0.32
		c-0.233,0.217-0.475,0.434-0.714,0.661c-0.471,0.468-0.978,0.933-1.464,1.453c-0.124,0.128-0.248,0.257-0.375,0.385
		c-0.063,0.065-0.128,0.129-0.191,0.194c-0.061,0.068-0.122,0.135-0.184,0.202c-0.248,0.271-0.501,0.544-0.757,0.821
		c-1.003,1.125-2.01,2.352-2.99,3.661c-0.12,0.166-0.242,0.331-0.364,0.498c-0.12,0.167-0.249,0.33-0.364,0.502
		c-0.235,0.342-0.474,0.685-0.712,1.032c-0.229,0.352-0.46,0.706-0.691,1.062c-0.119,0.175-0.225,0.36-0.338,0.542
		c-0.11,0.182-0.222,0.364-0.333,0.547c-0.881,1.469-1.699,3.003-2.432,4.58c-0.733,1.576-1.392,3.187-1.941,4.808
		c-0.553,1.622-1.012,3.247-1.388,4.838c-0.044,0.2-0.09,0.397-0.136,0.597c-0.045,0.196-0.094,0.393-0.129,0.591
		c-0.076,0.395-0.155,0.785-0.233,1.171c-0.021,0.097-0.037,0.195-0.051,0.291c-0.019,0.097-0.032,0.194-0.05,0.29
		c-0.031,0.193-0.063,0.385-0.094,0.576c-0.03,0.189-0.068,0.379-0.092,0.568c-0.026,0.189-0.052,0.376-0.077,0.563
		c-0.025,0.187-0.051,0.372-0.077,0.557c-0.014,0.091-0.025,0.183-0.038,0.274c-0.01,0.091-0.021,0.181-0.028,0.271
		c-0.038,0.36-0.075,0.717-0.115,1.066c-0.023,0.174-0.034,0.354-0.048,0.533c-0.015,0.177-0.028,0.354-0.04,0.529
		c-0.015,0.174-0.027,0.348-0.041,0.519c-0.006,0.081-0.012,0.161-0.018,0.241c-0.005,0.084-0.01,0.167-0.014,0.25
		c-0.084,1.321-0.102,2.541-0.097,3.624c0.003,0.272,0,0.534,0.006,0.787c0.009,0.255,0.015,0.498,0.02,0.733
		c0.004,0.118,0.006,0.234,0.01,0.347c0.006,0.113,0.011,0.224,0.015,0.331c0.013,0.217,0.019,0.422,0.027,0.618
		c0.045,0.78,0.08,1.399,0.117,1.821C19.93,83.732,19.946,83.957,19.946,83.957"/>
	<path fill="#F2F2F2" d="M107.913,80.38c0,0-0.005-0.204-0.014-0.586c-0.003-0.19-0.007-0.427-0.007-0.703
		c0-0.069,0-0.142-0.001-0.216c-0.003-0.075-0.004-0.15-0.008-0.23c-0.005-0.157-0.01-0.325-0.016-0.5
		c-0.013-0.354-0.013-0.743-0.042-1.167c-0.011-0.214-0.022-0.435-0.031-0.662c-0.006-0.114-0.012-0.23-0.016-0.35
		c-0.005-0.117-0.019-0.238-0.025-0.359c-0.021-0.245-0.039-0.497-0.056-0.755c-0.009-0.129-0.019-0.26-0.027-0.393
		c-0.014-0.13-0.026-0.263-0.039-0.397c-0.06-0.549-0.097-1.141-0.182-1.721c-0.039-0.294-0.071-0.594-0.107-0.9
		c-0.047-0.307-0.095-0.618-0.142-0.936c-0.023-0.159-0.049-0.318-0.071-0.481c-0.027-0.16-0.056-0.322-0.084-0.484
		c-0.057-0.325-0.115-0.656-0.174-0.991c-0.262-1.334-0.576-2.729-0.959-4.154c-0.395-1.421-0.858-2.871-1.391-4.32
		c-0.141-0.361-0.27-0.727-0.413-1.087c-0.149-0.359-0.298-0.719-0.442-1.082c-0.313-0.714-0.623-1.434-0.968-2.137
		c-0.677-1.413-1.419-2.796-2.205-4.124c-0.793-1.325-1.636-2.594-2.496-3.793c-0.108-0.149-0.216-0.297-0.323-0.445
		c-0.107-0.149-0.213-0.298-0.325-0.439c-0.222-0.287-0.439-0.574-0.655-0.857c-0.447-0.553-0.878-1.104-1.322-1.617
		c-0.108-0.131-0.218-0.261-0.326-0.388c-0.055-0.063-0.108-0.129-0.162-0.191c-0.056-0.063-0.111-0.124-0.166-0.186
		c-0.221-0.246-0.44-0.486-0.651-0.729c-0.214-0.238-0.435-0.464-0.645-0.692c-0.105-0.113-0.211-0.225-0.314-0.336
		c-0.053-0.056-0.105-0.11-0.159-0.164c-0.053-0.053-0.105-0.106-0.158-0.16c-0.209-0.214-0.412-0.423-0.613-0.628
		c-0.099-0.104-0.203-0.2-0.303-0.297c-0.101-0.097-0.201-0.193-0.299-0.288c-0.194-0.19-0.383-0.38-0.572-0.557
		c-0.191-0.175-0.377-0.345-0.556-0.513c-0.088-0.083-0.177-0.166-0.263-0.247c-0.043-0.04-0.087-0.081-0.13-0.121
		c-0.043-0.038-0.086-0.076-0.128-0.114c-0.174-0.15-0.34-0.297-0.497-0.438c-0.158-0.142-0.311-0.28-0.457-0.408
		c-0.148-0.125-0.29-0.246-0.425-0.36c-0.135-0.117-0.262-0.225-0.381-0.328c-0.121-0.102-0.23-0.203-0.34-0.289
		c-0.212-0.173-0.394-0.323-0.54-0.445c-0.293-0.248-0.449-0.38-0.449-0.38s0.047,0.022,0.138,0.062
		c0.089,0.041,0.225,0.1,0.397,0.18c0.174,0.081,0.389,0.178,0.64,0.299c0.253,0.118,0.532,0.271,0.851,0.436
		c0.159,0.084,0.327,0.169,0.501,0.264c0.174,0.098,0.351,0.202,0.539,0.311c0.375,0.213,0.779,0.451,1.201,0.723
		c0.211,0.133,0.429,0.273,0.651,0.418c0.223,0.146,0.445,0.306,0.678,0.463c0.117,0.081,0.233,0.163,0.353,0.247
		c0.116,0.083,0.237,0.166,0.354,0.256c0.237,0.178,0.479,0.36,0.726,0.546c0.252,0.184,0.492,0.387,0.742,0.591
		c0.248,0.207,0.507,0.409,0.76,0.628c0.502,0.44,1.021,0.899,1.534,1.395c0.13,0.122,0.259,0.247,0.39,0.372
		c0.132,0.123,0.254,0.256,0.383,0.386c0.255,0.262,0.515,0.526,0.771,0.799c0.253,0.277,0.507,0.558,0.762,0.843
		c0.129,0.142,0.254,0.288,0.377,0.436s0.249,0.297,0.375,0.448c0.992,1.201,1.954,2.5,2.84,3.88
		c0.883,1.385,1.695,2.845,2.418,4.349l0.266,0.566l0.131,0.283l0.125,0.288c0.082,0.191,0.163,0.383,0.246,0.574
		c0.079,0.192,0.165,0.381,0.24,0.575c0.151,0.389,0.301,0.774,0.447,1.161c0.037,0.096,0.072,0.193,0.104,0.292l0.103,0.292
		c0.066,0.195,0.132,0.388,0.198,0.583c0.518,1.557,0.929,3.121,1.242,4.648c0.301,1.531,0.504,3.023,0.626,4.443
		c0.023,0.355,0.045,0.706,0.067,1.051c0.011,0.172,0.021,0.344,0.032,0.514c0.006,0.169,0.007,0.338,0.011,0.506
		c0.006,0.333,0.013,0.662,0.019,0.983c-0.003,0.325-0.008,0.645-0.015,0.957c-0.009,0.312-0.011,0.62-0.033,0.907
		c-0.017,0.291-0.031,0.574-0.052,0.851c-0.011,0.142-0.02,0.282-0.029,0.422c-0.015,0.136-0.025,0.271-0.04,0.403
		c-0.027,0.266-0.052,0.521-0.08,0.771c-0.016,0.124-0.025,0.246-0.042,0.365c-0.018,0.122-0.034,0.238-0.052,0.354
		c-0.031,0.232-0.065,0.455-0.099,0.667c-0.06,0.428-0.14,0.821-0.209,1.173c-0.129,0.706-0.27,1.245-0.362,1.618
		C107.963,80.184,107.913,80.38,107.913,80.38"/>
	<path fill="#FFFFFF" d="M78.991,38.414l-0.894-0.389c0,0,0.224-0.252,0.359-0.439c0.137-0.186,1.225-0.755,1.225-0.755l0.281,0.123
		L78.991,38.414z M77.443,40.94l-0.779-2.576l-0.211-0.092l0.255-0.584c-0.006-0.014-0.001-0.024,0.012-0.029
		c0.148-0.057,1.299,0.339,1.374,0.365l-1.374-0.365l-0.012,0.029c0.022,0.053,0.183,0.165,0.564,0.372
		c1.65,0.896,0.996,2.78,0.996,2.78L77.443,40.94z M80.902,37.363c0,0,0.479-0.14,0.961-0.282c0.061-0.017,0.119-0.035,0.179-0.053
		c0.464-0.098,0.819-0.344,0.776-0.786c-0.009-0.088-0.033-0.185-0.076-0.289c-0.21-0.77-0.476-1.5-0.938-2.168
		c-0.046-0.069-0.096-0.135-0.146-0.2s-0.105-0.128-0.16-0.19c-0.496-0.668-1.159-0.935-1.793-1.264
		c-0.068-0.033-0.14-0.065-0.21-0.094c-0.352-0.147-0.719-0.255-1.086-0.334c-0.089-0.022-0.18-0.043-0.271-0.063
		c-0.091-0.021-0.183-0.041-0.277-0.059c-0.083-0.016-0.166-0.032-0.248-0.044c-0.582-0.098-1.188-0.114-1.793-0.06
		c-0.067,0.006-0.133,0.013-0.201,0.022c-0.066,0.008-0.134,0.018-0.202,0.03c-0.065,0.004-0.134,0.007-0.202,0.014
		c-0.551,0.177-1.14,0.393-1.617,0.735c-0.069,0.049-0.136,0.1-0.197,0.156c-0.427,0.27-0.682,0.784-0.796,1.311
		c-0.02,0.088-0.034,0.176-0.045,0.263c-0.192,0.845-0.059,1.643,0.092,2.485c0.017,0.075,0.038,0.149,0.062,0.223
		c0.048,0.148,0.109,0.292,0.189,0.433c0.047,0.081,0.1,0.154,0.163,0.219c0.188,0.19,0.454,0.292,0.835,0.243
		c0.114-0.006,0.194-0.015,0.194-0.015l1.854-0.024l-0.177,0.405c0,0-0.816-0.05-0.974-0.075c-0.157-0.024-0.569,0.279,0.089,0.564
		c0.657,0.289,0.8,0.35,0.8,0.35l1.038,3.126l0.234,0.103c0.235,0.103,2.097-0.578,2.175-0.63c0.078-0.053,0.206-0.217,0.15-0.985
		C79.23,39.658,80.902,37.363,80.902,37.363"/>
	<path fill="#010101" d="M78.314,37.976l0.626,0.272l0.824-1.235l-0.079-0.034c-0.496,0.262-1.052,0.591-1.122,0.686
		C78.488,37.766,78.391,37.885,78.314,37.976 M76.628,38.205l0.146,0.063l0.762,2.527l0.63-0.077
		c0.101-0.355,0.407-1.801-0.957-2.541c-0.222-0.12-0.362-0.204-0.453-0.268L76.628,38.205z M77.347,41.085l-0.793-2.623
		l-0.276-0.122l0.286-0.654l0.009-0.022c0.002-0.016,0.005-0.032,0.012-0.046c0.007-0.016,0.017-0.031,0.027-0.043l0.033-0.074
		l0.081,0.021c0.011-0.001,0.023-0.001,0.038-0.001c0.244,0,1.024,0.258,1.292,0.349c0.075-0.085,0.205-0.241,0.294-0.362
		c0.144-0.196,1.008-0.658,1.27-0.795l0.057-0.029l0.485,0.211l-1.122,1.685l-0.985-0.429l-0.661-0.176
		c1.657,0.95,1.008,2.889,1.002,2.907l-0.028,0.08L77.347,41.085z M77.013,41.921h0.02c0.368,0,1.876-0.541,2.03-0.619
		c0.031-0.025,0.141-0.16,0.09-0.865c-0.057-0.795,1.468-2.913,1.643-3.152l0.025-0.037l1.194-0.35
		c0.327-0.069,0.71-0.237,0.67-0.644c-0.007-0.077-0.029-0.162-0.063-0.251l-0.007-0.015c-0.253-0.926-0.527-1.563-0.919-2.127
		c-0.046-0.068-0.093-0.132-0.141-0.195c-0.049-0.062-0.101-0.123-0.153-0.183l-0.008-0.009c-0.408-0.55-0.929-0.812-1.48-1.089
		c-0.089-0.045-0.179-0.09-0.269-0.136c-0.063-0.031-0.132-0.062-0.2-0.09c-0.318-0.134-0.665-0.24-1.063-0.326
		c-0.092-0.024-0.18-0.043-0.271-0.064c-0.09-0.02-0.182-0.039-0.274-0.058c-0.082-0.016-0.164-0.03-0.245-0.045
		c-0.554-0.094-1.151-0.112-1.759-0.057c-0.065,0.005-0.13,0.014-0.195,0.021c-0.065,0.01-0.131,0.02-0.193,0.03l-0.02,0.003
		c-0.065,0.002-0.125,0.007-0.182,0.011c-0.542,0.176-1.106,0.382-1.568,0.711c-0.068,0.05-0.131,0.099-0.186,0.149l-0.017,0.012
		c-0.476,0.299-0.666,0.898-0.737,1.227c-0.017,0.081-0.032,0.166-0.043,0.253l-0.004,0.011c-0.189,0.842-0.046,1.648,0.094,2.429
		c0.017,0.073,0.036,0.143,0.057,0.209c0.048,0.146,0.107,0.279,0.179,0.407c0.044,0.074,0.093,0.137,0.145,0.19
		c0.176,0.18,0.412,0.246,0.721,0.205h0.011c0.11-0.006,0.185-0.015,0.186-0.015l0.015-0.001l2.061-0.027l-0.296,0.681l-0.094-0.006
		c-0.033-0.002-0.825-0.052-0.985-0.076c-0.035,0-0.109,0.045-0.118,0.086c-0.007,0.032,0.043,0.122,0.279,0.225l0.854,0.372
		l1.038,3.128L77.013,41.921L77.013,41.921z M77.032,42.188L77.032,42.188c-0.052,0-0.093-0.006-0.125-0.021l-0.289-0.127
		l-1.04-3.127l-0.744-0.325c-0.412-0.178-0.463-0.382-0.434-0.522c0.037-0.176,0.229-0.299,0.379-0.299c0.013,0,0.027,0,0.039,0.003
		c0.109,0.017,0.601,0.05,0.869,0.067l0.057-0.132l-1.643,0.021c-0.022,0.004-0.092,0.01-0.19,0.017
		c-0.39,0.048-0.706-0.047-0.939-0.284c-0.067-0.068-0.13-0.152-0.185-0.244c-0.082-0.146-0.148-0.295-0.2-0.458
		c-0.025-0.073-0.046-0.152-0.066-0.233l-0.001-0.007c-0.143-0.806-0.292-1.64-0.092-2.531c0.015-0.092,0.028-0.182,0.047-0.268
		c0.138-0.634,0.438-1.127,0.846-1.389c0.06-0.052,0.125-0.105,0.198-0.158c0.498-0.355,1.116-0.579,1.655-0.752l0.028-0.006
		c0.063-0.006,0.129-0.011,0.201-0.014c0.065-0.011,0.132-0.021,0.198-0.03c0.069-0.008,0.139-0.017,0.208-0.023
		c0.627-0.056,1.248-0.036,1.825,0.06c0.084,0.015,0.168,0.031,0.253,0.047c0.095,0.018,0.188,0.038,0.281,0.058
		c0.092,0.021,0.183,0.043,0.272,0.066c0.408,0.088,0.771,0.2,1.105,0.339c0.072,0.031,0.146,0.063,0.217,0.098
		c0.092,0.048,0.181,0.092,0.27,0.137c0.554,0.278,1.126,0.565,1.569,1.162c0.058,0.064,0.111,0.128,0.161,0.193
		c0.052,0.066,0.103,0.137,0.15,0.208c0.516,0.743,0.78,1.565,0.955,2.2c0.044,0.111,0.071,0.217,0.081,0.319
		c0.043,0.462-0.275,0.799-0.875,0.928l-1.093,0.32c-0.474,0.656-1.606,2.36-1.563,2.941c0.059,0.815-0.08,1.02-0.209,1.105
		C79.112,41.59,77.478,42.188,77.032,42.188"/>
	<polygon fill="#010101" points="75.93,36.066 76.17,35.011 75.393,33.959 76.756,33.839 77.233,32.911 77.803,33.939
		78.969,34.381 78.152,35.141 78.246,36.206 77.076,35.719 	"/>
	<polygon fill="none" stroke="#010101" stroke-miterlimit="10" points="75.858,36.141 76.113,35.025 75.292,33.909 76.73,33.782
		77.235,32.799 77.838,33.888 79.07,34.356 78.208,35.16 78.307,36.29 77.069,35.772 	"/>
	<path fill="#010101" d="M79.963,36.954l-0.28-0.123c0,0-1.125,0.625-1.226,0.755c-0.101,0.13-0.36,0.438-0.36,0.438l0.894,0.391
		L79.963,36.954z"/>
	<path fill="none" stroke="#010101" stroke-miterlimit="10" d="M80.041,36.904l-0.308-0.134c0,0-1.221,0.677-1.329,0.818
		c-0.109,0.14-0.392,0.474-0.392,0.474l0.971,0.422L80.041,36.904z"/>
	<path fill="#2F358F" d="M47.482,68.516c0.021,0.002,0.044,0.004,0.067,0.008C47.527,68.524,47.505,68.521,47.482,68.516"/>
	<path fill="#F2F2F2" d="M86.031,56.732c0.138,0.16,0.291,0.236,0.461,0.228c0.168-0.009,0.335-0.066,0.501-0.172
		s0.356-0.251,0.566-0.431c0.216-0.185,0.388-0.349,0.513-0.488c0.126-0.14,0.209-0.294,0.247-0.46s-0.01-0.329-0.146-0.487
		c-0.192-0.224-0.412-0.286-0.658-0.189c-0.248,0.097-0.531,0.282-0.855,0.561c-0.33,0.302-0.563,0.562-0.701,0.782
		C85.823,56.294,85.848,56.513,86.031,56.732"/>
	<path fill="#F2F2F2" d="M62.149,46.875c0.32-0.028,0.528-0.166,0.624-0.415c0.097-0.248,0.128-0.611,0.094-1.089
		c-0.023-0.299-0.065-0.548-0.121-0.748c-0.06-0.198-0.155-0.352-0.293-0.46c-0.138-0.107-0.328-0.152-0.573-0.13l-0.544,0.047
		l0.205,2.85L62.149,46.875z"/>
	<path fill="#F2F2F2" d="M45.098,52.285c0.281,0.341,0.525,0.584,0.737,0.729c0.212,0.144,0.433,0.128,0.666-0.048
		c0.169-0.133,0.257-0.283,0.261-0.453c0.004-0.168-0.044-0.338-0.14-0.508c-0.096-0.171-0.226-0.364-0.394-0.582
		c-0.171-0.222-0.322-0.399-0.456-0.53c-0.131-0.132-0.279-0.219-0.444-0.263c-0.165-0.045-0.331-0.003-0.5,0.127
		c-0.237,0.186-0.315,0.403-0.235,0.654C44.673,51.661,44.841,51.953,45.098,52.285"/>
	<path fill="#F2F2F2" d="M56.645,46.217c0.011-0.002,0.038-0.009,0.086-0.018c0.046-0.009,0.085-0.019,0.116-0.027
		c0.436-0.114,0.611-0.364,0.528-0.751c-0.05-0.203-0.141-0.352-0.272-0.445c-0.132-0.092-0.282-0.117-0.451-0.073l-0.738,0.194
		l0.301,1.233L56.645,46.217z"/>
	<polygon fill="#F2F2F2" points="92.443,61.786 90.745,62.025 91.227,63.023 	"/>
	<path fill="#F2F2F2" d="M72.693,45.504c0.055-0.313-0.082-0.51-0.41-0.593l-0.744-0.186l-0.288,1.078l0.721,0.181
		C72.342,46.078,72.583,45.917,72.693,45.504"/>
	<path fill="#F2F2F2" d="M42.859,54.105c0.009-0.007,0.031-0.027,0.066-0.058c0.035-0.032,0.066-0.059,0.09-0.082
		c0.322-0.315,0.351-0.618,0.085-0.909c-0.146-0.15-0.298-0.231-0.461-0.244c-0.161-0.014-0.305,0.041-0.431,0.164l-0.549,0.537
		l0.88,0.905L42.859,54.105z"/>
	<polygon fill="#F2F2F2" points="80.191,48.464 78.877,49.586 79.828,50.154 	"/>
	<path fill="#F2F2F2" d="M71.583,47.67c0.381,0.095,0.629-0.069,0.743-0.489c0.051-0.187,0.032-0.345-0.054-0.474
		c-0.085-0.129-0.212-0.215-0.383-0.258l-0.76-0.186l-0.329,1.215L71.583,47.67z"/>
	<path fill="#F2F2F2" d="M68.327,45.448c0.014,0.002,0.041,0.008,0.088,0.016c0.045,0.008,0.084,0.015,0.117,0.02
		c0.442,0.058,0.697-0.109,0.769-0.501c0.03-0.209,0.003-0.381-0.083-0.518c-0.086-0.137-0.215-0.216-0.387-0.24l-0.751-0.098
		l-0.189,1.264L68.327,45.448z"/>
	<path fill="#F2F2F2" d="M93.804,69.273c-0.435,0.107-0.764,0.224-0.99,0.351c-0.226,0.128-0.313,0.334-0.263,0.619
		c0.041,0.208,0.136,0.35,0.286,0.426c0.15,0.075,0.322,0.107,0.52,0.094c0.195-0.013,0.431-0.048,0.699-0.107
		c0.278-0.057,0.507-0.118,0.685-0.179c0.178-0.063,0.324-0.159,0.438-0.288c0.117-0.129,0.154-0.298,0.116-0.503
		c-0.059-0.292-0.217-0.456-0.477-0.491C94.558,69.16,94.22,69.185,93.804,69.273"/>
	<path fill="#F2F2F2" d="M96.117,81.378c-0.19,0.305-0.431,0.564-0.712,0.761c-0.579,0.392-1.293,0.533-2.01,0.369
		c-0.715-0.164-1.301-0.586-1.677-1.104c-0.195-0.263-0.346-0.553-0.428-0.853c-0.089-0.303-0.095-0.617-0.065-0.939
		c0.039-0.322,0.152-0.619,0.32-0.887c0.087-0.133,0.176-0.261,0.28-0.379c0.104-0.117,0.221-0.229,0.348-0.328
		c0.511-0.399,1.195-0.648,1.928-0.612c0.734,0.033,1.377,0.361,1.82,0.893c0.11,0.133,0.211,0.278,0.295,0.434
		c0.082,0.155,0.156,0.32,0.201,0.492c0.093,0.347,0.123,0.724,0.074,1.109C96.452,80.719,96.303,81.07,96.117,81.378
		 M91.159,93.848c-0.077,0.347-0.229,0.693-0.45,1.012c-0.217,0.321-0.507,0.566-0.817,0.751c-0.311,0.181-0.646,0.298-0.983,0.341
		c-0.695,0.077-1.392-0.129-1.95-0.605c-0.558-0.479-0.88-1.125-0.971-1.759c-0.053-0.324-0.051-0.648,0.018-0.955
		c0.065-0.307,0.2-0.59,0.38-0.862c0.186-0.268,0.424-0.477,0.697-0.635c0.269-0.163,0.564-0.277,0.887-0.334
		c0.639-0.114,1.363-0.015,1.989,0.357c0.638,0.374,1.05,0.962,1.194,1.639C91.224,93.134,91.23,93.494,91.159,93.848
		 M73.841,98.865c-3.077,1.302-6.345,1.962-9.712,1.962c-3.366,0-6.634-0.66-9.712-1.962c-2.971-1.257-5.639-3.056-7.928-5.346
		c-2.291-2.29-4.089-4.955-5.346-7.93c-1.303-3.078-1.963-6.346-1.963-9.71c0-3.367,0.66-6.635,1.963-9.712
		c1.257-2.971,3.055-5.639,5.346-7.929c2.289-2.29,4.957-4.088,7.928-5.344c3.078-1.303,6.346-1.962,9.712-1.962
		c3.367,0,6.635,0.66,9.712,1.962c2.973,1.256,5.64,3.055,7.93,5.344c2.291,2.29,4.089,4.958,5.346,7.929
		c1.301,3.077,1.962,6.346,1.962,9.712c0,3.364-0.661,6.632-1.962,9.71c-1.257,2.975-3.055,5.64-5.346,7.93
		C79.48,95.81,76.813,97.608,73.841,98.865 M80.199,103.421c-0.046,0.166-0.109,0.331-0.19,0.486
		c-0.041,0.08-0.084,0.157-0.132,0.232c-0.024,0.038-0.049,0.075-0.075,0.11c-0.027,0.038-0.055,0.07-0.084,0.104
		c-0.23,0.273-0.524,0.512-0.869,0.689c-0.341,0.186-0.714,0.265-1.073,0.285c-0.359,0.017-0.712-0.036-1.032-0.153
		c-0.65-0.256-1.172-0.763-1.442-1.445c-0.271-0.683-0.258-1.403-0.042-2.007c0.104-0.312,0.258-0.599,0.458-0.838
		c0.2-0.242,0.452-0.43,0.736-0.587c0.287-0.15,0.596-0.226,0.91-0.238c0.042-0.001,0.081-0.002,0.119-0.001
		c0.039-0.002,0.078-0.002,0.117-0.001c0.079,0.001,0.156,0.007,0.235,0.016c0.155,0.02,0.313,0.054,0.469,0.102
		c0.619,0.195,1.212,0.618,1.6,1.241C80.29,102.04,80.386,102.754,80.199,103.421 M66.092,106.856
		c-0.058,0.163-0.131,0.319-0.221,0.469c-0.088,0.15-0.193,0.281-0.311,0.405c-0.237,0.249-0.529,0.451-0.86,0.596
		c-0.167,0.07-0.34,0.131-0.523,0.169c-0.182,0.031-0.372,0.045-0.565,0.041c-0.388-0.009-0.755-0.089-1.083-0.234
		c-0.326-0.158-0.612-0.374-0.841-0.632c-0.229-0.256-0.403-0.558-0.507-0.883c-0.053-0.161-0.088-0.333-0.106-0.512
		c-0.018-0.176-0.018-0.356,0.001-0.539c0.02-0.183,0.055-0.358,0.105-0.526c0.052-0.167,0.117-0.327,0.194-0.482
		c0.156-0.308,0.36-0.581,0.596-0.804c0.236-0.226,0.505-0.401,0.793-0.515c0.29-0.124,0.602-0.194,0.925-0.188
		c0.163,0.004,0.322,0.026,0.476,0.065c0.152,0.034,0.303,0.08,0.444,0.144c0.287,0.127,0.55,0.312,0.779,0.547
		c0.115,0.116,0.222,0.249,0.318,0.381c0.095,0.135,0.181,0.278,0.254,0.432c0.146,0.309,0.242,0.651,0.268,1.018
		S66.207,106.527,66.092,106.856 M52.077,103.359c-0.293,0.672-0.83,1.162-1.489,1.394c-0.326,0.111-0.678,0.15-1.037,0.121
		c-0.356-0.031-0.729-0.122-1.062-0.319c-0.338-0.19-0.624-0.437-0.847-0.717c-0.027-0.034-0.054-0.069-0.079-0.105
		c-0.024-0.037-0.049-0.077-0.071-0.114c-0.047-0.077-0.088-0.156-0.126-0.236c-0.074-0.16-0.133-0.324-0.173-0.491
		c-0.167-0.673-0.049-1.383,0.359-1.994c0.405-0.61,1.014-1.014,1.639-1.188c0.155-0.044,0.313-0.074,0.471-0.087
		c0.08-0.008,0.158-0.011,0.236-0.011c0.039,0.002,0.078,0.003,0.115,0.005c0.041,0.002,0.081,0.003,0.12,0.008
		c0.315,0.022,0.621,0.108,0.903,0.269c0.28,0.166,0.526,0.358,0.718,0.609c0.193,0.246,0.337,0.54,0.433,0.852
		C52.38,101.965,52.373,102.687,52.077,103.359 M41.712,92.883c-0.11,0.631-0.452,1.267-1.023,1.726
		c-0.572,0.46-1.277,0.646-1.967,0.548c-0.337-0.056-0.669-0.183-0.975-0.374c-0.153-0.096-0.298-0.209-0.434-0.336
		c-0.034-0.032-0.068-0.064-0.101-0.102c-0.03-0.033-0.061-0.069-0.09-0.107c-0.059-0.072-0.116-0.15-0.169-0.231
		c-0.213-0.325-0.352-0.674-0.42-1.024c-0.059-0.356-0.041-0.719,0.041-1.053c0.165-0.671,0.597-1.245,1.245-1.6
		c0.639-0.35,1.366-0.428,2.002-0.293c0.318,0.067,0.613,0.19,0.874,0.361c0.269,0.166,0.501,0.384,0.678,0.655
		c0.044,0.069,0.084,0.138,0.119,0.21c0.018,0.035,0.033,0.073,0.051,0.107c0.016,0.037,0.033,0.072,0.047,0.109
		c0.063,0.144,0.106,0.293,0.136,0.447C41.782,92.234,41.776,92.559,41.712,92.883 M34.67,81.57
		c-0.719,0.14-1.426-0.024-1.989-0.436c-0.069-0.051-0.138-0.104-0.204-0.163c-0.032-0.029-0.064-0.061-0.095-0.091
		c-0.03-0.031-0.061-0.063-0.088-0.096c-0.113-0.132-0.216-0.275-0.305-0.432c-0.176-0.313-0.298-0.67-0.349-1.055
		c-0.03-0.386,0.014-0.762,0.121-1.103c0.054-0.171,0.125-0.333,0.208-0.485c0.021-0.038,0.043-0.075,0.066-0.113
		c0.023-0.035,0.049-0.072,0.074-0.107c0.053-0.071,0.107-0.139,0.166-0.203c0.466-0.519,1.121-0.825,1.855-0.84
		c0.734-0.014,1.406,0.257,1.898,0.671c0.062,0.053,0.121,0.105,0.178,0.164c0.026,0.026,0.054,0.056,0.08,0.085
		c0.028,0.028,0.055,0.06,0.082,0.089c0.105,0.122,0.198,0.252,0.277,0.389c0.156,0.272,0.254,0.574,0.28,0.898
		c0.043,0.322,0.009,0.637-0.088,0.937c-0.048,0.15-0.112,0.297-0.19,0.438c-0.02,0.035-0.04,0.07-0.061,0.104
		c-0.02,0.034-0.04,0.069-0.063,0.102c-0.042,0.067-0.088,0.133-0.138,0.196C35.992,81.026,35.392,81.432,34.67,81.57
		 M32.091,70.732l2.822,0.387c0.62,0.084,0.864,0.616,0.735,1.593c-0.043,0.28-0.101,0.508-0.173,0.683
		c-0.07,0.175-0.118,0.261-0.146,0.257l-0.572-0.078c0.004,0,0.033-0.031,0.088-0.093c0.061-0.068,0.119-0.16,0.175-0.278
		c0.058-0.119,0.1-0.263,0.126-0.436c0.044-0.286,0.017-0.488-0.082-0.607c-0.1-0.119-0.26-0.194-0.483-0.226l-2.618-0.358
		L32.091,70.732z M32.445,69.133l2.44,0.595c0.006,0.001,0.026,0.008,0.061,0.019c0.037,0.012,0.067,0.021,0.095,0.027
		c0.431,0.105,0.708-0.079,0.831-0.553c0.113-0.436-0.041-0.706-0.463-0.809c-0.032-0.009-0.071-0.016-0.118-0.024
		c-0.045-0.01-0.072-0.014-0.079-0.017l-2.417-0.589l0.18-0.694l2.416,0.591l0.173,0.042c0.764,0.186,1.021,0.756,0.773,1.712
		c-0.107,0.42-0.255,0.721-0.44,0.903c-0.187,0.181-0.378,0.28-0.577,0.296c-0.198,0.016-0.413-0.005-0.646-0.062l-2.446-0.596
		L32.445,69.133z M33.603,65.316l3.009-0.281l-2.535-0.936l0.221-0.573l3.546,1.309l-0.357,0.934l-3.184,0.289l2.687,0.992
		l-0.216,0.564l-3.548-1.309L33.603,65.316z M34.971,62.117l3.429,1.586l-0.365,0.772l-3.43-1.585L34.971,62.117z M35.982,60.185
		c0.196-0.34,0.414-0.58,0.658-0.721c0.241-0.139,0.511-0.185,0.805-0.139c0.295,0.046,0.626,0.173,0.996,0.383
		c0.38,0.213,0.666,0.441,0.857,0.68c0.192,0.24,0.289,0.497,0.29,0.774c0.001,0.276-0.092,0.578-0.279,0.906
		c-0.181,0.317-0.39,0.543-0.624,0.68c-0.234,0.135-0.504,0.184-0.808,0.14c-0.303-0.042-0.648-0.173-1.034-0.391
		c-0.55-0.313-0.895-0.66-1.039-1.042C35.66,61.076,35.72,60.652,35.982,60.185 M38.203,56.819c0.495-0.681,1.037-0.807,1.629-0.381
		c0.232,0.184,0.362,0.384,0.39,0.6c0.025,0.215,0,0.414-0.077,0.596c-0.059,0.141-0.098,0.225-0.118,0.253
		c-0.006,0.008-0.012,0.012-0.016,0.009l1.992,0.112l-0.585,0.804l-2.302-0.255l1.63,1.179l-0.504,0.693l-3.059-2.211L38.203,56.819
		z M41.958,52.563c0.601-0.588,1.157-0.619,1.664-0.097c0.2,0.221,0.294,0.441,0.281,0.657c-0.01,0.218-0.069,0.41-0.177,0.577
		c-0.081,0.128-0.134,0.205-0.159,0.23c-0.007,0.006-0.013,0.01-0.015,0.006l1.937,0.451l-0.711,0.694l-2.22-0.645l1.403,1.443
		l-0.613,0.599l-2.629-2.706L41.958,52.563z M43.845,51.463c0.013-0.409,0.231-0.781,0.649-1.113
		c0.312-0.242,0.604-0.381,0.881-0.416c0.275-0.038,0.54,0.024,0.791,0.181c0.252,0.156,0.508,0.401,0.767,0.738
		c0.267,0.346,0.44,0.667,0.525,0.964c0.084,0.296,0.073,0.573-0.032,0.83c-0.104,0.258-0.307,0.503-0.604,0.737
		c-0.287,0.225-0.564,0.354-0.832,0.391c-0.266,0.037-0.532-0.024-0.793-0.181c-0.263-0.156-0.528-0.411-0.799-0.76
		C44.015,52.328,43.83,51.871,43.845,51.463 M47.076,48.543l1.72,2.824l1.549-0.965l0.246,0.403l-2.276,1.417l-1.966-3.227
		L47.076,48.543z M49.861,46.953l1.43,2.985l1.636-0.807l0.203,0.424l-2.402,1.186l-1.633-3.412L49.861,46.953z M54.374,45.045
		l0.16,0.443l-1.592,0.601l0.375,1.041l1.327-0.501l0.159,0.442l-1.326,0.501l0.43,1.192l1.614-0.609l0.16,0.444l-2.412,0.909
		l-1.285-3.562L54.374,45.045z M56.643,44.416c0.809-0.211,1.3,0.038,1.475,0.75c0.06,0.293,0.03,0.533-0.088,0.718
		c-0.119,0.185-0.265,0.322-0.439,0.414c-0.135,0.072-0.217,0.112-0.253,0.121c-0.01,0.004-0.014,0.002-0.016-0.001l1.437,1.366
		l-0.959,0.25l-1.577-1.676l0.48,1.963l-0.825,0.216l-0.9-3.686L56.643,44.416z M62.102,43.536c0.479-0.042,0.83,0.095,1.054,0.408
		c0.224,0.316,0.357,0.771,0.399,1.365c0.032,0.428,0.013,0.786-0.056,1.074c-0.07,0.29-0.197,0.513-0.384,0.67
		c-0.188,0.159-0.44,0.251-0.757,0.28l-1.63,0.145l-0.272-3.794L62.102,43.536z M64.146,43.43l2.537,0.066l-0.021,0.476l-1.69-0.044
		l-0.047,1.11l1.408,0.037l-0.021,0.473l-1.407-0.037l-0.055,1.275l1.712,0.045l-0.021,0.475l-2.561-0.067L64.146,43.43z
		 M67.31,43.544l1.697,0.226c0.823,0.108,1.181,0.527,1.071,1.257c-0.056,0.297-0.172,0.508-0.352,0.635
		c-0.177,0.127-0.364,0.201-0.561,0.22c-0.148,0.018-0.242,0.023-0.277,0.019c-0.01-0.001-0.015-0.004-0.013-0.008l0.804,1.818
		l-0.976-0.129l-0.817-2.162l-0.301,2.014l-0.838-0.111L67.31,43.544z M72.497,44.475c0.701,0.176,0.975,0.556,0.817,1.144
		c-0.093,0.351-0.25,0.558-0.472,0.622c-0.223,0.066-0.396,0.082-0.524,0.05c0.583,0.209,0.804,0.581,0.662,1.113
		c-0.116,0.412-0.299,0.664-0.549,0.759c-0.251,0.097-0.549,0.1-0.894,0.015l-1.679-0.422l0.981-3.696L72.497,44.475z
		 M74.079,44.894l0.889,0.332l0.275,1.672l1.321-1.076l0.521,0.194l-1.812,1.42l-0.673,1.74l-0.791-0.294l0.674-1.741L74.079,44.894
		z M80.272,47.668l0.812,0.485l-0.864,3.949l-0.725-0.43l0.193-0.949l-1.271-0.759l-0.732,0.628l-0.497-0.298L80.272,47.668z
		 M81.331,52.39c0.249,0.19,0.448,0.275,0.599,0.257s0.289-0.111,0.418-0.281c0.154-0.202,0.197-0.378,0.129-0.529
		c-0.067-0.152-0.21-0.358-0.428-0.614s-0.35-0.49-0.398-0.701c-0.048-0.21,0.034-0.455,0.247-0.732
		c0.141-0.173,0.3-0.282,0.478-0.328c0.178-0.048,0.36-0.044,0.55,0.011c0.188,0.055,0.376,0.146,0.563,0.275
		c0.302,0.229,0.524,0.426,0.668,0.593c0.146,0.166,0.235,0.282,0.273,0.349l-0.255,0.582c-0.105-0.202-0.211-0.367-0.315-0.496
		c-0.106-0.129-0.246-0.262-0.423-0.396c-0.172-0.131-0.324-0.212-0.454-0.244c-0.131-0.032-0.259,0.024-0.385,0.165
		c-0.089,0.116-0.062,0.275,0.078,0.475c0.142,0.201,0.287,0.397,0.438,0.591c0.15,0.193,0.249,0.405,0.296,0.635
		c0.048,0.231-0.023,0.475-0.211,0.732c-0.192,0.252-0.388,0.423-0.586,0.514c-0.199,0.092-0.397,0.117-0.599,0.076
		c-0.202-0.041-0.413-0.133-0.634-0.277c-0.055-0.034-0.128-0.087-0.219-0.157c-0.154-0.118-0.291-0.24-0.409-0.365
		c-0.119-0.129-0.212-0.24-0.277-0.335c-0.067-0.096-0.1-0.145-0.096-0.151l0.242-0.551c0,0,0.03,0.055,0.091,0.165
		c0.059,0.109,0.14,0.228,0.24,0.359C81.054,52.142,81.179,52.269,81.331,52.39 M84.94,51.457c0.18-0.029,0.361-0.007,0.543,0.068
		c0.183,0.074,0.36,0.183,0.533,0.332c0.277,0.259,0.478,0.479,0.605,0.658c0.126,0.18,0.203,0.305,0.234,0.375l-0.311,0.555
		c-0.085-0.212-0.174-0.388-0.266-0.528c-0.091-0.138-0.217-0.285-0.38-0.436c-0.156-0.148-0.299-0.245-0.426-0.289
		c-0.126-0.043-0.258-0.002-0.398,0.126c-0.099,0.106-0.089,0.267,0.03,0.48c0.119,0.214,0.245,0.425,0.374,0.633
		c0.131,0.209,0.207,0.43,0.231,0.665c0.023,0.233-0.071,0.469-0.284,0.708c-0.216,0.231-0.428,0.381-0.634,0.454
		c-0.206,0.071-0.407,0.077-0.603,0.016s-0.396-0.175-0.602-0.342c-0.049-0.04-0.116-0.099-0.203-0.177
		c-0.138-0.132-0.263-0.268-0.367-0.405c-0.105-0.139-0.186-0.259-0.243-0.362c-0.057-0.102-0.082-0.155-0.079-0.16l0.295-0.525
		c0.001,0,0.026,0.059,0.073,0.174c0.049,0.114,0.118,0.242,0.205,0.383c0.087,0.14,0.199,0.278,0.338,0.416
		c0.227,0.213,0.417,0.319,0.567,0.316c0.152-0.004,0.3-0.083,0.446-0.24c0.172-0.184,0.233-0.355,0.18-0.513
		c-0.052-0.159-0.174-0.377-0.364-0.656s-0.298-0.524-0.324-0.738c-0.026-0.216,0.081-0.451,0.319-0.707
		C84.589,51.579,84.759,51.486,84.94,51.457 M88.569,54.542c0.252,0.294,0.399,0.577,0.444,0.851
		c0.046,0.274-0.006,0.542-0.152,0.807c-0.146,0.263-0.384,0.535-0.71,0.817c-0.335,0.29-0.648,0.488-0.942,0.592
		c-0.291,0.104-0.567,0.113-0.828,0.026s-0.511-0.271-0.754-0.555c-0.233-0.271-0.373-0.54-0.419-0.805s0.006-0.534,0.152-0.808
		c0.146-0.272,0.392-0.557,0.73-0.851c0.489-0.418,0.938-0.634,1.346-0.648C87.847,53.953,88.224,54.145,88.569,54.542
		 M90.11,56.845c0.25,0.107,0.488,0.32,0.716,0.642c0.132,0.193,0.236,0.376,0.313,0.552c0.075,0.175,0.126,0.303,0.15,0.384
		l-0.44,0.503c0.001-0.085-0.019-0.222-0.059-0.41c-0.041-0.188-0.131-0.385-0.273-0.591c-0.193-0.284-0.426-0.402-0.696-0.355
		c-0.272,0.045-0.559,0.174-0.866,0.389c-0.235,0.164-0.435,0.323-0.596,0.476c-0.163,0.152-0.277,0.318-0.345,0.496
		s-0.048,0.358,0.06,0.538c0.139,0.202,0.273,0.355,0.404,0.463c0.132,0.108,0.247,0.18,0.347,0.219
		c0.077,0.03,0.121,0.046,0.137,0.047l0.002-0.001l0.001,0.001c0,0-0.001,0-0.003,0l-0.498,0.288
		c-0.021,0.017-0.113-0.036-0.274-0.157c-0.162-0.12-0.322-0.291-0.484-0.514c-0.364-0.529-0.48-0.996-0.347-1.398
		c0.13-0.403,0.489-0.81,1.075-1.217c0.322-0.21,0.619-0.349,0.892-0.414C89.597,56.717,89.859,56.738,90.11,56.845 M92.134,59.635
		l-3.285,1.972l-0.427-0.727l3.286-1.972L92.134,59.635z M93.356,62.007l-2.861,2.883l-0.366-0.76l0.674-0.701l-0.643-1.334
		l-0.949,0.132l-0.253-0.523l3.985-0.55L93.356,62.007z M94.02,63.465l0.966,2.72l-0.447,0.166l-0.341-0.961l-3.138,1.167
		l-0.282-0.797l3.137-1.167l-0.342-0.962L94.02,63.465z M95.32,67.462l-3.666,1.079l-0.226-0.815l3.663-1.079L95.32,67.462z
		 M95.813,69.56c0.072,0.383,0.064,0.705-0.031,0.969c-0.095,0.264-0.27,0.475-0.525,0.634c-0.256,0.159-0.593,0.284-1.011,0.373
		c-0.432,0.092-0.8,0.111-1.104,0.06c-0.304-0.051-0.547-0.178-0.728-0.382c-0.185-0.204-0.311-0.492-0.381-0.859
		c-0.069-0.354-0.061-0.659,0.03-0.916c0.091-0.255,0.266-0.468,0.526-0.635c0.26-0.169,0.608-0.299,1.047-0.392
		c0.627-0.129,1.119-0.1,1.479,0.089C95.475,68.688,95.707,69.042,95.813,69.56 M96.27,72.86l-2.609,1.562l2.707-0.267l0.049,0.608
		l-3.789,0.373l-0.08-0.992l2.77-1.641l-2.871,0.282l-0.049-0.597l3.789-0.375L96.27,72.86z M64.129,39.837
		c-19.905,0-36.041,16.137-36.041,36.042c0,19.905,16.136,36.041,36.041,36.041c19.906,0,36.043-16.136,36.043-36.041
		C100.172,55.974,84.035,39.837,64.129,39.837"/>
	<path fill="#F2F2F2" d="M37.284,61.728c0.393,0.204,0.714,0.332,0.965,0.383c0.254,0.05,0.452-0.049,0.602-0.301
		c0.106-0.187,0.13-0.359,0.067-0.514c-0.061-0.158-0.17-0.295-0.323-0.414c-0.154-0.12-0.351-0.246-0.59-0.38
		c-0.244-0.14-0.453-0.243-0.626-0.312s-0.346-0.093-0.515-0.069c-0.172,0.023-0.31,0.126-0.416,0.309
		c-0.148,0.261-0.14,0.492,0.03,0.69C36.649,61.318,36.919,61.522,37.284,61.728"/>
	<path fill="#F2F2F2" d="M39.356,58.18c0.006-0.01,0.025-0.034,0.055-0.07c0.03-0.036,0.055-0.068,0.074-0.096
		c0.267-0.364,0.242-0.667-0.07-0.907c-0.169-0.123-0.334-0.176-0.495-0.162c-0.163,0.015-0.296,0.093-0.397,0.234l-0.453,0.621
		l1.023,0.739L39.356,58.18z"/>
</g>
</svg>
