<?xml version="1.0" encoding="utf-8"?>
<!-- Generator: Adobe Illustrator 16.0.3, SVG Export Plug-In . SVG Version: 6.00 Build 0)  -->
<!DOCTYPE svg PUBLIC "-//W3C//DTD SVG 1.1//EN" "http://www.w3.org/Graphics/SVG/1.1/DTD/svg11.dtd">
<svg version="1.1" xmlns="http://www.w3.org/2000/svg" xmlns:xlink="http://www.w3.org/1999/xlink" x="0px" y="0px"
	 viewBox="0 0 104 150" enable-background="new 0 0 104 150" xml:space="preserve">
<g>
	<path fill="#FFFFFF" d="M23.955,139.392c-3.478,0-6.749-1.354-9.208-3.814c-2.459-2.459-3.814-5.729-3.814-9.208V23.631
		c0-3.479,1.355-6.749,3.814-9.209c2.459-2.46,5.73-3.813,9.208-3.813h56.09c3.478,0,6.748,1.354,9.207,3.813
		c2.46,2.46,3.814,5.73,3.814,9.209v102.738c0,3.479-1.354,6.749-3.814,9.208c-2.459,2.46-5.729,3.814-9.207,3.814H23.955z"/>
	<path d="M91.478,126.369c0,6.314-5.119,11.434-11.433,11.434h-56.09c-6.314,0-11.433-5.119-11.433-11.434V23.631
		c0-6.315,5.119-11.434,11.433-11.434h56.09c6.313,0,11.433,5.118,11.433,11.434V126.369z"/>
	<path fill="#F3A2C6" d="M71.784,12.196L29.509,114.471l4.66,12.004l-7.087,6.661l-1.914,4.667h-1.212
		c-6.314,0-11.433-5.119-11.433-11.434V23.631c0-6.315,5.119-11.434,11.433-11.434L71.784,12.196L71.784,12.196z"/>
	<path fill-rule="evenodd" clip-rule="evenodd" fill="#FDFDFD" d="M53.885,65.786c0.017,0.145,0.048,0.271,0.046,0.397
		c-0.006,0.571-0.012,1.144-0.035,1.715c-0.022,0.588-0.052,1.176-0.104,1.762c-0.028,0.312-0.104,0.615-0.469,0.736
		c-0.072,0.024-0.152,0.137-0.164,0.217c-0.096,0.676-0.178,1.354-0.268,2.069c0.875,0.635,1.752,1.311,2.73,1.845
		c0.428,0.233,0.847,0.494,1.234,0.788c0.48,0.365,0.931,0.771,1.384,1.172c1.127,0.995,2.243,2.004,3.375,2.992
		c0.378,0.33,0.794,0.613,1.193,0.776c0.455-0.404,0.871-0.767,1.275-1.141c0.077-0.072,0.132-0.186,0.16-0.29
		c0.282-1.005,0.557-2.013,0.831-3.02c0.021-0.077,0.061-0.197,0.026-0.231c-0.198-0.197-0.038-0.361,0.031-0.53
		c0.112-0.271,0.249-0.533,0.35-0.808c0.124-0.337,0.327-0.621,0.624-0.795c0.337-0.197,0.431-0.49,0.506-0.834
		c0.377-1.729,0.576-3.479,0.629-5.247c0.011-0.395,0.046-0.783-0.21-1.071c0.24-0.914,0.473-1.78,0.694-2.649
		c0.069-0.268,0.138-0.543,0.146-0.817c0.009-0.306-0.008-0.625-0.087-0.919c-0.301-1.111-0.633-2.215-0.954-3.322
		c-0.038-0.027-0.076-0.055-0.114-0.082c-0.043,0.086-0.066,0.19-0.13,0.257c-1.426,1.504-3.357,2.111-5.418,1.056
		c-0.21-0.106-0.444-0.164-0.647-0.237c-0.381,0.466-0.709,0.893-1.067,1.294c-0.183,0.203-0.415,0.361-0.632,0.531
		c-0.15,0.118-0.326,0.209-0.468,0.334c-0.625,0.552-1.208,1.155-1.869,1.658c-0.808,0.615-1.62,1.211-2.229,2.04
		C54.161,65.561,54.021,65.657,53.885,65.786z M40.525,137.803c0.161-0.29,0.285-0.447,0.597-0.503
		c0.44-0.079,0.884-0.235,1.278-0.447c0.661-0.356,0.966-0.986,1.103-1.804c0.26,0.258,0.489,0.454,0.679,0.683
		c0.201,0.242,0.404,0.258,0.688,0.155c0.86-0.311,1.529-0.856,2.081-1.573c0.133-0.173,0.169-0.341,0.107-0.544
		c-0.067-0.218-0.124-0.439-0.184-0.66c-0.133-0.487-0.461-0.712-0.973-0.655c-0.145,0.016-0.287,0.057-0.45,0.09
		c-0.242-0.336-0.416-0.687-0.38-1.122c0.021-0.26,0.021-0.524-0.004-0.783c-0.012-0.121-0.104-0.234-0.179-0.393
		c0.454-0.139,0.96-0.293,1.473-0.449c0-0.438,0.012-0.855-0.003-1.272c-0.017-0.48-0.241-0.874-0.57-1.213
		c-0.561-0.578-1.261-0.927-2.008-1.18c-1.61-0.546-3.152-1.244-4.664-2.016c-0.464-0.237-0.936-0.462-1.413-0.672
		c-0.312-0.137-0.635-0.261-0.965-0.345c-0.345-0.087-0.666-0.151-0.916-0.465c-0.134-0.168-0.42-0.215-0.671-0.33
		c-0.032-0.215,0.119-0.35,0.288-0.484c0.501-0.398,0.438-1.165-0.145-1.42c-0.413-0.183-0.608-0.527-0.814-0.873
		c-0.054-0.09-0.014-0.25,0.012-0.371c0.515-2.463,1.354-4.803,2.645-6.972c1.043-1.754,2.09-3.507,3.118-5.271
		c0.418-0.718,0.791-1.462,1.189-2.204c0.441,0.097,0.892,0.228,1.352,0.287c0.659,0.085,1.264-0.072,1.753-0.56
		c1.066-1.061,2.14-2.114,3.2-3.182c0.564-0.568,1.112-1.154,1.657-1.74c0.92-0.99,1.265-2.202,1.251-3.515
		c-0.01-0.861-0.124-1.723-0.193-2.612c-0.018,0.013,0.009-0.022,0.032-0.021c0.573,0.056,0.94-0.229,1.265-0.674
		c0.355-0.485,0.765-0.935,1.17-1.383c0.2-0.222,0.295-0.463,0.287-0.754c-0.008-0.277-0.023-0.556-0.015-0.834
		c0.01-0.305,0.088-0.365,0.394-0.313c0.676,0.113,1.348,0.25,2.024,0.352c1.001,0.149,2.004,0.276,3.069,0.423
		c0.032,0.043,0.108,0.146,0.185,0.251c0.152,0.215,0.342,0.314,0.622,0.308c0.413-0.011,0.803,0.091,1.144,0.354
		c0.152,0.117,0.342,0.187,0.516,0.271c0.641,0.317,0.758,0.696,0.307,1.234c-0.441,0.523-0.943,0.996-1.42,1.49
		c-0.146,0.152-0.309,0.294-0.442,0.458c-0.264,0.325-0.249,0.563,0.036,0.919c0.254,0.32,0.281,0.601,0.054,0.922
		c-1.063,1.507-1.66,3.211-2.114,4.974c-0.573,2.228-0.783,4.502-0.85,6.795c-0.065,2.275-0.27,4.535-0.819,6.751
		c-0.055,0.222-0.128,0.438-0.183,0.66c-0.046,0.185-0.11,0.323-0.326,0.38c-0.104,0.026-0.207,0.154-0.257,0.262
		c-0.2,0.427-0.402,0.855-0.559,1.3c-0.122,0.351-0.2,0.722-0.257,1.09c-0.078,0.508-0.206,0.961-0.755,1.158
		c-0.068,0.024-0.139,0.089-0.174,0.153c-0.279,0.521-0.538,1.052-0.462,1.671c0.064,0.519,0.132,1.036,0.213,1.552
		c0.066,0.431,0.192,0.845,0.125,1.299c-0.034,0.234,0.061,0.529,0.194,0.734c0.151,0.232,0.249,0.449,0.185,0.771
		c0.581,0.074,1.132,0.004,1.738,0.047c-0.083,0.11-0.135,0.196-0.203,0.268c-0.247,0.264-0.479,0.53-0.581,0.894
		c-0.031,0.11-0.13,0.225-0.229,0.291c-0.487,0.327-0.974,0.662-1.483,0.953c-0.589,0.335-0.911,0.842-1,1.485
		c-0.052,0.385-0.047,0.787,0.001,1.172c0.078,0.615,0.408,1.1,0.936,1.431c0.42,0.263,0.875,0.425,1.381,0.436
		c0.376,0.008,0.751,0.042,1.124,0.077c0.914,0.086,1.677-0.188,2.237-0.937c0.104-0.139,0.229-0.193,0.391-0.251
		c0.412-0.144,0.832-0.296,1.203-0.521c0.642-0.388,0.985-0.999,1.04-1.743c0.04-0.566,0.097-1.144-0.145-1.737
		c1.596-0.045,3.157-0.089,4.741-0.133c0.076,0.348,0.001,0.616-0.194,0.883c-0.351,0.475-0.657,0.982-0.759,1.574
		c-0.047,0.265-0.05,0.556,0.006,0.817c0.121,0.576,0.364,1.109,0.664,1.623c0.531,0.914,1.813,1.182,2.767,0.898
		c0.791-0.236,1.403-0.673,1.878-1.372c1.159,0.173,1.947-0.322,2.379-1.421c1.238,0.029,2.465,0.038,3.534-0.831
		c-0.203-0.6-0.406-1.196-0.621-1.83c-0.535-0.043-1.067-0.086-1.602-0.129c-0.484-0.472-0.466-1.067-0.393-1.712
		c0.142,0.021,0.275,0.042,0.505,0.075c-0.109-0.24-0.19-0.413-0.307-0.667c0.47-0.025,0.868-0.047,1.279-0.068
		c0-0.145,0.007-0.254-0.002-0.363c-0.014-0.174-0.064-0.35-0.052-0.521c0.087-1.063-0.306-1.796-1.285-2.249
		c-0.739-0.342-1.492-0.661-2.258-0.936c-1.696-0.606-3.227-1.479-4.582-2.671c-0.501-0.441-1.051-0.834-1.607-1.204
		c-0.303-0.202-0.667-0.312-1.086-0.5c0-0.111,0.016-0.321-0.003-0.528c-0.051-0.568-0.114-1.136-0.176-1.702
		c-0.023-0.218-0.137-0.33-0.401-0.251c0.029-1.625,0.249-3.174,1.05-4.565c1.429-2.485,2.523-5.12,3.576-7.775
		c0.054-0.137,0.116-0.27,0.185-0.426c0.47,0.068,0.823-0.144,1.08-0.511c0.119-0.17,0.269-0.219,0.45-0.243
		c0.711-0.095,1.31-0.387,1.723-0.997c0.028-0.04,0.059-0.106,0.093-0.11c0.646-0.068,0.831-0.639,1.108-1.067
		c0.987-1.522,1.802-3.144,2.577-4.781c0.193-0.411,0.358-0.846,0.458-1.288c0.146-0.635,0.237-1.283,0.315-1.929
		c0.081-0.676-0.122-1.295-0.48-1.862c-0.085-0.137-0.181-0.299-0.313-0.366c-0.324-0.167-0.497-0.462-0.719-0.722
		c-0.633-0.746-1.277-1.482-1.983-2.299c0-0.173,0.007-0.467-0.003-0.76c-0.008-0.228-0.021-0.456-0.062-0.678
		c-0.158-0.846-0.55-1.528-1.372-1.896c-0.059-0.026-0.108-0.072-0.161-0.11c-0.013-0.01-0.021-0.024-0.086-0.098
		c0.15-0.845,0.271-1.749,0.48-2.633c0.195-0.823,0.479-1.628,0.737-2.436c0.058-0.183,0.141-0.375,0.268-0.513
		c0.158-0.172,0.217-0.343,0.208-0.568c-0.021-0.552,0.06-1.113-0.219-1.635c-0.043-0.08-0.015-0.222,0.021-0.317
		c0.598-1.554,1.197-3.106,1.813-4.652c0.058-0.149,0.204-0.299,0.348-0.373c0.363-0.187,0.569-0.475,0.68-0.853
		c0.315-1.081,0.643-2.157,0.944-3.241c0.408-1.475,0.312-2.943-0.105-4.401c-0.229-0.8-0.463-1.598-0.678-2.401
		c-0.07-0.267-0.117-0.548-0.121-0.822c-0.002-0.252,0.068-0.504,0.113-0.794c-0.065-0.036-0.192-0.106-0.323-0.179
		c-0.013-0.045-0.036-0.091-0.036-0.138c-0.002-1.683-0.004-3.366,0.001-5.05c0-0.178,0.034-0.356,0.071-0.531
		c0.391-1.86,0.682-3.734,0.523-5.642c-0.182-2.188-0.918-4.142-2.591-5.646c-0.374-0.336-0.804-0.616-1.235-0.878
		c-0.616-0.374-1.211-0.771-1.733-1.271c-0.092-0.089-0.201-0.16-0.306-0.241c0.161-0.235,0.35-0.256,0.624-0.179
		c0.739,0.208,1.491,0.346,2.268,0.332c0.39-0.006,0.781,0.058,1.172,0.083c0.647,0.041,1.485-0.51,1.528-1.242
		c0.019-0.326,0.149-0.62,0.446-0.828c0.189-0.133,0.306-0.324,0.219-0.597c-0.029-0.091,0.071-0.223,0.114-0.336
		c0.071-0.195,0.221-0.398,0.201-0.584c-0.062-0.59,0.18-1.082,0.393-1.575c0.34-0.043,0.666-0.062,0.983-0.129
		c0.524-0.109,0.687-0.368,0.563-0.887c-0.045-0.187-0.146-0.363-0.248-0.528c-0.452-0.737-0.705-1.541-0.803-2.395
		c-0.016-0.137,0.013-0.292,0.066-0.42c0.164-0.388,0.35-0.767,0.547-1.189c0.224-0.024,0.5-0.045,0.772-0.084
		c0.547-0.078,0.721-0.245,0.858-0.78c0.175-0.683,0.152-1.369-0.026-2.037c-0.492-1.826-1.341-3.476-2.61-4.88
		c-1.309-1.444-2.999-2.22-4.884-2.607c-0.224-0.046-0.45-0.081-0.675-0.12c-0.861-0.118-1.72-0.112-2.584,0.001
		c-1.333,0.174-2.634,0.459-3.903,0.899c-1.653,0.572-2.988,1.599-4.126,2.895c-0.783,0.891-1.402,1.89-1.813,3.007
		c-0.294,0.802-0.488,1.626-0.494,2.485c-0.006,0.784-0.003,1.57-0.008,2.354c-0.002,0.438-0.054,0.887,0.255,1.298
		c-0.078-0.03-0.161-0.05-0.235-0.09c-1.032-0.566-2.074-1.11-3.232-1.389c-0.723-0.175-1.46-0.265-2.182-0.09
		c-1.15,0.278-2.077,0.954-2.804,1.87c-0.372,0.468-0.659,1.011-0.937,1.545c-0.391,0.757-0.797,1.499-1.325,2.173
		c-0.355,0.453-0.819,0.656-1.381,0.74c-0.846,0.125-1.656-0.018-2.463-0.229c-0.29-0.077-0.603-0.183-0.814,0.103
		c-0.219,0.294-0.053,0.6,0.109,0.866c0.632,1.043,1.493,1.852,2.559,2.441c0.725,0.401,1.48,0.669,2.331,0.648
		c0.724-0.019,1.387-0.181,1.984-0.597c0.092-0.063,0.195-0.114,0.294-0.168c0.009-0.005,0.027,0.008,0.089,0.029
		c-0.202,0.351-0.415,0.688-0.593,1.041c-0.243,0.48-0.502,0.958-0.68,1.463c-0.473,1.356-0.907,2.728-1.355,4.093
		c-0.604,1.859-1.146,3.389-2.3,5.996c-0.511,0.817-1.017,1.639-1.536,2.45c-0.21,0.329-0.451,0.639-0.691,0.976
		c0.07,0.123,0.14,0.246,0.202,0.354c-0.029,0.054-0.035,0.092-0.059,0.108c-1.172,0.827-2.168,1.834-3.042,2.966
		c-0.059,0.075-0.132,0.174-0.213,0.192c-0.807,0.176-1.45,0.674-2.114,1.105c-1.497,0.974-2.896,2.077-4.102,3.403
		c-1.142,1.256-2.111,2.628-2.625,4.267c-0.454,1.45-0.762,2.932-0.918,4.449c-0.113,1.101-0.095,2.18,0.184,3.253
		c0.036,0.139,0.033,0.293,0.022,0.438c-0.084,1.073-0.196,2.144-0.255,3.218c-0.025,0.452-0.004,0.925,0.107,1.359
		c0.076,0.292,0.307,0.581,0.542,0.787c0.491,0.427,1.091,0.645,1.741,0.71c0.39,0.04,0.404,0.061,0.501,0.466
		c0.296,1.237,0.568,2.481,0.904,3.708c0.471,1.719,1.108,3.383,1.806,5.022c0.268,0.632,0.538,1.264,0.849,1.874
		c0.153,0.298-0.032,0.497-0.066,0.623c0.184,0.532,0.335,0.968,0.493,1.422c0.059,0.01,0.138,0.027,0.218,0.033
		c0.45,0.033,0.557,0.152,0.532,0.603c-0.029,0.539-0.029,0.539,0.188,1.005c-0.215,0.098-0.427,0.208-0.648,0.293
		c-0.247,0.095-0.403,0.257-0.498,0.504c-0.263,0.688-0.681,1.254-1.292,1.684c-0.336,0.236-0.527,0.586-0.508,1.01
		c0.013,0.302-0.11,0.521-0.292,0.748c-1.174,1.462-2.152,3.043-2.803,4.807c-0.449,1.213-0.699,2.481-0.917,3.752
		c-0.204,1.188-0.387,2.381-0.545,3.576c-0.314,2.371-0.99,4.657-1.575,6.967c-0.148,0.584-0.298,1.169-0.489,1.741
		c-0.073,0.22-0.229,0.433-0.4,0.595c-0.433,0.409-0.789,0.854-1.013,1.421c-0.216,0.545-0.493,1.069-0.779,1.583
		c-0.123,0.221-0.323,0.407-0.514,0.582c-0.584,0.531-1.013,1.154-1.153,1.943c-0.104,0.584-0.034,1.169,0.017,1.752
		c0.049,0.552,0.1,1.104,0.172,1.653c0.055,0.418,0.145,0.831,0.218,1.246c0.032,0.175,0.065,0.35,0.103,0.554
		c0.519,0.287,1.208,0.196,1.688,0.617c-0.013,0.468-0.37,0.541-0.708,0.629c-0.016,0.184-0.031,0.342-0.051,0.567
		c-1.188,0.255-2.207,0.809-2.597,2.067c-0.356,1.148-0.405,2.287,0.517,3.296c0,0,3.06,1.321,4.15,0.102
		c1.089-1.22,0.588-0.59,0.904-0.854c0.095-0.079,0.271-0.071,0.412-0.083c1.479-0.116,2.623-1.229,2.761-2.701
		c0.045-0.48-0.06-0.941-0.237-1.386c-0.066-0.162-0.136-0.323-0.226-0.538c1.807-0.431,3.549-0.531,5.171,0.304
		c-0.057,0.35-0.092,0.63-0.151,0.905c-0.029,0.136-0.095,0.264-0.154,0.392c-0.2,0.426-0.458,0.833-0.594,1.277
		c-0.247,0.802,0.006,1.543,0.424,2.236c0.075,0.126,0.156,0.246,0.233,0.371c0.006,0.009-0.009,0.076-0.009,0.076
		C38.777,139.594,40.525,137.803,40.525,137.803z"/>
	<g>
		<g>
			<path d="M67.738,43.401h0.419c0.143,0,0.249,0.071,0.249,0.299c0,0.244-0.111,0.27-0.159,0.282l0.191,0.389h-0.172l-0.176-0.377
				l-0.2-0.02v0.396h-0.152V43.401z M68.146,43.851c0.063,0,0.105-0.012,0.105-0.15c0-0.133-0.048-0.157-0.105-0.157h-0.255v0.308
				H68.146z"/>
			<path d="M68.088,43.08c-0.445,0-0.807,0.36-0.807,0.806c0,0.446,0.361,0.808,0.807,0.808s0.807-0.361,0.807-0.808
				C68.895,43.44,68.533,43.08,68.088,43.08z M68.088,44.57c-0.377,0-0.685-0.307-0.685-0.685c0-0.377,0.308-0.684,0.685-0.684
				s0.685,0.307,0.685,0.684C68.772,44.264,68.465,44.57,68.088,44.57z"/>
		</g>
		<path fill-rule="evenodd" clip-rule="evenodd" d="M67.011,51.916h1.997l-3.792-8.578h-1.997l-3.793,8.578h1.998l0.88-1.99h3.827
			L67.011,51.916z M62.851,48.69l1.367-3.094l1.367,3.094H62.851z"/>
		<polygon fill-rule="evenodd" clip-rule="evenodd" points="30.995,43.338 29.275,49.679 26.153,43.338 23.03,49.679 21.311,43.338
			19.498,43.338 21.982,51.916 23.87,51.916 26.153,46.842 28.435,51.916 30.323,51.916 32.808,43.338 		"/>
		<path fill-rule="evenodd" clip-rule="evenodd" d="M36.034,44.556c1.318,0,3.914,0,3.914,0v-1.218h-5.779v8.578h1.823v-3.771
			c1.381,0,3.422,0,3.422,0v-1.218h-3.422v-2.399L36.034,44.556z"/>
		<path fill-rule="evenodd" clip-rule="evenodd" d="M59.648,47.627c0,2.206-1.042,4.289-4.693,4.289h-4.096c0,0,0-5.732,0-8.578
			h4.096C58.606,43.338,59.648,45.422,59.648,47.627z M57.822,47.627c0-2.353-1.252-3.053-3.31-3.053h-1.826v6.106h1.826
			C56.57,50.681,57.822,49.979,57.822,47.627z"/>
		<polygon fill-rule="evenodd" clip-rule="evenodd" points="41.741,43.338 41.741,44.574 44.724,44.574 44.724,51.916
			46.546,51.916 46.546,44.574 49.469,44.574 49.469,43.338 		"/>
	</g>
	<path fill-rule="evenodd" clip-rule="evenodd" fill="#FCFCFC" d="M52.687,50.687c0-2.026,0-4.031,0-6.096
		c1.056-0.003,2.13-0.127,3.139,0.37c0.246,0.12,0.488,0.272,0.689,0.458c0.909,0.841,1.084,1.907,0.829,3.057
		c-0.244,1.109-1.004,1.761-2.062,2.082c-0.247,0.075-0.512,0.115-0.77,0.123C53.913,50.698,53.311,50.687,52.687,50.687z"/>
	<path fill-rule="evenodd" clip-rule="evenodd" fill="#F6F6F6" d="M64.231,45.172c0.492,1.209,0.956,2.351,1.432,3.519
		c-0.997,0-1.938,0-2.938,0C63.229,47.515,63.714,46.38,64.231,45.172z"/>
	<path d="M23.955,140c-3.641,0-7.063-1.419-9.638-3.992c-2.574-2.575-3.992-5.997-3.992-9.639V23.631
		c0-3.642,1.418-7.064,3.992-9.639C16.892,11.418,20.314,10,23.955,10h56.09c3.64,0,7.063,1.418,9.637,3.992
		s3.993,5.997,3.993,9.639v102.738c0,3.642-1.419,7.063-3.993,9.639c-2.574,2.573-5.997,3.992-9.637,3.992H23.955z M80.045,138.901
		c3.347,0,6.493-1.304,8.86-3.671c2.367-2.366,3.671-5.514,3.671-8.861V23.631c0-3.348-1.304-6.495-3.671-8.862
		c-2.367-2.366-5.514-3.67-8.86-3.67h-56.09c-3.347,0-6.494,1.304-8.861,3.67c-2.367,2.367-3.67,5.515-3.67,8.862v102.738
		c0,3.348,1.303,6.495,3.67,8.861c2.367,2.367,5.514,3.671,8.861,3.671H80.045z"/>
</g>
</svg>
