<?xml version="1.0" encoding="utf-8"?>
<!-- Generator: Adobe Illustrator 16.0.3, SVG Export Plug-In . SVG Version: 6.00 Build 0)  -->
<!DOCTYPE svg PUBLIC "-//W3C//DTD SVG 1.1//EN" "http://www.w3.org/Graphics/SVG/1.1/DTD/svg11.dtd">
<svg version="1.1" xmlns="http://www.w3.org/2000/svg" xmlns:xlink="http://www.w3.org/1999/xlink" x="0px" y="0px"
	 viewBox="0 0 104 150" enable-background="new 0 0 104 150" xml:space="preserve">
<g>
	<path fill="#BAE0F7" d="M9.667,137.5c-1.333,0-2.592-0.584-3.452-1.603c-0.86-1.016-1.226-2.354-1.004-3.669l2.707-16.042
		c-0.319-2.131-0.489-4.304-0.504-6.465L4.316,57.441c-0.001-0.036-0.002-0.072-0.002-0.108v-0.201
		c0-11.925,4.641-23.134,13.069-31.562c8.464-8.43,19.673-13.07,31.563-13.07c11.891,0,23.099,4.641,31.561,13.067
		c8.383,8.384,13.024,19.536,13.072,31.408l3.097,52.278c0.002,0.035,0.003,0.072,0.003,0.108v0.201c0,1.368-0.063,2.75-0.188,4.114
		l3.132,18.552c0.222,1.314-0.145,2.652-1.007,3.669c-0.859,1.019-2.116,1.603-3.45,1.603H9.667z"/>
	<path fill="#FFFFFF" d="M13.459,124.1c-1.757-4.642-2.646-9.494-2.646-14.438c0-0.03-0.001-0.062-0.002-0.091L7.712,57.287v-0.155
		c0-11.058,4.291-21.421,12.082-29.18c7.794-7.795,18.147-12.086,29.152-12.086c11.026,0,21.391,4.291,29.183,12.084
		c7.792,7.792,12.085,18.12,12.085,29.082c0,0.031,0,0.061,0.002,0.091l3.098,52.283v0.156c0,5.09-0.911,10.041-2.708,14.732
		L13.459,124.1z"/>
	<path fill="#010101" d="M97.812,132.535l-3.17-18.79c0.133-1.384,0.201-2.779,0.201-4.183v-0.101v-0.101l-3.1-52.329
		c-0.032-11.399-4.466-22.099-12.532-30.164c-8.1-8.066-18.832-12.533-30.265-12.533c-11.399,0-22.166,4.467-30.265,12.533
		C10.583,34.967,6.149,45.7,6.149,57.132v0.1v0.101l3.1,52.33c0.013,2.21,0.192,4.395,0.528,6.539l-2.756,16.334
		c-0.131,0.778,0.087,1.575,0.597,2.178c0.51,0.604,1.259,0.951,2.049,0.951h85.499c0.789,0,1.539-0.348,2.049-0.951
		C97.725,134.11,97.943,133.313,97.812,132.535z M46.58,17.702c1.333-1.067,3.233-2,5.9-2.134c0.133,0,0.299,0,0.466,0
		c3.167,0,5.1,1.767,6.166,3.4c9.866,2.6,18.2,8.966,23.499,17.432c0,0,0.801,1.1,1.333,2.333c0.899,1.699,1.7,3.5,2.334,5.366
		c0.032,0.033,0.267,0.766,0.267,0.833c1.266,3.833,1.933,7.933,1.933,12.166l0.834,14.132v0.033l0.066,1.4l2.167,36.863H12.582
		l-0.2-3.366c-1.067-0.032-1.833-1.165-1.833-2.632c0-1.302,0.6-2.334,1.433-2.601c-0.4-0.601-0.333-1.3-0.233-1.999
		c0-0.101,0.033-0.201,0.166-0.435L9.482,57.132C9.482,36.1,25.881,18.935,46.58,17.702z"/>
	<path fill="#010101" d="M62.846,59.432c-2.001,0-3.233-0.3-3.799-0.966c-1.067-1.234-1.935-2.667-1.001-4.833
		c-0.301-1.534-0.5-2.5-0.567-2.934c-0.399-1.766-1.733-3.566-2.232-3.999c-1.234-1.134-3.235-1.8-5.9-2c0,0,0,0-0.034,0
		l-1.534-0.267l-0.166-0.534c-0.167-0.5-0.301-1.133-0.434-1.799c-0.034-0.201-0.1-0.4-0.133-0.567
		c-0.1-0.233-0.233-0.766-0.3-1.066c-0.033-0.167-0.1-0.333-0.167-0.534c-0.1-0.266-0.234-0.5-0.367-0.7
		c-1.133-1.5-2.867-2.799-5.433-2.633c-6,0.334-6.533,5.267-6.733,7.166c-0.2,1.9,0.667,4.5,0.667,4.5s-2.534,2.4-3.333,4.566
		c-0.801,2.167-1.767,5.033-2.034,5.867c-0.266,0.8-1.833,4.166-1.833,4.166l0.6,0.333c0,0-1.566,1.233-1.966,2.033
		c-0.4,0.833-2.3,4.767-2.366,5.733c-0.067,0.967,0,2.033,0.333,2.533l-0.267,1.3l-0.466,0.666l-0.734,1.701l-1.766,0.533
		l-0.267,0.966c0,0-1.034,1.633-0.833,2.1c0,0-0.867,1.3-0.667,1.967c0.199,0.667,1.033,1.767,1.833,1.767
		c0.8,0,2.8-0.067,2.8-0.067l1.5-0.966c0,0-2.232,5.1-3.799,8.865c0,0-1.167-0.267-1.767,0.534c0,0-1.1,0.199-1.433,0.766
		c0,0-5.533,4.634-5.666,5.434c-0.133,0.834-0.2,1.767,1.034,1.899c0,0,0.233,0,0.566,0l-0.434,0.7c-0.399,0-1.033,0-1.299,0
		c-0.6,0-1.066,0.833-1.066,1.867c0,1.032,0.466,1.865,1.066,1.865c0.3,0,1.233,0,1.534,0c0.566,0,1.033-0.766,1.066-1.766
		l0.067-0.034c0.2,0.534,0.534,0.867,0.9,0.867h0.033c0.2,0.534,0.534,0.9,0.933,0.9c0.366,0,1.434,0,1.8,0
		c0.601,0,1.067-0.834,1.067-1.867c0-0.133,0-0.3-0.034-0.434c0.034,0,0.067,0,0.101,0.033c0.134,0.768,0.533,1.367,1.033,1.367
		c0.434,0,1.5,0,1.966,0c0.6,0,1.067-0.833,1.067-1.867c0-1.032-0.467-1.866-1.067-1.866c-0.367,0-1.132,0-1.632,0l0.167-0.967
		h0.133c0,0,0.8-1.165,0.8-1.899l1.167-1.7l0.133-0.966c0,0,1.367-1.433,2.733-2.134c1.367-0.666,3.533-2.032,5.033-3.799
		l0.767-0.268l0.667-0.966c0,0,1.033-0.334,1.7-1.434c0.667-1.1,2.867-2.3,3.8-2.866c0.967-0.533,1.966-0.866,1.966-0.866
		s1.434,0.565,3.6,0.866c0,0,0.966-2.533,1.9-4.167c0.967-1.633,2.6-3.132,3.399-3.266l-0.066,1.766c0,0-1.633,4.167-2.1,5.732
		c-0.466,1.568-1.7,6.2-2.333,7.101c-0.6,0.867-0.733,1.199-0.733,1.199s-1.5,0-1.701,0.466c-0.199,0.469-0.6,1.769-0.6,1.769
		l-0.899,0.199l-1.233,1.766c0,0-5.167,4.367-5.233,5.468c-0.034,0.699,0.933,0.867,1.6,0.899l-0.467,0.767l-0.733,0.267
		l-0.267,0.366c0,0,0.233,0.633,1.033,1c-0.033,0.167-0.066,0.366-0.066,0.534c0,1.032,0.6,1.867,1.366,1.867c0.467,0,1.8,0,2.267,0
		c0.367,0,0.699-0.202,0.966-0.534c0.233,0.332,0.567,0.534,0.967,0.534c0.267,0,1.2,0,1.466,0c0.435,0,0.833-0.302,1.1-0.768
		c0.1,0.034,0.233,0.066,0.367,0.066c0.3,0,1.333,0,1.634,0c0.399,0,0.766-0.233,1.033-0.633c0.233,0.399,0.6,0.633,1.032,0.633
		c0.434,0,1.667,0,2.101,0c0.766,0,1.366-0.833,1.366-1.866s-0.6-1.867-1.366-1.867c-0.434,0-1.667,0-2.101,0
		c-0.066,0-0.166,0-0.233,0.033l-0.2-0.899l0.534-0.567h0.299c0,0,0.4-2.266,0.267-3.133c-0.133-0.865-1.233-1.633-1.033-2.167
		c0.201-0.533,0.867-2.1,0.867-2.1s6.8-9.464,7.901-11.73c1.099-2.268,1.432-3.467,1.432-3.467s1.801,1.798,3.401,0.8l0,0
		c-0.134-0.267-3.234-6.434-2.067-10.3l0.032-0.066v-0.067c0.134-0.3,1.234-2.6,2.435-3.799l-0.234-0.433l0.4-0.434l3.566-3.867
		l0.934-1.699C65.045,59.332,63.912,59.432,62.846,59.432z M18.915,104.862c-0.3,0-0.533-0.6-0.533-1.333s0.233-1.334,0.533-1.334
		c0.299,0,0.533,0.601,0.533,1.334S19.214,104.862,18.915,104.862z M23.081,101.296c0.301,0,0.534,0.6,0.534,1.334
		c0,0.766-0.233,1.331-0.534,1.331c-0.3,0-0.534-0.599-0.534-1.331C22.547,101.896,22.781,101.296,23.081,101.296z M40.313,64.832
		c0.133,0.534,0.533,0.8,0.533,0.8s-5.433,6.132-9.333,12.533c0,0-3.667,1.699-5.1,3.531c0,0,0.134-1.232-0.267-1.633l1.833-2.999
		l-0.066-0.533l1.367-1.768l1.166-1.099l3-6.733l-0.201-0.467l0.401-1.033l3.466-4.7l2.167,0.867c0,0,0,1.233,0.333,1.566
		c0.333,0.333,1.434,0.767,1.434,0.767S40.18,64.265,40.313,64.832z M43.846,44.933l-0.867,1.534L42.346,44.3l-1.666-1.034
		l1.3-0.899L41.813,40.2l1.433,1.6l1.567-0.299l-0.433,1.899l1.133,1.967L43.846,44.933z M42.68,107.062
		c-0.434,0-0.767-0.634-0.767-1.4c0-0.766,0.333-1.398,0.767-1.398c0.433,0,0.766,0.633,0.766,1.398
		C43.446,106.428,43.113,107.062,42.68,107.062z M49.946,103.562c0.433,0,0.767,0.634,0.767,1.4c0,0.768-0.334,1.4-0.767,1.4
		c-0.434,0-0.767-0.633-0.767-1.4C49.179,104.195,49.512,103.562,49.946,103.562z"/>
	<g>
		<g>
			<polygon fill="#FFFFFF" points="31.692,132.98 34.946,113.695 26.452,113.695 22.067,124.931 22.032,124.931 21.416,113.695
				12.921,113.695 9.667,132.98 15.147,132.98 17.442,119.21 17.477,119.21 18.367,132.98 22.923,132.98 28.438,119.21
				28.473,119.21 26.211,132.98 			"/>
			<path fill="#FFFFFF" d="M54.574,121.368c0.582-1.062,0.891-2.226,0.891-3.493c0-1.713-0.444-2.879-1.37-3.494
				c-0.685-0.48-1.817-0.719-3.495-0.719H37.926l-3.253,19.284h6.028l0.994-5.926h4.282c0.821,0,1.233,0.514,1.233,1.541
				c0,0.205,0,0.445-0.035,0.754c-0.239,2.124-0.342,3.356-0.308,3.665h6.577c-0.241-0.548-0.376-1.13-0.376-1.814
				c0-0.138,0-0.31,0.033-0.446l0.444-4.212c0.035-0.208,0.035-0.379,0.035-0.584c0-1.268-0.444-2.054-1.268-2.363l0.034-0.068
				C53.203,123.115,53.993,122.431,54.574,121.368z M48.716,120.376c-0.171,1.198-0.856,1.814-1.953,1.814h-4.281l0.616-3.631h4.18
				c0.994,0,1.508,0.411,1.508,1.268C48.786,119.999,48.75,120.17,48.716,120.376z"/>
			<path fill="#FFFFFF" d="M75.058,115.134c-1.061-0.958-2.671-1.438-4.897-1.438H58.445l-3.254,19.285h11.852
				c5.172,0,8.324-3.22,9.387-9.659c0.205-1.232,0.308-2.33,0.308-3.288C76.737,117.771,76.188,116.128,75.058,115.134z
				 M70.194,123.321c-0.548,3.22-2.124,4.796-4.692,4.796h-3.461l1.61-9.558h3.46c2.124,0,3.186,1.063,3.221,3.187
				C70.332,122.225,70.297,122.738,70.194,123.321z"/>
			<path fill="#FFFFFF" d="M91.911,113.695h-7.397l-9.729,19.285h6.406l0.992-2.226h6.27l0.273,2.226h6.44L91.911,113.695z
				 M84.307,126.061l2.913-6.542h0.033l0.686,6.542H84.307z"/>
		</g>
		<path fill="#BAE0F7" d="M57.965,121.574c1.748,0.034,3.46,0.034,5.173,0.102l0,0l-1.097,6.475l0.72,0.754h3.461
			c2.569,0,4.144-1.61,4.692-4.796c0.103-0.581,0.137-1.096,0.137-1.575c0-0.205,0-0.411-0.034-0.582
			c1.884,0.067,3.733,0.171,5.584,0.273c-0.035,0.342-0.104,0.754-0.171,1.132c-1.096,6.438-4.215,9.657-9.387,9.657H56.047
			L57.965,121.574z M31.692,132.98l1.85-10.892c-1.576,0.068-3.117,0.171-4.659,0.272l-1.781,10.619H31.692z M47.895,129.315
			c0,0.206,0,0.445-0.035,0.754c-0.171,1.335-0.274,2.295-0.308,2.911h5.858c-0.239-0.548-0.378-1.13-0.378-1.814
			c0-0.138,0-0.31,0.036-0.446l0.444-4.212c0.033-0.208,0.033-0.379,0.033-0.584c0-0.615-0.102-1.129-0.307-1.54
			c-0.103-0.035-0.171-0.104-0.241-0.104v-0.033c0.034,0,0.07-0.034,0.103-0.034c-0.206-0.274-0.481-0.514-0.824-0.651l0.035-0.068
			c0.89-0.308,1.645-0.959,2.194-1.918c-0.172,0-0.343,0-0.514,0c-1.543,0-3.084,0-4.626,0.034c-0.273,0.891-0.89,1.336-1.849,1.336
			h-4.282l-0.72-0.72l0.069-0.444c-1.747,0.033-3.494,0.102-5.207,0.171l-1.85,11.099h5.172l0.994-5.927h4.282
			C47.586,127.055,47.895,128.288,47.895,129.315z M27.17,122.465c-1.061,0.068-2.157,0.172-3.219,0.239l-1.13,2.947h-0.035
			l-0.684-0.721h-0.035l-0.104-2.055l0,0c-1.164,0.103-2.329,0.205-3.459,0.309l0.65,9.796h3.905L27.17,122.465z M10.523,132.98
			h4.624l1.61-9.659c-1.576,0.171-3.151,0.342-4.693,0.513L10.523,132.98z M89.377,132.98h5.789l-1.575-9.386
			c-1.748-0.205-3.528-0.343-5.31-0.514l0.376,3.733h-3.631l-0.72-0.719l1.439-3.22l0,0c-1.507-0.138-3.015-0.239-4.556-0.343
			l-5.31,10.447h5.31l0.992-2.226h6.27l0.72,0.719L89.377,132.98z"/>
	</g>
	<path fill="#BAE0F7" d="M11.516,75.396l-1.034-17.731c0-20.398,15.466-37.164,35.297-39.264c-0.867,0.867-1.467,1.733-1.899,2.367
		l-0.067,0.101c-1.666,2.466-0.5,6.932-0.433,7.132l0.133,0.5l0.5,0.066l1.1,0.167l1.5,2.6c0.299,1.7,0.899,2.8,1.466,3.667
		c-0.833,1.033-1.266,2.267-1.433,3.4c-1.433-1.767-3.333-2.733-5.466-2.733c-0.133,0-0.3,0-0.434,0
		c-6.7,0.367-7.299,6.033-7.5,7.866c-0.167,1.567,0.3,3.467,0.567,4.366c-0.767,0.767-2.5,2.667-3.167,4.5
		c-0.533,1.467-1.267,3.5-2.066,5.899c-0.2,0.634-1.367,3.167-1.8,4.066l-0.299,0.667l0.266,0.132
		c-0.5,0.467-1.033,1.034-1.299,1.567c0,0.034-0.067,0.134-0.133,0.3C20.381,68.099,15.782,71.565,11.516,75.396z M68.744,22.968
		c-2.732-1.5-5.666-2.667-8.766-3.466c-0.199-0.034-0.333-0.034-0.565-0.067c0.499,0.867,0.766,1.667,0.799,2.066
		c0.1,0.7,0.867,3.833,1.167,4.966l0.066,0.233l-0.034,0.133c1.835,0.134,5.401,0.467,6.7,0.9c1.667,0.566,7.566,5.367,8.6,6.233
		l1.533,0.667l0.067,0.033l0.065,0.034L80.312,36l2.265,0.4C79.144,30.868,74.378,26.234,68.744,22.968z M83.811,42.033
		c0.566,0.3,1.3,0.834,1.7,1.7c0.065,0.166,0.333,0.3,0.733,0.367c-0.633-1.867-1.434-3.667-2.334-5.366
		C84.044,39.7,84.11,40.9,83.811,42.033z"/>
	<path fill="#8A221B" d="M74.479,73.598c0,0,2.966-2.633,5.1-4.566c2.133-1.933,4.065-4.567,4.065-4.567s2.701,1.933,4.267,4.7
		c0.534,0.933,0.966,1.6,1.366,2.1l-0.832-14.165c0-4.233-0.668-8.333-1.9-12.166c-0.667-0.067-1.468-0.267-1.733-0.867
		c-0.533-1.133-1.968-1.6-1.968-1.6c0.968-2.267-0.065-5.267-0.065-5.267l-2.768-0.5l-2.064-1.366l-1.635-0.7
		c0,0-6.766-5.6-8.433-6.167c-1.666-0.566-7.599-0.933-7.599-0.933l0.333-0.9c0,0-1.034-4.133-1.167-5.032
		c-0.134-0.9-1.867-5.534-6.9-5.233c-5.033,0.267-7,3.399-8.066,4.966c-1.467,2.2-0.333,6.466-0.333,6.466l1.5,0.234l1.732,3.033
		c0.334,2,1.101,3.134,1.733,4c-1.733,1.733-1.933,4.433-1.6,5.666c0.367,1.233,1.034,2.134,1.9,3.1
		c3.333,0.267,5.201,1.167,6.367,2.2c0.667,0.6,2.065,2.533,2.5,4.433c0.134,0.567,0.366,1.866,0.633,3.199
		c-0.8,1.733-0.366,2.867,0.8,4.233c1.168,1.367,7.699,0.333,7.699,0.333l-1.733,3.133l-3.698,3.966l0.267,0.5
		c-1.234,0.833-2.733,3.966-2.733,3.966c-1.1,3.6,2,9.699,2,9.699l0.666,0.134l1.633,3.032l1.301,0.534
		c1.732,2.133,5.732,9.099,5.732,9.099l-0.199,1.999c-0.401,0.335-1.366,2.135-1.366,2.135s-4.001,3.366-4.769,3.866
		c-0.766,0.5-1.531,1.8-0.966,2.766c0.101,0.134,0.467,0.201,1.067,0.233c-0.233,0.4-0.5,0.866-0.5,0.866l-0.701,0.334l-0.232,0.434
		c0,0,0.399,0.667,1.434,0.934c0,0.066,0,0.1,0,0.133c0,1.033,0.6,1.899,1.299,1.899c0.301,0,1.268,0,1.567,0
		c0.434,0,0.8-0.332,1.067-0.799c0.232,0.399,0.565,0.666,0.965,0.666c0.334,0,1.435,0,1.801,0c0.566,0,1.067-0.565,1.232-1.3
		c0.201,0.2,0.434,0.3,0.701,0.3c0.299,0,1.233,0,1.5,0c0.499,0,0.9-0.399,1.133-0.967c0.233,0.567,0.633,0.967,1.133,0.967
		c0.333,0,1.334,0,1.633,0c0.733,0,1.301-0.833,1.301-1.866c0-1.067-0.567-1.899-1.301-1.899c-0.299,0-1.332,0-1.633,0l0,0
		l0.066-0.568c0,0,0.334,0.267,0.734,0.034c0.198-0.134,0.134-0.433,0.033-0.699c0.033,0,0.033,0,0.033,0
		c0.633-2.768-0.267-5.233-0.634-6.065c-0.334-0.834-0.133-2.567-0.133-2.567l-0.967-0.201c0,0-2.399-3.866-2.834-8.499
		c-0.433-4.632-1.665-5.933-1.665-5.933l-0.435-3.799c0.634-1.167,1.034-2.767,1.034-2.767L74.479,73.598z M78.811,103.495
		c0.434,0,0.768,0.634,0.768,1.434c0,0.801-0.334,1.434-0.768,1.434s-0.767-0.633-0.767-1.434
		C78.078,104.129,78.41,103.495,78.811,103.495z M71.444,104.396c0.434,0,0.767,0.633,0.767,1.434c0,0.799-0.333,1.432-0.767,1.432
		c-0.433,0-0.767-0.633-0.767-1.432C70.646,105.028,71.012,104.396,71.444,104.396z"/>
</g>
</svg>
